<mxfile host="app.diagrams.net" modified="2024-04-30T21:42:44.210Z" agent="Mozilla/5.0 (Windows NT 10.0; Win64; x64) AppleWebKit/537.36 (KHTML, like Gecko) Chrome/124.0.0.0 Safari/537.36" etag="crINmxkoGC-JqdMpvTYw" version="24.3.1" type="github" pages="7">
  <diagram name="Page-1" id="hZs4TprPsyaumDK0_sHf">
    <mxGraphModel dx="1181" dy="468" grid="1" gridSize="10" guides="1" tooltips="1" connect="1" arrows="1" fold="1" page="1" pageScale="1" pageWidth="850" pageHeight="1100" math="0" shadow="0">
      <root>
        <mxCell id="0" />
        <mxCell id="1" parent="0" />
        <mxCell id="qTcmTDuub0_u2sDyGziV-69" value="" style="whiteSpace=wrap;html=1;aspect=fixed;" vertex="1" parent="1">
          <mxGeometry x="70" y="10" width="780" height="780" as="geometry" />
        </mxCell>
        <mxCell id="qTcmTDuub0_u2sDyGziV-82" value="" style="line;strokeWidth=1;rotatable=0;dashed=0;labelPosition=right;align=left;verticalAlign=middle;spacingTop=0;spacingLeft=6;points=[];portConstraint=eastwest;" vertex="1" parent="1">
          <mxGeometry x="70" y="180" width="780" height="10" as="geometry" />
        </mxCell>
        <mxCell id="qTcmTDuub0_u2sDyGziV-83" value="" style="line;strokeWidth=1;rotatable=0;dashed=0;labelPosition=right;align=left;verticalAlign=middle;spacingTop=0;spacingLeft=6;points=[];portConstraint=eastwest;" vertex="1" parent="1">
          <mxGeometry x="70" y="590" width="780" height="10" as="geometry" />
        </mxCell>
        <mxCell id="qTcmTDuub0_u2sDyGziV-84" value="&lt;font style=&quot;font-size: 24px;&quot;&gt;Interface&lt;/font&gt;" style="rounded=1;whiteSpace=wrap;html=1;fillColor=#FFFFFF;strokeColor=#FFFFFF;" vertex="1" parent="1">
          <mxGeometry x="120" y="40" width="120" height="60" as="geometry" />
        </mxCell>
        <mxCell id="qTcmTDuub0_u2sDyGziV-98" value="&lt;div style=&quot;text-align: justify;&quot;&gt;&lt;span style=&quot;background-color: initial;&quot;&gt;Suke-Bederete&lt;/span&gt;&lt;/div&gt;&lt;div style=&quot;text-align: justify;&quot;&gt;&lt;span style=&quot;background-color: initial;&quot;&gt;Client&lt;/span&gt;&lt;/div&gt;" style="html=1;overflow=block;blockSpacing=1;whiteSpace=wrap;fontSize=21.7;fontColor=#ffffff;align=left;spacing=3.8;verticalAlign=middle;strokeColor=none;strokeOpacity=100;fillOpacity=100;rounded=1;absoluteArcSize=1;arcSize=9;fillColor=#979ea8;strokeWidth=0;lucidId=LtHx1uukUI~n;" vertex="1" parent="1">
          <mxGeometry x="430" y="42.5" width="200" height="55" as="geometry" />
        </mxCell>
        <mxCell id="qTcmTDuub0_u2sDyGziV-99" value="" style="html=1;overflow=block;blockSpacing=1;whiteSpace=wrap;shape=component;align=left;spacingLeft=36;fontSize=13;spacing=0;strokeColor=#3a414a;strokeOpacity=100;rounded=1;absoluteArcSize=1;arcSize=9;fillColor=#FFFFFF;strokeWidth=3;lucidId=uxHxPW2O-tef;" vertex="1" parent="1">
          <mxGeometry x="580" y="48.75" width="50" height="42.5" as="geometry" />
        </mxCell>
        <mxCell id="qTcmTDuub0_u2sDyGziV-100" value="Database&lt;br&gt;&amp;nbsp;Server" style="html=1;overflow=block;blockSpacing=1;whiteSpace=wrap;fontSize=21.7;fontColor=#ffffff;align=left;spacing=3.8;verticalAlign=middle;strokeColor=none;strokeOpacity=100;fillOpacity=100;rounded=1;absoluteArcSize=1;arcSize=9;fillColor=#979ea8;strokeWidth=0;lucidId=LtHx1uukUI~n;" vertex="1" parent="1">
          <mxGeometry x="380" y="680" width="200" height="55" as="geometry" />
        </mxCell>
        <mxCell id="qTcmTDuub0_u2sDyGziV-101" value="" style="html=1;overflow=block;blockSpacing=1;whiteSpace=wrap;shape=component;align=left;spacingLeft=36;fontSize=13;spacing=0;strokeColor=#3a414a;strokeOpacity=100;rounded=1;absoluteArcSize=1;arcSize=9;fillColor=#FFFFFF;strokeWidth=3;lucidId=uxHxPW2O-tef;" vertex="1" parent="1">
          <mxGeometry x="530" y="686.25" width="50" height="42.5" as="geometry" />
        </mxCell>
        <mxCell id="qTcmTDuub0_u2sDyGziV-102" value="&lt;font style=&quot;font-size: 18px;&quot;&gt;Database&lt;/font&gt;" style="rounded=1;whiteSpace=wrap;html=1;fillColor=#FFFFFF;strokeColor=#FFFFFF;" vertex="1" parent="1">
          <mxGeometry x="100" y="660" width="120" height="60" as="geometry" />
        </mxCell>
        <mxCell id="qTcmTDuub0_u2sDyGziV-166" value="&lt;font style=&quot;font-size: 14px;&quot;&gt;Order&lt;/font&gt;&lt;div&gt;&lt;font style=&quot;font-size: 14px;&quot;&gt;&amp;nbsp;management&amp;nbsp;&lt;/font&gt;&lt;/div&gt;" style="html=1;overflow=block;blockSpacing=1;whiteSpace=wrap;fontSize=21.7;fontColor=#ffffff;align=left;spacing=3.8;verticalAlign=middle;strokeColor=none;strokeOpacity=100;fillOpacity=100;rounded=1;absoluteArcSize=1;arcSize=9;fillColor=#979ea8;strokeWidth=0;lucidId=LtHx1uukUI~n;" vertex="1" parent="1">
          <mxGeometry x="90" y="320" width="180" height="55" as="geometry" />
        </mxCell>
        <mxCell id="qTcmTDuub0_u2sDyGziV-168" value="&lt;font style=&quot;font-size: 18px;&quot;&gt;Application Logic&lt;/font&gt;" style="rounded=1;whiteSpace=wrap;html=1;fillColor=#FFFFFF;strokeColor=#FFFFFF;" vertex="1" parent="1">
          <mxGeometry x="80" y="248.75" width="100" height="60" as="geometry" />
        </mxCell>
        <mxCell id="qTcmTDuub0_u2sDyGziV-169" value="payment&amp;nbsp;" style="html=1;overflow=block;blockSpacing=1;whiteSpace=wrap;fontSize=21.7;fontColor=#ffffff;align=left;spacing=3.8;verticalAlign=middle;strokeColor=none;strokeOpacity=100;fillOpacity=100;rounded=1;absoluteArcSize=1;arcSize=9;fillColor=#979ea8;strokeWidth=0;lucidId=LtHx1uukUI~n;" vertex="1" parent="1">
          <mxGeometry x="650" y="308.75" width="180" height="55" as="geometry" />
        </mxCell>
        <mxCell id="qTcmTDuub0_u2sDyGziV-170" value="" style="html=1;overflow=block;blockSpacing=1;whiteSpace=wrap;shape=component;align=left;spacingLeft=36;fontSize=13;spacing=0;strokeColor=#3a414a;strokeOpacity=100;rounded=1;absoluteArcSize=1;arcSize=9;fillColor=#FFFFFF;strokeWidth=3;lucidId=uxHxPW2O-tef;" vertex="1" parent="1">
          <mxGeometry x="210" y="326.25" width="50" height="42.5" as="geometry" />
        </mxCell>
        <mxCell id="qTcmTDuub0_u2sDyGziV-171" value="add Product" style="html=1;overflow=block;blockSpacing=1;whiteSpace=wrap;fontSize=21.7;fontColor=#ffffff;align=left;spacing=3.8;verticalAlign=middle;strokeColor=none;strokeOpacity=100;fillOpacity=100;rounded=1;absoluteArcSize=1;arcSize=9;fillColor=#979ea8;strokeWidth=0;lucidId=LtHx1uukUI~n;" vertex="1" parent="1">
          <mxGeometry x="650" y="400" width="180" height="55" as="geometry" />
        </mxCell>
        <mxCell id="qTcmTDuub0_u2sDyGziV-173" value="&lt;font style=&quot;font-size: 14px;&quot;&gt;Inventory&amp;nbsp;&lt;/font&gt;&lt;div&gt;&lt;font style=&quot;font-size: 14px;&quot;&gt;Management&amp;nbsp;&lt;/font&gt;&lt;/div&gt;" style="html=1;overflow=block;blockSpacing=1;whiteSpace=wrap;fontSize=21.7;fontColor=#ffffff;align=left;spacing=3.8;verticalAlign=middle;strokeColor=none;strokeOpacity=100;fillOpacity=100;rounded=1;absoluteArcSize=1;arcSize=9;fillColor=#979ea8;strokeWidth=0;lucidId=LtHx1uukUI~n;" vertex="1" parent="1">
          <mxGeometry x="90" y="390" width="180" height="55" as="geometry" />
        </mxCell>
        <mxCell id="qTcmTDuub0_u2sDyGziV-174" value="" style="html=1;overflow=block;blockSpacing=1;whiteSpace=wrap;shape=component;align=left;spacingLeft=36;fontSize=13;spacing=0;strokeColor=#3a414a;strokeOpacity=100;rounded=1;absoluteArcSize=1;arcSize=9;fillColor=#FFFFFF;strokeWidth=3;lucidId=uxHxPW2O-tef;" vertex="1" parent="1">
          <mxGeometry x="780" y="406.25" width="50" height="42.5" as="geometry" />
        </mxCell>
        <mxCell id="qTcmTDuub0_u2sDyGziV-175" value="create shop" style="html=1;overflow=block;blockSpacing=1;whiteSpace=wrap;fontSize=21.7;fontColor=#ffffff;align=left;spacing=3.8;verticalAlign=middle;strokeColor=none;strokeOpacity=100;fillOpacity=100;rounded=1;absoluteArcSize=1;arcSize=9;fillColor=#979ea8;strokeWidth=0;lucidId=LtHx1uukUI~n;" vertex="1" parent="1">
          <mxGeometry x="80" y="495" width="180" height="55" as="geometry" />
        </mxCell>
        <mxCell id="qTcmTDuub0_u2sDyGziV-176" value="" style="html=1;overflow=block;blockSpacing=1;whiteSpace=wrap;shape=component;align=left;spacingLeft=36;fontSize=13;spacing=0;strokeColor=#3a414a;strokeOpacity=100;rounded=1;absoluteArcSize=1;arcSize=9;fillColor=#FFFFFF;strokeWidth=3;lucidId=uxHxPW2O-tef;" vertex="1" parent="1">
          <mxGeometry x="780" y="315" width="50" height="42.5" as="geometry" />
        </mxCell>
        <mxCell id="qTcmTDuub0_u2sDyGziV-177" value="registration&amp;nbsp;" style="html=1;overflow=block;blockSpacing=1;whiteSpace=wrap;fontSize=21.7;fontColor=#ffffff;align=left;spacing=3.8;verticalAlign=middle;strokeColor=none;strokeOpacity=100;fillOpacity=100;rounded=1;absoluteArcSize=1;arcSize=9;fillColor=#979ea8;strokeWidth=0;lucidId=LtHx1uukUI~n;" vertex="1" parent="1">
          <mxGeometry x="650" y="495" width="180" height="55" as="geometry" />
        </mxCell>
        <mxCell id="qTcmTDuub0_u2sDyGziV-178" value="" style="html=1;overflow=block;blockSpacing=1;whiteSpace=wrap;shape=component;align=left;spacingLeft=36;fontSize=13;spacing=0;strokeColor=#3a414a;strokeOpacity=100;rounded=1;absoluteArcSize=1;arcSize=9;fillColor=#FFFFFF;strokeWidth=3;lucidId=uxHxPW2O-tef;" vertex="1" parent="1">
          <mxGeometry x="780" y="501.25" width="50" height="42.5" as="geometry" />
        </mxCell>
        <mxCell id="qTcmTDuub0_u2sDyGziV-179" value="manage&amp;nbsp; shop template" style="html=1;overflow=block;blockSpacing=1;whiteSpace=wrap;fontSize=21.7;fontColor=#ffffff;align=left;spacing=3.8;verticalAlign=middle;strokeColor=none;strokeOpacity=100;fillOpacity=100;rounded=1;absoluteArcSize=1;arcSize=9;fillColor=#979ea8;strokeWidth=0;lucidId=LtHx1uukUI~n;" vertex="1" parent="1">
          <mxGeometry x="360" y="440" width="200" height="55" as="geometry" />
        </mxCell>
        <mxCell id="qTcmTDuub0_u2sDyGziV-180" value="Web Server" style="html=1;overflow=block;blockSpacing=1;whiteSpace=wrap;fontSize=21.7;fontColor=#ffffff;align=left;spacing=3.8;verticalAlign=middle;strokeColor=none;strokeOpacity=100;fillOpacity=100;rounded=1;absoluteArcSize=1;arcSize=9;fillColor=#979ea8;strokeWidth=0;lucidId=LtHx1uukUI~n;" vertex="1" parent="1">
          <mxGeometry x="380" y="200" width="210" height="55" as="geometry" />
        </mxCell>
        <mxCell id="qTcmTDuub0_u2sDyGziV-181" value="" style="html=1;overflow=block;blockSpacing=1;whiteSpace=wrap;shape=component;align=left;spacingLeft=36;fontSize=13;spacing=0;strokeColor=#3a414a;strokeOpacity=100;rounded=1;absoluteArcSize=1;arcSize=9;fillColor=#FFFFFF;strokeWidth=3;lucidId=uxHxPW2O-tef;" vertex="1" parent="1">
          <mxGeometry x="505" y="200" width="65" height="48.75" as="geometry" />
        </mxCell>
        <mxCell id="qTcmTDuub0_u2sDyGziV-184" value="" style="html=1;overflow=block;blockSpacing=1;whiteSpace=wrap;shape=component;align=left;spacingLeft=36;fontSize=13;spacing=0;strokeColor=#3a414a;strokeOpacity=100;rounded=1;absoluteArcSize=1;arcSize=9;fillColor=#FFFFFF;strokeWidth=3;lucidId=uxHxPW2O-tef;" vertex="1" parent="1">
          <mxGeometry x="505" y="448.75" width="50" height="42.5" as="geometry" />
        </mxCell>
        <mxCell id="qTcmTDuub0_u2sDyGziV-185" value="" style="html=1;overflow=block;blockSpacing=1;whiteSpace=wrap;shape=component;align=left;spacingLeft=36;fontSize=13;spacing=0;strokeColor=#3a414a;strokeOpacity=100;rounded=1;absoluteArcSize=1;arcSize=9;fillColor=#FFFFFF;strokeWidth=3;lucidId=uxHxPW2O-tef;" vertex="1" parent="1">
          <mxGeometry x="200" y="501.25" width="50" height="42.5" as="geometry" />
        </mxCell>
        <mxCell id="qTcmTDuub0_u2sDyGziV-186" value="" style="html=1;overflow=block;blockSpacing=1;whiteSpace=wrap;shape=component;align=left;spacingLeft=36;fontSize=13;spacing=0;strokeColor=#3a414a;strokeOpacity=100;rounded=1;absoluteArcSize=1;arcSize=9;fillColor=#FFFFFF;strokeWidth=3;lucidId=uxHxPW2O-tef;" vertex="1" parent="1">
          <mxGeometry x="210" y="396.25" width="50" height="42.5" as="geometry" />
        </mxCell>
        <mxCell id="qTcmTDuub0_u2sDyGziV-189" value="" style="endArrow=classic;html=1;rounded=0;entryX=1;entryY=0.25;entryDx=0;entryDy=0;" edge="1" parent="1" target="qTcmTDuub0_u2sDyGziV-166">
          <mxGeometry width="50" height="50" relative="1" as="geometry">
            <mxPoint x="390" y="255" as="sourcePoint" />
            <mxPoint x="390" y="435" as="targetPoint" />
          </mxGeometry>
        </mxCell>
        <mxCell id="qTcmTDuub0_u2sDyGziV-190" value="" style="endArrow=classic;html=1;rounded=0;entryX=1;entryY=0;entryDx=0;entryDy=0;" edge="1" parent="1" target="qTcmTDuub0_u2sDyGziV-173">
          <mxGeometry width="50" height="50" relative="1" as="geometry">
            <mxPoint x="450" y="255" as="sourcePoint" />
            <mxPoint x="240" y="402.5" as="targetPoint" />
          </mxGeometry>
        </mxCell>
        <mxCell id="qTcmTDuub0_u2sDyGziV-191" value="" style="endArrow=classic;html=1;rounded=0;entryX=0.5;entryY=0;entryDx=0;entryDy=0;" edge="1" parent="1">
          <mxGeometry width="50" height="50" relative="1" as="geometry">
            <mxPoint x="490" y="255" as="sourcePoint" />
            <mxPoint x="490" y="435" as="targetPoint" />
            <Array as="points">
              <mxPoint x="490" y="325" />
            </Array>
          </mxGeometry>
        </mxCell>
        <mxCell id="qTcmTDuub0_u2sDyGziV-192" value="" style="endArrow=classic;html=1;rounded=0;entryX=0;entryY=0.25;entryDx=0;entryDy=0;exitX=0.609;exitY=1.083;exitDx=0;exitDy=0;exitPerimeter=0;" edge="1" parent="1" source="qTcmTDuub0_u2sDyGziV-180" target="qTcmTDuub0_u2sDyGziV-171">
          <mxGeometry width="50" height="50" relative="1" as="geometry">
            <mxPoint x="503.82" y="260" as="sourcePoint" />
            <mxPoint x="503.82" y="440" as="targetPoint" />
          </mxGeometry>
        </mxCell>
        <mxCell id="qTcmTDuub0_u2sDyGziV-193" value="" style="endArrow=classic;html=1;rounded=0;entryX=0;entryY=0.25;entryDx=0;entryDy=0;" edge="1" parent="1" target="qTcmTDuub0_u2sDyGziV-169">
          <mxGeometry width="50" height="50" relative="1" as="geometry">
            <mxPoint x="553.82" y="258.75" as="sourcePoint" />
            <mxPoint x="553.82" y="438.75" as="targetPoint" />
          </mxGeometry>
        </mxCell>
        <mxCell id="qTcmTDuub0_u2sDyGziV-195" value="" style="endArrow=classic;html=1;rounded=0;entryX=1;entryY=0.25;entryDx=0;entryDy=0;" edge="1" parent="1" source="qTcmTDuub0_u2sDyGziV-180" target="qTcmTDuub0_u2sDyGziV-175">
          <mxGeometry width="50" height="50" relative="1" as="geometry">
            <mxPoint x="460" y="265" as="sourcePoint" />
            <mxPoint x="280" y="400" as="targetPoint" />
          </mxGeometry>
        </mxCell>
        <mxCell id="2XM9hDJ7tUfPJEooze2m-2" value="" style="endArrow=classic;html=1;rounded=0;entryX=0.5;entryY=0;entryDx=0;entryDy=0;exitX=0;exitY=0.75;exitDx=0;exitDy=0;" edge="1" parent="1" source="qTcmTDuub0_u2sDyGziV-171" target="qTcmTDuub0_u2sDyGziV-100">
          <mxGeometry width="50" height="50" relative="1" as="geometry">
            <mxPoint x="650" y="455" as="sourcePoint" />
            <mxPoint x="490" y="660" as="targetPoint" />
          </mxGeometry>
        </mxCell>
        <mxCell id="2XM9hDJ7tUfPJEooze2m-3" value="" style="endArrow=classic;html=1;rounded=0;entryX=0.351;entryY=-0.008;entryDx=0;entryDy=0;exitX=0.609;exitY=1.083;exitDx=0;exitDy=0;exitPerimeter=0;entryPerimeter=0;" edge="1" parent="1" target="qTcmTDuub0_u2sDyGziV-100">
          <mxGeometry width="50" height="50" relative="1" as="geometry">
            <mxPoint x="260" y="526" as="sourcePoint" />
            <mxPoint x="402" y="680" as="targetPoint" />
          </mxGeometry>
        </mxCell>
        <mxCell id="2XM9hDJ7tUfPJEooze2m-4" value="" style="endArrow=classic;html=1;rounded=0;entryX=0.5;entryY=0;entryDx=0;entryDy=0;exitX=0.609;exitY=1.083;exitDx=0;exitDy=0;exitPerimeter=0;" edge="1" parent="1" target="qTcmTDuub0_u2sDyGziV-100">
          <mxGeometry width="50" height="50" relative="1" as="geometry">
            <mxPoint x="270" y="420" as="sourcePoint" />
            <mxPoint x="412" y="574" as="targetPoint" />
          </mxGeometry>
        </mxCell>
        <mxCell id="2XM9hDJ7tUfPJEooze2m-5" value="" style="endArrow=classic;html=1;rounded=0;exitX=0.609;exitY=1.083;exitDx=0;exitDy=0;exitPerimeter=0;" edge="1" parent="1">
          <mxGeometry width="50" height="50" relative="1" as="geometry">
            <mxPoint x="270" y="357.5" as="sourcePoint" />
            <mxPoint x="480" y="680" as="targetPoint" />
          </mxGeometry>
        </mxCell>
        <mxCell id="2XM9hDJ7tUfPJEooze2m-6" value="" style="endArrow=classic;html=1;rounded=0;entryX=0.5;entryY=0;entryDx=0;entryDy=0;exitX=0;exitY=0.5;exitDx=0;exitDy=0;" edge="1" parent="1" source="qTcmTDuub0_u2sDyGziV-177">
          <mxGeometry width="50" height="50" relative="1" as="geometry">
            <mxPoint x="660" y="455" as="sourcePoint" />
            <mxPoint x="490" y="680" as="targetPoint" />
          </mxGeometry>
        </mxCell>
        <mxCell id="2XM9hDJ7tUfPJEooze2m-7" value="" style="endArrow=classic;html=1;rounded=0;" edge="1" parent="1">
          <mxGeometry width="50" height="50" relative="1" as="geometry">
            <mxPoint x="650" y="326.25" as="sourcePoint" />
            <mxPoint x="480" y="670" as="targetPoint" />
          </mxGeometry>
        </mxCell>
        <mxCell id="2XM9hDJ7tUfPJEooze2m-8" value="" style="endArrow=classic;html=1;rounded=0;entryX=0.5;entryY=0;entryDx=0;entryDy=0;" edge="1" parent="1">
          <mxGeometry width="50" height="50" relative="1" as="geometry">
            <mxPoint x="479.29" y="491.25" as="sourcePoint" />
            <mxPoint x="479.29" y="671.25" as="targetPoint" />
            <Array as="points">
              <mxPoint x="479.29" y="561.25" />
            </Array>
          </mxGeometry>
        </mxCell>
        <mxCell id="2XM9hDJ7tUfPJEooze2m-9" value="" style="endArrow=classic;html=1;rounded=0;entryX=0.5;entryY=0;entryDx=0;entryDy=0;" edge="1" parent="1">
          <mxGeometry width="50" height="50" relative="1" as="geometry">
            <mxPoint x="490" y="100" as="sourcePoint" />
            <mxPoint x="490" y="200" as="targetPoint" />
            <Array as="points">
              <mxPoint x="490" y="90" />
            </Array>
          </mxGeometry>
        </mxCell>
      </root>
    </mxGraphModel>
  </diagram>
  <diagram id="1VxrRFpHc0w3xHoUnPw1" name="Page-2">
    <mxGraphModel dx="1400" dy="1685" grid="1" gridSize="10" guides="1" tooltips="1" connect="1" arrows="1" fold="1" page="1" pageScale="1" pageWidth="850" pageHeight="1100" math="0" shadow="0">
      <root>
        <mxCell id="0" />
        <mxCell id="1" parent="0" />
        <mxCell id="TBmFtJm7t9rp__sLydAt-4" value="" style="shape=cross;whiteSpace=wrap;html=1;size=1;" vertex="1" parent="1">
          <mxGeometry x="390" y="10" width="10" as="geometry" />
        </mxCell>
        <mxCell id="TBmFtJm7t9rp__sLydAt-8" value="" style="shape=cross;whiteSpace=wrap;html=1;" vertex="1" parent="1">
          <mxGeometry x="390" width="10" height="10" as="geometry" />
        </mxCell>
        <mxCell id="TBmFtJm7t9rp__sLydAt-9" value="" style="shape=cross;whiteSpace=wrap;html=1;direction=south;size=0;" vertex="1" parent="1">
          <mxGeometry x="380" y="-30" width="20" height="20" as="geometry" />
        </mxCell>
        <mxCell id="TBmFtJm7t9rp__sLydAt-76" value="&lt;&lt;Entity&gt;&gt;&#xa;Merchant" style="swimlane;fontStyle=1;align=center;verticalAlign=top;childLayout=stackLayout;horizontal=1;startSize=40;horizontalStack=0;resizeParent=1;resizeParentMax=0;resizeLast=0;collapsible=0;marginBottom=0;" vertex="1" parent="1">
          <mxGeometry x="580" y="130" width="195" height="291" as="geometry" />
        </mxCell>
        <mxCell id="TBmFtJm7t9rp__sLydAt-77" value="- merchantID: int" style="text;strokeColor=none;fillColor=none;align=left;verticalAlign=top;spacingLeft=4;spacingRight=4;overflow=hidden;rotatable=0;points=[[0,0.5],[1,0.5]];portConstraint=eastwest;" vertex="1" parent="TBmFtJm7t9rp__sLydAt-76">
          <mxGeometry y="40" width="195" height="27" as="geometry" />
        </mxCell>
        <mxCell id="TBmFtJm7t9rp__sLydAt-78" value="- name: string" style="text;strokeColor=none;fillColor=none;align=left;verticalAlign=top;spacingLeft=4;spacingRight=4;overflow=hidden;rotatable=0;points=[[0,0.5],[1,0.5]];portConstraint=eastwest;" vertex="1" parent="TBmFtJm7t9rp__sLydAt-76">
          <mxGeometry y="67" width="195" height="27" as="geometry" />
        </mxCell>
        <mxCell id="TBmFtJm7t9rp__sLydAt-79" value="- email: string" style="text;strokeColor=none;fillColor=none;align=left;verticalAlign=top;spacingLeft=4;spacingRight=4;overflow=hidden;rotatable=0;points=[[0,0.5],[1,0.5]];portConstraint=eastwest;" vertex="1" parent="TBmFtJm7t9rp__sLydAt-76">
          <mxGeometry y="94" width="195" height="27" as="geometry" />
        </mxCell>
        <mxCell id="TBmFtJm7t9rp__sLydAt-80" value="- password: string" style="text;strokeColor=none;fillColor=none;align=left;verticalAlign=top;spacingLeft=4;spacingRight=4;overflow=hidden;rotatable=0;points=[[0,0.5],[1,0.5]];portConstraint=eastwest;" vertex="1" parent="TBmFtJm7t9rp__sLydAt-76">
          <mxGeometry y="121" width="195" height="27" as="geometry" />
        </mxCell>
        <mxCell id="TBmFtJm7t9rp__sLydAt-81" value="- bankInformation: string" style="text;strokeColor=none;fillColor=none;align=left;verticalAlign=top;spacingLeft=4;spacingRight=4;overflow=hidden;rotatable=0;points=[[0,0.5],[1,0.5]];portConstraint=eastwest;" vertex="1" parent="TBmFtJm7t9rp__sLydAt-76">
          <mxGeometry y="148" width="195" height="27" as="geometry" />
        </mxCell>
        <mxCell id="TBmFtJm7t9rp__sLydAt-82" style="line;strokeWidth=1;fillColor=none;align=left;verticalAlign=middle;spacingTop=-1;spacingLeft=3;spacingRight=3;rotatable=0;labelPosition=right;points=[];portConstraint=eastwest;strokeColor=inherit;" vertex="1" parent="TBmFtJm7t9rp__sLydAt-76">
          <mxGeometry y="175" width="195" height="8" as="geometry" />
        </mxCell>
        <mxCell id="TBmFtJm7t9rp__sLydAt-83" value="+ createShop()" style="text;strokeColor=none;fillColor=none;align=left;verticalAlign=top;spacingLeft=4;spacingRight=4;overflow=hidden;rotatable=0;points=[[0,0.5],[1,0.5]];portConstraint=eastwest;" vertex="1" parent="TBmFtJm7t9rp__sLydAt-76">
          <mxGeometry y="183" width="195" height="27" as="geometry" />
        </mxCell>
        <mxCell id="TBmFtJm7t9rp__sLydAt-84" value="+ manageProducts()" style="text;strokeColor=none;fillColor=none;align=left;verticalAlign=top;spacingLeft=4;spacingRight=4;overflow=hidden;rotatable=0;points=[[0,0.5],[1,0.5]];portConstraint=eastwest;" vertex="1" parent="TBmFtJm7t9rp__sLydAt-76">
          <mxGeometry y="210" width="195" height="27" as="geometry" />
        </mxCell>
        <mxCell id="TBmFtJm7t9rp__sLydAt-85" value="+ manageOrders()" style="text;strokeColor=none;fillColor=none;align=left;verticalAlign=top;spacingLeft=4;spacingRight=4;overflow=hidden;rotatable=0;points=[[0,0.5],[1,0.5]];portConstraint=eastwest;" vertex="1" parent="TBmFtJm7t9rp__sLydAt-76">
          <mxGeometry y="237" width="195" height="27" as="geometry" />
        </mxCell>
        <mxCell id="TBmFtJm7t9rp__sLydAt-86" value="+ publishShop()" style="text;strokeColor=none;fillColor=none;align=left;verticalAlign=top;spacingLeft=4;spacingRight=4;overflow=hidden;rotatable=0;points=[[0,0.5],[1,0.5]];portConstraint=eastwest;" vertex="1" parent="TBmFtJm7t9rp__sLydAt-76">
          <mxGeometry y="264" width="195" height="27" as="geometry" />
        </mxCell>
        <mxCell id="TBmFtJm7t9rp__sLydAt-87" value="&lt;&lt;Entity&gt;&gt;&#xa;Shop" style="swimlane;fontStyle=1;align=center;verticalAlign=top;childLayout=stackLayout;horizontal=1;startSize=41.294117647058826;horizontalStack=0;resizeParent=1;resizeParentMax=0;resizeLast=0;collapsible=0;marginBottom=0;" vertex="1" parent="1">
          <mxGeometry x="590" y="510" width="174" height="245.29411764705884" as="geometry" />
        </mxCell>
        <mxCell id="TBmFtJm7t9rp__sLydAt-88" value="- shopID: int" style="text;strokeColor=none;fillColor=none;align=left;verticalAlign=top;spacingLeft=4;spacingRight=4;overflow=hidden;rotatable=0;points=[[0,0.5],[1,0.5]];portConstraint=eastwest;" vertex="1" parent="TBmFtJm7t9rp__sLydAt-87">
          <mxGeometry y="41.294117647058826" width="174" height="28" as="geometry" />
        </mxCell>
        <mxCell id="TBmFtJm7t9rp__sLydAt-89" value="- name: string" style="text;strokeColor=none;fillColor=none;align=left;verticalAlign=top;spacingLeft=4;spacingRight=4;overflow=hidden;rotatable=0;points=[[0,0.5],[1,0.5]];portConstraint=eastwest;" vertex="1" parent="TBmFtJm7t9rp__sLydAt-87">
          <mxGeometry y="69.29411764705883" width="174" height="28" as="geometry" />
        </mxCell>
        <mxCell id="TBmFtJm7t9rp__sLydAt-90" value="- templateID: int" style="text;strokeColor=none;fillColor=none;align=left;verticalAlign=top;spacingLeft=4;spacingRight=4;overflow=hidden;rotatable=0;points=[[0,0.5],[1,0.5]];portConstraint=eastwest;" vertex="1" parent="TBmFtJm7t9rp__sLydAt-87">
          <mxGeometry y="97.29411764705883" width="174" height="28" as="geometry" />
        </mxCell>
        <mxCell id="TBmFtJm7t9rp__sLydAt-91" value="- merchantID: int" style="text;strokeColor=none;fillColor=none;align=left;verticalAlign=top;spacingLeft=4;spacingRight=4;overflow=hidden;rotatable=0;points=[[0,0.5],[1,0.5]];portConstraint=eastwest;" vertex="1" parent="TBmFtJm7t9rp__sLydAt-87">
          <mxGeometry y="125.29411764705883" width="174" height="28" as="geometry" />
        </mxCell>
        <mxCell id="TBmFtJm7t9rp__sLydAt-92" style="line;strokeWidth=1;fillColor=none;align=left;verticalAlign=middle;spacingTop=-1;spacingLeft=3;spacingRight=3;rotatable=0;labelPosition=right;points=[];portConstraint=eastwest;strokeColor=inherit;" vertex="1" parent="TBmFtJm7t9rp__sLydAt-87">
          <mxGeometry y="153.29411764705884" width="174" height="8" as="geometry" />
        </mxCell>
        <mxCell id="TBmFtJm7t9rp__sLydAt-93" value="+ customizeTemplate()" style="text;strokeColor=none;fillColor=none;align=left;verticalAlign=top;spacingLeft=4;spacingRight=4;overflow=hidden;rotatable=0;points=[[0,0.5],[1,0.5]];portConstraint=eastwest;" vertex="1" parent="TBmFtJm7t9rp__sLydAt-87">
          <mxGeometry y="161.29411764705884" width="174" height="28" as="geometry" />
        </mxCell>
        <mxCell id="TBmFtJm7t9rp__sLydAt-94" value="+ publishShop()" style="text;strokeColor=none;fillColor=none;align=left;verticalAlign=top;spacingLeft=4;spacingRight=4;overflow=hidden;rotatable=0;points=[[0,0.5],[1,0.5]];portConstraint=eastwest;" vertex="1" parent="TBmFtJm7t9rp__sLydAt-87">
          <mxGeometry y="189.29411764705884" width="174" height="28" as="geometry" />
        </mxCell>
        <mxCell id="TBmFtJm7t9rp__sLydAt-95" value="+ manageOrders()" style="text;strokeColor=none;fillColor=none;align=left;verticalAlign=top;spacingLeft=4;spacingRight=4;overflow=hidden;rotatable=0;points=[[0,0.5],[1,0.5]];portConstraint=eastwest;" vertex="1" parent="TBmFtJm7t9rp__sLydAt-87">
          <mxGeometry y="217.29411764705884" width="174" height="28" as="geometry" />
        </mxCell>
        <mxCell id="TBmFtJm7t9rp__sLydAt-96" value="&lt;&lt;Entity&gt;&gt;&#xa;Template" style="swimlane;fontStyle=1;align=center;verticalAlign=top;childLayout=stackLayout;horizontal=1;startSize=45;horizontalStack=0;resizeParent=1;resizeParentMax=0;resizeLast=0;collapsible=0;marginBottom=0;" vertex="1" parent="1">
          <mxGeometry x="380" y="902" width="157" height="173" as="geometry" />
        </mxCell>
        <mxCell id="TBmFtJm7t9rp__sLydAt-97" value="- templateID: int" style="text;strokeColor=none;fillColor=none;align=left;verticalAlign=top;spacingLeft=4;spacingRight=4;overflow=hidden;rotatable=0;points=[[0,0.5],[1,0.5]];portConstraint=eastwest;" vertex="1" parent="TBmFtJm7t9rp__sLydAt-96">
          <mxGeometry y="45" width="157" height="30" as="geometry" />
        </mxCell>
        <mxCell id="TBmFtJm7t9rp__sLydAt-98" value="- name: string" style="text;strokeColor=none;fillColor=none;align=left;verticalAlign=top;spacingLeft=4;spacingRight=4;overflow=hidden;rotatable=0;points=[[0,0.5],[1,0.5]];portConstraint=eastwest;" vertex="1" parent="TBmFtJm7t9rp__sLydAt-96">
          <mxGeometry y="75" width="157" height="30" as="geometry" />
        </mxCell>
        <mxCell id="TBmFtJm7t9rp__sLydAt-99" value="- description: string" style="text;strokeColor=none;fillColor=none;align=left;verticalAlign=top;spacingLeft=4;spacingRight=4;overflow=hidden;rotatable=0;points=[[0,0.5],[1,0.5]];portConstraint=eastwest;" vertex="1" parent="TBmFtJm7t9rp__sLydAt-96">
          <mxGeometry y="105" width="157" height="30" as="geometry" />
        </mxCell>
        <mxCell id="TBmFtJm7t9rp__sLydAt-100" style="line;strokeWidth=1;fillColor=none;align=left;verticalAlign=middle;spacingTop=-1;spacingLeft=3;spacingRight=3;rotatable=0;labelPosition=right;points=[];portConstraint=eastwest;strokeColor=inherit;" vertex="1" parent="TBmFtJm7t9rp__sLydAt-96">
          <mxGeometry y="135" width="157" height="8" as="geometry" />
        </mxCell>
        <mxCell id="TBmFtJm7t9rp__sLydAt-101" value="+ customize()" style="text;strokeColor=none;fillColor=none;align=left;verticalAlign=top;spacingLeft=4;spacingRight=4;overflow=hidden;rotatable=0;points=[[0,0.5],[1,0.5]];portConstraint=eastwest;" vertex="1" parent="TBmFtJm7t9rp__sLydAt-96">
          <mxGeometry y="143" width="157" height="30" as="geometry" />
        </mxCell>
        <mxCell id="TBmFtJm7t9rp__sLydAt-102" value="&lt;&lt;Entity&gt;&gt;&#xa;Product" style="swimlane;fontStyle=1;align=center;verticalAlign=top;childLayout=stackLayout;horizontal=1;startSize=41.294117647058826;horizontalStack=0;resizeParent=1;resizeParentMax=0;resizeLast=0;collapsible=0;marginBottom=0;" vertex="1" parent="1">
          <mxGeometry x="694" y="1201" width="157" height="245.29411764705884" as="geometry" />
        </mxCell>
        <mxCell id="TBmFtJm7t9rp__sLydAt-103" value="- productID: int" style="text;strokeColor=none;fillColor=none;align=left;verticalAlign=top;spacingLeft=4;spacingRight=4;overflow=hidden;rotatable=0;points=[[0,0.5],[1,0.5]];portConstraint=eastwest;" vertex="1" parent="TBmFtJm7t9rp__sLydAt-102">
          <mxGeometry y="41.294117647058826" width="157" height="28" as="geometry" />
        </mxCell>
        <mxCell id="TBmFtJm7t9rp__sLydAt-104" value="- name: string" style="text;strokeColor=none;fillColor=none;align=left;verticalAlign=top;spacingLeft=4;spacingRight=4;overflow=hidden;rotatable=0;points=[[0,0.5],[1,0.5]];portConstraint=eastwest;" vertex="1" parent="TBmFtJm7t9rp__sLydAt-102">
          <mxGeometry y="69.29411764705883" width="157" height="28" as="geometry" />
        </mxCell>
        <mxCell id="TBmFtJm7t9rp__sLydAt-105" value="- description: string" style="text;strokeColor=none;fillColor=none;align=left;verticalAlign=top;spacingLeft=4;spacingRight=4;overflow=hidden;rotatable=0;points=[[0,0.5],[1,0.5]];portConstraint=eastwest;" vertex="1" parent="TBmFtJm7t9rp__sLydAt-102">
          <mxGeometry y="97.29411764705883" width="157" height="28" as="geometry" />
        </mxCell>
        <mxCell id="TBmFtJm7t9rp__sLydAt-106" value="- price: decimal" style="text;strokeColor=none;fillColor=none;align=left;verticalAlign=top;spacingLeft=4;spacingRight=4;overflow=hidden;rotatable=0;points=[[0,0.5],[1,0.5]];portConstraint=eastwest;" vertex="1" parent="TBmFtJm7t9rp__sLydAt-102">
          <mxGeometry y="125.29411764705883" width="157" height="28" as="geometry" />
        </mxCell>
        <mxCell id="TBmFtJm7t9rp__sLydAt-107" value="- quantity: int" style="text;strokeColor=none;fillColor=none;align=left;verticalAlign=top;spacingLeft=4;spacingRight=4;overflow=hidden;rotatable=0;points=[[0,0.5],[1,0.5]];portConstraint=eastwest;" vertex="1" parent="TBmFtJm7t9rp__sLydAt-102">
          <mxGeometry y="153.29411764705884" width="157" height="28" as="geometry" />
        </mxCell>
        <mxCell id="TBmFtJm7t9rp__sLydAt-108" style="line;strokeWidth=1;fillColor=none;align=left;verticalAlign=middle;spacingTop=-1;spacingLeft=3;spacingRight=3;rotatable=0;labelPosition=right;points=[];portConstraint=eastwest;strokeColor=inherit;" vertex="1" parent="TBmFtJm7t9rp__sLydAt-102">
          <mxGeometry y="181.29411764705884" width="157" height="8" as="geometry" />
        </mxCell>
        <mxCell id="TBmFtJm7t9rp__sLydAt-109" value="+ addToCart()" style="text;strokeColor=none;fillColor=none;align=left;verticalAlign=top;spacingLeft=4;spacingRight=4;overflow=hidden;rotatable=0;points=[[0,0.5],[1,0.5]];portConstraint=eastwest;" vertex="1" parent="TBmFtJm7t9rp__sLydAt-102">
          <mxGeometry y="189.29411764705884" width="157" height="28" as="geometry" />
        </mxCell>
        <mxCell id="TBmFtJm7t9rp__sLydAt-110" value="+ removeFromCart()" style="text;strokeColor=none;fillColor=none;align=left;verticalAlign=top;spacingLeft=4;spacingRight=4;overflow=hidden;rotatable=0;points=[[0,0.5],[1,0.5]];portConstraint=eastwest;" vertex="1" parent="TBmFtJm7t9rp__sLydAt-102">
          <mxGeometry y="217.29411764705884" width="157" height="28" as="geometry" />
        </mxCell>
        <mxCell id="TBmFtJm7t9rp__sLydAt-111" value="&lt;&lt;Entity&gt;&gt;&#xa;Order" style="swimlane;fontStyle=1;align=center;verticalAlign=top;childLayout=stackLayout;horizontal=1;startSize=40;horizontalStack=0;resizeParent=1;resizeParentMax=0;resizeLast=0;collapsible=0;marginBottom=0;" vertex="1" parent="1">
          <mxGeometry x="809" y="844" width="191" height="291" as="geometry" />
        </mxCell>
        <mxCell id="TBmFtJm7t9rp__sLydAt-112" value="- orderID: int" style="text;strokeColor=none;fillColor=none;align=left;verticalAlign=top;spacingLeft=4;spacingRight=4;overflow=hidden;rotatable=0;points=[[0,0.5],[1,0.5]];portConstraint=eastwest;" vertex="1" parent="TBmFtJm7t9rp__sLydAt-111">
          <mxGeometry y="40" width="191" height="27" as="geometry" />
        </mxCell>
        <mxCell id="TBmFtJm7t9rp__sLydAt-113" value="- customerID: int" style="text;strokeColor=none;fillColor=none;align=left;verticalAlign=top;spacingLeft=4;spacingRight=4;overflow=hidden;rotatable=0;points=[[0,0.5],[1,0.5]];portConstraint=eastwest;" vertex="1" parent="TBmFtJm7t9rp__sLydAt-111">
          <mxGeometry y="67" width="191" height="27" as="geometry" />
        </mxCell>
        <mxCell id="TBmFtJm7t9rp__sLydAt-114" value="- shopID: int" style="text;strokeColor=none;fillColor=none;align=left;verticalAlign=top;spacingLeft=4;spacingRight=4;overflow=hidden;rotatable=0;points=[[0,0.5],[1,0.5]];portConstraint=eastwest;" vertex="1" parent="TBmFtJm7t9rp__sLydAt-111">
          <mxGeometry y="94" width="191" height="27" as="geometry" />
        </mxCell>
        <mxCell id="TBmFtJm7t9rp__sLydAt-115" value="- products: List" style="text;strokeColor=none;fillColor=none;align=left;verticalAlign=top;spacingLeft=4;spacingRight=4;overflow=hidden;rotatable=0;points=[[0,0.5],[1,0.5]];portConstraint=eastwest;" vertex="1" parent="TBmFtJm7t9rp__sLydAt-111">
          <mxGeometry y="121" width="191" height="27" as="geometry" />
        </mxCell>
        <mxCell id="TBmFtJm7t9rp__sLydAt-116" value="- status: string" style="text;strokeColor=none;fillColor=none;align=left;verticalAlign=top;spacingLeft=4;spacingRight=4;overflow=hidden;rotatable=0;points=[[0,0.5],[1,0.5]];portConstraint=eastwest;" vertex="1" parent="TBmFtJm7t9rp__sLydAt-111">
          <mxGeometry y="148" width="191" height="27" as="geometry" />
        </mxCell>
        <mxCell id="TBmFtJm7t9rp__sLydAt-117" value="- shippingAddress: string" style="text;strokeColor=none;fillColor=none;align=left;verticalAlign=top;spacingLeft=4;spacingRight=4;overflow=hidden;rotatable=0;points=[[0,0.5],[1,0.5]];portConstraint=eastwest;" vertex="1" parent="TBmFtJm7t9rp__sLydAt-111">
          <mxGeometry y="175" width="191" height="27" as="geometry" />
        </mxCell>
        <mxCell id="TBmFtJm7t9rp__sLydAt-118" value="- phoneNumber: string" style="text;strokeColor=none;fillColor=none;align=left;verticalAlign=top;spacingLeft=4;spacingRight=4;overflow=hidden;rotatable=0;points=[[0,0.5],[1,0.5]];portConstraint=eastwest;" vertex="1" parent="TBmFtJm7t9rp__sLydAt-111">
          <mxGeometry y="202" width="191" height="27" as="geometry" />
        </mxCell>
        <mxCell id="TBmFtJm7t9rp__sLydAt-119" style="line;strokeWidth=1;fillColor=none;align=left;verticalAlign=middle;spacingTop=-1;spacingLeft=3;spacingRight=3;rotatable=0;labelPosition=right;points=[];portConstraint=eastwest;strokeColor=inherit;" vertex="1" parent="TBmFtJm7t9rp__sLydAt-111">
          <mxGeometry y="229" width="191" height="8" as="geometry" />
        </mxCell>
        <mxCell id="TBmFtJm7t9rp__sLydAt-120" value="+ placeOrder()" style="text;strokeColor=none;fillColor=none;align=left;verticalAlign=top;spacingLeft=4;spacingRight=4;overflow=hidden;rotatable=0;points=[[0,0.5],[1,0.5]];portConstraint=eastwest;" vertex="1" parent="TBmFtJm7t9rp__sLydAt-111">
          <mxGeometry y="237" width="191" height="27" as="geometry" />
        </mxCell>
        <mxCell id="TBmFtJm7t9rp__sLydAt-121" value="+ cancelOrder()" style="text;strokeColor=none;fillColor=none;align=left;verticalAlign=top;spacingLeft=4;spacingRight=4;overflow=hidden;rotatable=0;points=[[0,0.5],[1,0.5]];portConstraint=eastwest;" vertex="1" parent="TBmFtJm7t9rp__sLydAt-111">
          <mxGeometry y="264" width="191" height="27" as="geometry" />
        </mxCell>
        <mxCell id="TBmFtJm7t9rp__sLydAt-122" value="&lt;&lt;Entity&gt;&gt;&#xa;Page" style="swimlane;fontStyle=1;align=center;verticalAlign=top;childLayout=stackLayout;horizontal=1;startSize=42.599999999999994;horizontalStack=0;resizeParent=1;resizeParentMax=0;resizeLast=0;collapsible=0;marginBottom=0;" vertex="1" parent="1">
          <mxGeometry x="512" y="1247" width="132" height="140.6" as="geometry" />
        </mxCell>
        <mxCell id="TBmFtJm7t9rp__sLydAt-123" value="- pageID: int" style="text;strokeColor=none;fillColor=none;align=left;verticalAlign=top;spacingLeft=4;spacingRight=4;overflow=hidden;rotatable=0;points=[[0,0.5],[1,0.5]];portConstraint=eastwest;" vertex="1" parent="TBmFtJm7t9rp__sLydAt-122">
          <mxGeometry y="42.599999999999994" width="132" height="28" as="geometry" />
        </mxCell>
        <mxCell id="TBmFtJm7t9rp__sLydAt-124" value="- type: string" style="text;strokeColor=none;fillColor=none;align=left;verticalAlign=top;spacingLeft=4;spacingRight=4;overflow=hidden;rotatable=0;points=[[0,0.5],[1,0.5]];portConstraint=eastwest;" vertex="1" parent="TBmFtJm7t9rp__sLydAt-122">
          <mxGeometry y="70.6" width="132" height="28" as="geometry" />
        </mxCell>
        <mxCell id="TBmFtJm7t9rp__sLydAt-125" value="- content: string" style="text;strokeColor=none;fillColor=none;align=left;verticalAlign=top;spacingLeft=4;spacingRight=4;overflow=hidden;rotatable=0;points=[[0,0.5],[1,0.5]];portConstraint=eastwest;" vertex="1" parent="TBmFtJm7t9rp__sLydAt-122">
          <mxGeometry y="98.6" width="132" height="28" as="geometry" />
        </mxCell>
        <mxCell id="TBmFtJm7t9rp__sLydAt-126" style="line;strokeWidth=1;fillColor=none;align=left;verticalAlign=middle;spacingTop=-1;spacingLeft=3;spacingRight=3;rotatable=0;labelPosition=right;points=[];portConstraint=eastwest;strokeColor=inherit;" vertex="1" parent="TBmFtJm7t9rp__sLydAt-122">
          <mxGeometry y="126.6" width="132" height="14" as="geometry" />
        </mxCell>
        <mxCell id="TBmFtJm7t9rp__sLydAt-127" value="&lt;&lt;Entity&gt;&gt;&#xa;Customer" style="swimlane;fontStyle=1;align=center;verticalAlign=top;childLayout=stackLayout;horizontal=1;startSize=40;horizontalStack=0;resizeParent=1;resizeParentMax=0;resizeLast=0;collapsible=0;marginBottom=0;" vertex="1" parent="1">
          <mxGeometry x="1275" y="487" width="172" height="291" as="geometry" />
        </mxCell>
        <mxCell id="TBmFtJm7t9rp__sLydAt-128" value="- customerID: int" style="text;strokeColor=none;fillColor=none;align=left;verticalAlign=top;spacingLeft=4;spacingRight=4;overflow=hidden;rotatable=0;points=[[0,0.5],[1,0.5]];portConstraint=eastwest;" vertex="1" parent="TBmFtJm7t9rp__sLydAt-127">
          <mxGeometry y="40" width="172" height="27" as="geometry" />
        </mxCell>
        <mxCell id="TBmFtJm7t9rp__sLydAt-129" value="- name: string" style="text;strokeColor=none;fillColor=none;align=left;verticalAlign=top;spacingLeft=4;spacingRight=4;overflow=hidden;rotatable=0;points=[[0,0.5],[1,0.5]];portConstraint=eastwest;" vertex="1" parent="TBmFtJm7t9rp__sLydAt-127">
          <mxGeometry y="67" width="172" height="27" as="geometry" />
        </mxCell>
        <mxCell id="TBmFtJm7t9rp__sLydAt-130" value="- email: string" style="text;strokeColor=none;fillColor=none;align=left;verticalAlign=top;spacingLeft=4;spacingRight=4;overflow=hidden;rotatable=0;points=[[0,0.5],[1,0.5]];portConstraint=eastwest;" vertex="1" parent="TBmFtJm7t9rp__sLydAt-127">
          <mxGeometry y="94" width="172" height="27" as="geometry" />
        </mxCell>
        <mxCell id="TBmFtJm7t9rp__sLydAt-131" value="- password: string" style="text;strokeColor=none;fillColor=none;align=left;verticalAlign=top;spacingLeft=4;spacingRight=4;overflow=hidden;rotatable=0;points=[[0,0.5],[1,0.5]];portConstraint=eastwest;" vertex="1" parent="TBmFtJm7t9rp__sLydAt-127">
          <mxGeometry y="121" width="172" height="27" as="geometry" />
        </mxCell>
        <mxCell id="TBmFtJm7t9rp__sLydAt-132" style="line;strokeWidth=1;fillColor=none;align=left;verticalAlign=middle;spacingTop=-1;spacingLeft=3;spacingRight=3;rotatable=0;labelPosition=right;points=[];portConstraint=eastwest;strokeColor=inherit;" vertex="1" parent="TBmFtJm7t9rp__sLydAt-127">
          <mxGeometry y="148" width="172" height="8" as="geometry" />
        </mxCell>
        <mxCell id="TBmFtJm7t9rp__sLydAt-133" value="+ browseShops()" style="text;strokeColor=none;fillColor=none;align=left;verticalAlign=top;spacingLeft=4;spacingRight=4;overflow=hidden;rotatable=0;points=[[0,0.5],[1,0.5]];portConstraint=eastwest;" vertex="1" parent="TBmFtJm7t9rp__sLydAt-127">
          <mxGeometry y="156" width="172" height="27" as="geometry" />
        </mxCell>
        <mxCell id="TBmFtJm7t9rp__sLydAt-134" value="+ viewProductDetails()" style="text;strokeColor=none;fillColor=none;align=left;verticalAlign=top;spacingLeft=4;spacingRight=4;overflow=hidden;rotatable=0;points=[[0,0.5],[1,0.5]];portConstraint=eastwest;" vertex="1" parent="TBmFtJm7t9rp__sLydAt-127">
          <mxGeometry y="183" width="172" height="27" as="geometry" />
        </mxCell>
        <mxCell id="TBmFtJm7t9rp__sLydAt-135" value="+ addToCart()" style="text;strokeColor=none;fillColor=none;align=left;verticalAlign=top;spacingLeft=4;spacingRight=4;overflow=hidden;rotatable=0;points=[[0,0.5],[1,0.5]];portConstraint=eastwest;" vertex="1" parent="TBmFtJm7t9rp__sLydAt-127">
          <mxGeometry y="210" width="172" height="27" as="geometry" />
        </mxCell>
        <mxCell id="TBmFtJm7t9rp__sLydAt-136" value="+ removeFromCart()" style="text;strokeColor=none;fillColor=none;align=left;verticalAlign=top;spacingLeft=4;spacingRight=4;overflow=hidden;rotatable=0;points=[[0,0.5],[1,0.5]];portConstraint=eastwest;" vertex="1" parent="TBmFtJm7t9rp__sLydAt-127">
          <mxGeometry y="237" width="172" height="27" as="geometry" />
        </mxCell>
        <mxCell id="TBmFtJm7t9rp__sLydAt-137" value="+ placeOrder()" style="text;strokeColor=none;fillColor=none;align=left;verticalAlign=top;spacingLeft=4;spacingRight=4;overflow=hidden;rotatable=0;points=[[0,0.5],[1,0.5]];portConstraint=eastwest;" vertex="1" parent="TBmFtJm7t9rp__sLydAt-127">
          <mxGeometry y="264" width="172" height="27" as="geometry" />
        </mxCell>
        <mxCell id="TBmFtJm7t9rp__sLydAt-138" value="&lt;&lt;Entity&gt;&gt;&#xa;ShopRating" style="swimlane;fontStyle=1;align=center;verticalAlign=top;childLayout=stackLayout;horizontal=1;startSize=42.2;horizontalStack=0;resizeParent=1;resizeParentMax=0;resizeLast=0;collapsible=0;marginBottom=0;" vertex="1" parent="1">
          <mxGeometry x="1320" y="879" width="144" height="218.2" as="geometry" />
        </mxCell>
        <mxCell id="TBmFtJm7t9rp__sLydAt-139" value="- ratingID: int" style="text;strokeColor=none;fillColor=none;align=left;verticalAlign=top;spacingLeft=4;spacingRight=4;overflow=hidden;rotatable=0;points=[[0,0.5],[1,0.5]];portConstraint=eastwest;" vertex="1" parent="TBmFtJm7t9rp__sLydAt-138">
          <mxGeometry y="42.2" width="144" height="28" as="geometry" />
        </mxCell>
        <mxCell id="TBmFtJm7t9rp__sLydAt-140" value="- shopID: int" style="text;strokeColor=none;fillColor=none;align=left;verticalAlign=top;spacingLeft=4;spacingRight=4;overflow=hidden;rotatable=0;points=[[0,0.5],[1,0.5]];portConstraint=eastwest;" vertex="1" parent="TBmFtJm7t9rp__sLydAt-138">
          <mxGeometry y="70.2" width="144" height="28" as="geometry" />
        </mxCell>
        <mxCell id="TBmFtJm7t9rp__sLydAt-141" value="- customerID: int" style="text;strokeColor=none;fillColor=none;align=left;verticalAlign=top;spacingLeft=4;spacingRight=4;overflow=hidden;rotatable=0;points=[[0,0.5],[1,0.5]];portConstraint=eastwest;" vertex="1" parent="TBmFtJm7t9rp__sLydAt-138">
          <mxGeometry y="98.2" width="144" height="28" as="geometry" />
        </mxCell>
        <mxCell id="TBmFtJm7t9rp__sLydAt-142" value="- rating: int" style="text;strokeColor=none;fillColor=none;align=left;verticalAlign=top;spacingLeft=4;spacingRight=4;overflow=hidden;rotatable=0;points=[[0,0.5],[1,0.5]];portConstraint=eastwest;" vertex="1" parent="TBmFtJm7t9rp__sLydAt-138">
          <mxGeometry y="126.2" width="144" height="28" as="geometry" />
        </mxCell>
        <mxCell id="TBmFtJm7t9rp__sLydAt-143" value="- comment: string" style="text;strokeColor=none;fillColor=none;align=left;verticalAlign=top;spacingLeft=4;spacingRight=4;overflow=hidden;rotatable=0;points=[[0,0.5],[1,0.5]];portConstraint=eastwest;" vertex="1" parent="TBmFtJm7t9rp__sLydAt-138">
          <mxGeometry y="154.2" width="144" height="28" as="geometry" />
        </mxCell>
        <mxCell id="TBmFtJm7t9rp__sLydAt-144" style="line;strokeWidth=1;fillColor=none;align=left;verticalAlign=middle;spacingTop=-1;spacingLeft=3;spacingRight=3;rotatable=0;labelPosition=right;points=[];portConstraint=eastwest;strokeColor=inherit;" vertex="1" parent="TBmFtJm7t9rp__sLydAt-138">
          <mxGeometry y="182.2" width="144" height="8" as="geometry" />
        </mxCell>
        <mxCell id="TBmFtJm7t9rp__sLydAt-145" value="+ submitRating()" style="text;strokeColor=none;fillColor=none;align=left;verticalAlign=top;spacingLeft=4;spacingRight=4;overflow=hidden;rotatable=0;points=[[0,0.5],[1,0.5]];portConstraint=eastwest;" vertex="1" parent="TBmFtJm7t9rp__sLydAt-138">
          <mxGeometry y="190.2" width="144" height="28" as="geometry" />
        </mxCell>
        <mxCell id="TBmFtJm7t9rp__sLydAt-146" value="&lt;&lt;Entity&gt;&gt;&#xa;PaymentGateway" style="swimlane;fontStyle=1;align=center;verticalAlign=top;childLayout=stackLayout;horizontal=1;startSize=43.38461538461539;horizontalStack=0;resizeParent=1;resizeParentMax=0;resizeLast=0;collapsible=0;marginBottom=0;" vertex="1" parent="1">
          <mxGeometry x="1074" y="890" width="196" height="196.3846153846154" as="geometry" />
        </mxCell>
        <mxCell id="TBmFtJm7t9rp__sLydAt-147" value="- paymentGatewayID: int" style="text;strokeColor=none;fillColor=none;align=left;verticalAlign=top;spacingLeft=4;spacingRight=4;overflow=hidden;rotatable=0;points=[[0,0.5],[1,0.5]];portConstraint=eastwest;" vertex="1" parent="TBmFtJm7t9rp__sLydAt-146">
          <mxGeometry y="43.38461538461539" width="196" height="29" as="geometry" />
        </mxCell>
        <mxCell id="TBmFtJm7t9rp__sLydAt-148" value="- name: string" style="text;strokeColor=none;fillColor=none;align=left;verticalAlign=top;spacingLeft=4;spacingRight=4;overflow=hidden;rotatable=0;points=[[0,0.5],[1,0.5]];portConstraint=eastwest;" vertex="1" parent="TBmFtJm7t9rp__sLydAt-146">
          <mxGeometry y="72.38461538461539" width="196" height="29" as="geometry" />
        </mxCell>
        <mxCell id="TBmFtJm7t9rp__sLydAt-149" value="- escrowService: boolean" style="text;strokeColor=none;fillColor=none;align=left;verticalAlign=top;spacingLeft=4;spacingRight=4;overflow=hidden;rotatable=0;points=[[0,0.5],[1,0.5]];portConstraint=eastwest;" vertex="1" parent="TBmFtJm7t9rp__sLydAt-146">
          <mxGeometry y="101.38461538461539" width="196" height="29" as="geometry" />
        </mxCell>
        <mxCell id="TBmFtJm7t9rp__sLydAt-150" style="line;strokeWidth=1;fillColor=none;align=left;verticalAlign=middle;spacingTop=-1;spacingLeft=3;spacingRight=3;rotatable=0;labelPosition=right;points=[];portConstraint=eastwest;strokeColor=inherit;" vertex="1" parent="TBmFtJm7t9rp__sLydAt-146">
          <mxGeometry y="130.3846153846154" width="196" height="8" as="geometry" />
        </mxCell>
        <mxCell id="TBmFtJm7t9rp__sLydAt-151" value="+ processPayment()" style="text;strokeColor=none;fillColor=none;align=left;verticalAlign=top;spacingLeft=4;spacingRight=4;overflow=hidden;rotatable=0;points=[[0,0.5],[1,0.5]];portConstraint=eastwest;" vertex="1" parent="TBmFtJm7t9rp__sLydAt-146">
          <mxGeometry y="138.3846153846154" width="196" height="29" as="geometry" />
        </mxCell>
        <mxCell id="TBmFtJm7t9rp__sLydAt-152" value="+ releaseEscrow()" style="text;strokeColor=none;fillColor=none;align=left;verticalAlign=top;spacingLeft=4;spacingRight=4;overflow=hidden;rotatable=0;points=[[0,0.5],[1,0.5]];portConstraint=eastwest;" vertex="1" parent="TBmFtJm7t9rp__sLydAt-146">
          <mxGeometry y="167.3846153846154" width="196" height="29" as="geometry" />
        </mxCell>
        <mxCell id="TBmFtJm7t9rp__sLydAt-153" value="&lt;&lt;Entity&gt;&gt;&#xa;Warehouse" style="swimlane;fontStyle=1;align=center;verticalAlign=top;childLayout=stackLayout;horizontal=1;startSize=45;horizontalStack=0;resizeParent=1;resizeParentMax=0;resizeLast=0;collapsible=0;marginBottom=0;" vertex="1" parent="1">
          <mxGeometry x="1009" y="1236" width="325" height="173" as="geometry" />
        </mxCell>
        <mxCell id="TBmFtJm7t9rp__sLydAt-154" value="- warehouseID: int" style="text;strokeColor=none;fillColor=none;align=left;verticalAlign=top;spacingLeft=4;spacingRight=4;overflow=hidden;rotatable=0;points=[[0,0.5],[1,0.5]];portConstraint=eastwest;" vertex="1" parent="TBmFtJm7t9rp__sLydAt-153">
          <mxGeometry y="45" width="325" height="30" as="geometry" />
        </mxCell>
        <mxCell id="TBmFtJm7t9rp__sLydAt-155" value="- name: string" style="text;strokeColor=none;fillColor=none;align=left;verticalAlign=top;spacingLeft=4;spacingRight=4;overflow=hidden;rotatable=0;points=[[0,0.5],[1,0.5]];portConstraint=eastwest;" vertex="1" parent="TBmFtJm7t9rp__sLydAt-153">
          <mxGeometry y="75" width="325" height="30" as="geometry" />
        </mxCell>
        <mxCell id="TBmFtJm7t9rp__sLydAt-156" style="line;strokeWidth=1;fillColor=none;align=left;verticalAlign=middle;spacingTop=-1;spacingLeft=3;spacingRight=3;rotatable=0;labelPosition=right;points=[];portConstraint=eastwest;strokeColor=inherit;" vertex="1" parent="TBmFtJm7t9rp__sLydAt-153">
          <mxGeometry y="105" width="325" height="8" as="geometry" />
        </mxCell>
        <mxCell id="TBmFtJm7t9rp__sLydAt-157" value="+ updateStock(productID: int, quantity: int)" style="text;strokeColor=none;fillColor=none;align=left;verticalAlign=top;spacingLeft=4;spacingRight=4;overflow=hidden;rotatable=0;points=[[0,0.5],[1,0.5]];portConstraint=eastwest;" vertex="1" parent="TBmFtJm7t9rp__sLydAt-153">
          <mxGeometry y="113" width="325" height="30" as="geometry" />
        </mxCell>
        <mxCell id="TBmFtJm7t9rp__sLydAt-158" value="+ getAvailableStock(productID: int): int" style="text;strokeColor=none;fillColor=none;align=left;verticalAlign=top;spacingLeft=4;spacingRight=4;overflow=hidden;rotatable=0;points=[[0,0.5],[1,0.5]];portConstraint=eastwest;" vertex="1" parent="TBmFtJm7t9rp__sLydAt-153">
          <mxGeometry y="143" width="325" height="30" as="geometry" />
        </mxCell>
        <mxCell id="TBmFtJm7t9rp__sLydAt-159" value="owns" style="curved=1;startArrow=none;endArrow=none;exitX=0.49852764423076923;exitY=1;entryX=0.5012235093390804;entryY=0;rounded=0;" edge="1" parent="1" source="TBmFtJm7t9rp__sLydAt-76" target="TBmFtJm7t9rp__sLydAt-87">
          <mxGeometry relative="1" as="geometry">
            <Array as="points" />
          </mxGeometry>
        </mxCell>
        <mxCell id="TBmFtJm7t9rp__sLydAt-160" value="1" style="edgeLabel;resizable=0;labelBackgroundColor=none;fontSize=12;align=right;verticalAlign=top;" vertex="1" parent="TBmFtJm7t9rp__sLydAt-159">
          <mxGeometry x="-1" relative="1" as="geometry" />
        </mxCell>
        <mxCell id="TBmFtJm7t9rp__sLydAt-161" value="1" style="edgeLabel;resizable=0;labelBackgroundColor=none;fontSize=12;align=left;verticalAlign=bottom;" vertex="1" parent="TBmFtJm7t9rp__sLydAt-159">
          <mxGeometry x="1" relative="1" as="geometry" />
        </mxCell>
        <mxCell id="TBmFtJm7t9rp__sLydAt-162" value="uses" style="curved=1;startArrow=none;endArrow=none;exitX=0.0014704561781609196;exitY=0.7930822620475441;entryX=0.49915406050955413;entryY=-0.002890173410404624;rounded=0;" edge="1" parent="1" source="TBmFtJm7t9rp__sLydAt-87" target="TBmFtJm7t9rp__sLydAt-96">
          <mxGeometry relative="1" as="geometry">
            <Array as="points">
              <mxPoint x="458" y="810" />
            </Array>
          </mxGeometry>
        </mxCell>
        <mxCell id="TBmFtJm7t9rp__sLydAt-163" value="1" style="edgeLabel;resizable=0;labelBackgroundColor=none;fontSize=12;align=right;verticalAlign=top;" vertex="1" parent="TBmFtJm7t9rp__sLydAt-162">
          <mxGeometry x="-1" relative="1" as="geometry" />
        </mxCell>
        <mxCell id="TBmFtJm7t9rp__sLydAt-164" value="1" style="edgeLabel;resizable=0;labelBackgroundColor=none;fontSize=12;align=left;verticalAlign=bottom;" vertex="1" parent="TBmFtJm7t9rp__sLydAt-162">
          <mxGeometry x="1" relative="1" as="geometry" />
        </mxCell>
        <mxCell id="TBmFtJm7t9rp__sLydAt-165" value="contains" style="curved=1;startArrow=none;endArrow=none;exitX=0.3069807978866833;exitY=1;entryX=0.0024756170382165604;entryY=0.1536797541198531;rounded=0;" edge="1" parent="1" source="TBmFtJm7t9rp__sLydAt-87" target="TBmFtJm7t9rp__sLydAt-102">
          <mxGeometry relative="1" as="geometry">
            <Array as="points">
              <mxPoint x="627" y="810" />
              <mxPoint x="627" y="1167" />
            </Array>
          </mxGeometry>
        </mxCell>
        <mxCell id="TBmFtJm7t9rp__sLydAt-166" value="1" style="edgeLabel;resizable=0;labelBackgroundColor=none;fontSize=12;align=right;verticalAlign=top;" vertex="1" parent="TBmFtJm7t9rp__sLydAt-165">
          <mxGeometry x="-1" relative="1" as="geometry" />
        </mxCell>
        <mxCell id="TBmFtJm7t9rp__sLydAt-167" value="0..n" style="edgeLabel;resizable=0;labelBackgroundColor=none;fontSize=12;align=left;verticalAlign=bottom;" vertex="1" parent="TBmFtJm7t9rp__sLydAt-165">
          <mxGeometry x="1" relative="1" as="geometry" />
        </mxCell>
        <mxCell id="TBmFtJm7t9rp__sLydAt-168" value="receives" style="curved=1;startArrow=none;endArrow=none;exitX=0.5012235093390804;exitY=1;entryX=0.0008180628272251309;entryY=0.23985775517741934;rounded=0;" edge="1" parent="1" source="TBmFtJm7t9rp__sLydAt-87" target="TBmFtJm7t9rp__sLydAt-111">
          <mxGeometry relative="1" as="geometry">
            <Array as="points">
              <mxPoint x="677" y="810" />
            </Array>
          </mxGeometry>
        </mxCell>
        <mxCell id="TBmFtJm7t9rp__sLydAt-169" value="1" style="edgeLabel;resizable=0;labelBackgroundColor=none;fontSize=12;align=left;verticalAlign=top;" vertex="1" parent="TBmFtJm7t9rp__sLydAt-168">
          <mxGeometry x="-1" relative="1" as="geometry" />
        </mxCell>
        <mxCell id="TBmFtJm7t9rp__sLydAt-170" value="0..n" style="edgeLabel;resizable=0;labelBackgroundColor=none;fontSize=12;align=right;verticalAlign=bottom;" vertex="1" parent="TBmFtJm7t9rp__sLydAt-168">
          <mxGeometry x="1" relative="1" as="geometry" />
        </mxCell>
        <mxCell id="TBmFtJm7t9rp__sLydAt-171" value="includes" style="curved=1;startArrow=none;endArrow=none;exitX=0.5004908376963351;exitY=1;entryX=1.0007837380573248;entryY=0.11804777670266496;rounded=0;" edge="1" parent="1" source="TBmFtJm7t9rp__sLydAt-111" target="TBmFtJm7t9rp__sLydAt-102">
          <mxGeometry relative="1" as="geometry">
            <Array as="points">
              <mxPoint x="905" y="1167" />
            </Array>
          </mxGeometry>
        </mxCell>
        <mxCell id="TBmFtJm7t9rp__sLydAt-172" value="n" style="edgeLabel;resizable=0;labelBackgroundColor=none;fontSize=12;align=right;verticalAlign=top;" vertex="1" parent="TBmFtJm7t9rp__sLydAt-171">
          <mxGeometry x="-1" relative="1" as="geometry" />
        </mxCell>
        <mxCell id="TBmFtJm7t9rp__sLydAt-173" value="n" style="edgeLabel;resizable=0;labelBackgroundColor=none;fontSize=12;align=left;verticalAlign=bottom;" vertex="1" parent="TBmFtJm7t9rp__sLydAt-171">
          <mxGeometry x="1" relative="1" as="geometry" />
        </mxCell>
        <mxCell id="TBmFtJm7t9rp__sLydAt-174" value="contains" style="curved=1;startArrow=none;endArrow=none;exitX=0.6954662207914776;exitY=1;entryX=1.0029444839015151;entryY=0.039495164325412585;rounded=0;" edge="1" parent="1" source="TBmFtJm7t9rp__sLydAt-87" target="TBmFtJm7t9rp__sLydAt-122">
          <mxGeometry relative="1" as="geometry">
            <Array as="points">
              <mxPoint x="727" y="810" />
              <mxPoint x="727" y="1167" />
            </Array>
          </mxGeometry>
        </mxCell>
        <mxCell id="TBmFtJm7t9rp__sLydAt-175" value="1" style="edgeLabel;resizable=0;labelBackgroundColor=none;fontSize=12;align=right;verticalAlign=top;" vertex="1" parent="TBmFtJm7t9rp__sLydAt-174">
          <mxGeometry x="-1" relative="1" as="geometry" />
        </mxCell>
        <mxCell id="TBmFtJm7t9rp__sLydAt-176" value="0..n" style="edgeLabel;resizable=0;labelBackgroundColor=none;fontSize=12;align=left;verticalAlign=bottom;" vertex="1" parent="TBmFtJm7t9rp__sLydAt-174">
          <mxGeometry x="1" relative="1" as="geometry" />
        </mxCell>
        <mxCell id="TBmFtJm7t9rp__sLydAt-177" value="places" style="curved=1;startArrow=none;endArrow=none;exitX=-0.0016124636627906977;exitY=0.6884115391244399;entryX=1.000163612565445;entryY=0.15798418972332032;rounded=0;" edge="1" parent="1" source="TBmFtJm7t9rp__sLydAt-127" target="TBmFtJm7t9rp__sLydAt-111">
          <mxGeometry relative="1" as="geometry">
            <Array as="points">
              <mxPoint x="1078" y="810" />
            </Array>
          </mxGeometry>
        </mxCell>
        <mxCell id="TBmFtJm7t9rp__sLydAt-178" value="0..n" style="edgeLabel;resizable=0;labelBackgroundColor=none;fontSize=12;align=right;verticalAlign=top;" vertex="1" parent="TBmFtJm7t9rp__sLydAt-177">
          <mxGeometry x="-1" relative="1" as="geometry" />
        </mxCell>
        <mxCell id="TBmFtJm7t9rp__sLydAt-179" value="0..n" style="edgeLabel;resizable=0;labelBackgroundColor=none;fontSize=12;align=left;verticalAlign=bottom;" vertex="1" parent="TBmFtJm7t9rp__sLydAt-177">
          <mxGeometry x="1" relative="1" as="geometry" />
        </mxCell>
        <mxCell id="TBmFtJm7t9rp__sLydAt-180" value="rates" style="curved=1;startArrow=none;endArrow=none;exitX=0.6425930110416257;exitY=1;entryX=0.4961073133680556;entryY=-0.00228310502283105;rounded=0;" edge="1" parent="1" source="TBmFtJm7t9rp__sLydAt-127" target="TBmFtJm7t9rp__sLydAt-138">
          <mxGeometry relative="1" as="geometry">
            <Array as="points">
              <mxPoint x="1391" y="810" />
            </Array>
          </mxGeometry>
        </mxCell>
        <mxCell id="TBmFtJm7t9rp__sLydAt-181" value="0..n" style="edgeLabel;resizable=0;labelBackgroundColor=none;fontSize=12;align=right;verticalAlign=top;" vertex="1" parent="TBmFtJm7t9rp__sLydAt-180">
          <mxGeometry x="-1" relative="1" as="geometry" />
        </mxCell>
        <mxCell id="TBmFtJm7t9rp__sLydAt-182" value="0..n" style="edgeLabel;resizable=0;labelBackgroundColor=none;fontSize=12;align=left;verticalAlign=bottom;" vertex="1" parent="TBmFtJm7t9rp__sLydAt-180">
          <mxGeometry x="1" relative="1" as="geometry" />
        </mxCell>
        <mxCell id="TBmFtJm7t9rp__sLydAt-183" value="uses" style="curved=1;startArrow=none;endArrow=none;exitX=1.0009765625;exitY=0.6875357594906389;entryX=0.07143853635204081;entryY=0;rounded=0;" edge="1" parent="1" source="TBmFtJm7t9rp__sLydAt-87" target="TBmFtJm7t9rp__sLydAt-146">
          <mxGeometry relative="1" as="geometry">
            <Array as="points">
              <mxPoint x="1019" y="810" />
            </Array>
          </mxGeometry>
        </mxCell>
        <mxCell id="TBmFtJm7t9rp__sLydAt-184" value="1" style="edgeLabel;resizable=0;labelBackgroundColor=none;fontSize=12;align=left;verticalAlign=top;" vertex="1" parent="TBmFtJm7t9rp__sLydAt-183">
          <mxGeometry x="-1" relative="1" as="geometry" />
        </mxCell>
        <mxCell id="TBmFtJm7t9rp__sLydAt-185" value="1" style="edgeLabel;resizable=0;labelBackgroundColor=none;fontSize=12;align=right;verticalAlign=bottom;" vertex="1" parent="TBmFtJm7t9rp__sLydAt-183">
          <mxGeometry x="1" relative="1" as="geometry" />
        </mxCell>
        <mxCell id="TBmFtJm7t9rp__sLydAt-186" value="manages" style="curved=1;startArrow=none;endArrow=none;exitX=0.4986148756377551;exitY=1;entryX=0.500703125;entryY=-0.002890173410404624;rounded=0;" edge="1" parent="1" source="TBmFtJm7t9rp__sLydAt-146" target="TBmFtJm7t9rp__sLydAt-153">
          <mxGeometry relative="1" as="geometry">
            <Array as="points" />
          </mxGeometry>
        </mxCell>
        <mxCell id="TBmFtJm7t9rp__sLydAt-187" value="1" style="edgeLabel;resizable=0;labelBackgroundColor=none;fontSize=12;align=right;verticalAlign=top;" vertex="1" parent="TBmFtJm7t9rp__sLydAt-186">
          <mxGeometry x="-1" relative="1" as="geometry" />
        </mxCell>
        <mxCell id="TBmFtJm7t9rp__sLydAt-188" value="1" style="edgeLabel;resizable=0;labelBackgroundColor=none;fontSize=12;align=left;verticalAlign=bottom;" vertex="1" parent="TBmFtJm7t9rp__sLydAt-186">
          <mxGeometry x="1" relative="1" as="geometry" />
        </mxCell>
        <mxCell id="TBmFtJm7t9rp__sLydAt-189" value="contains" style="curved=1;startArrow=none;endArrow=none;exitX=0.49915406050955413;exitY=0.9971098265895953;entryX=0.06406066353344533;entryY=0;rounded=0;" edge="1" parent="1" source="TBmFtJm7t9rp__sLydAt-96" target="TBmFtJm7t9rp__sLydAt-122">
          <mxGeometry relative="1" as="geometry">
            <Array as="points">
              <mxPoint x="458" y="1167" />
            </Array>
          </mxGeometry>
        </mxCell>
        <mxCell id="TBmFtJm7t9rp__sLydAt-190" value="1" style="edgeLabel;resizable=0;labelBackgroundColor=none;fontSize=12;align=right;verticalAlign=top;" vertex="1" parent="TBmFtJm7t9rp__sLydAt-189">
          <mxGeometry x="-1" relative="1" as="geometry" />
        </mxCell>
        <mxCell id="TBmFtJm7t9rp__sLydAt-191" value="0..n" style="edgeLabel;resizable=0;labelBackgroundColor=none;fontSize=12;align=left;verticalAlign=bottom;" vertex="1" parent="TBmFtJm7t9rp__sLydAt-189">
          <mxGeometry x="1" relative="1" as="geometry" />
        </mxCell>
      </root>
    </mxGraphModel>
  </diagram>
  <diagram id="u7zrvRBFPcF1j6IgeEiS" name="Page-3">
    <mxGraphModel dx="1970" dy="468" grid="1" gridSize="10" guides="1" tooltips="1" connect="1" arrows="1" fold="1" page="1" pageScale="1" pageWidth="850" pageHeight="1100" math="0" shadow="0">
      <root>
        <mxCell id="0" />
        <mxCell id="1" parent="0" />
        <mxCell id="Y4vdHR_8zsglFwBxzXkF-4" value="&quot;Dashboard Page&quot;" style="shape=umlLifeline;perimeter=lifelinePerimeter;whiteSpace=wrap;container=1;dropTarget=0;collapsible=0;recursiveResize=0;outlineConnect=0;portConstraint=eastwest;newEdgeStyle={&quot;edgeStyle&quot;:&quot;elbowEdgeStyle&quot;,&quot;elbow&quot;:&quot;vertical&quot;,&quot;curved&quot;:0,&quot;rounded&quot;:0};size=65;" vertex="1" parent="1">
          <mxGeometry x="220" y="20" width="150" height="398" as="geometry" />
        </mxCell>
        <mxCell id="Y4vdHR_8zsglFwBxzXkF-5" value="" style="points=[];perimeter=orthogonalPerimeter;outlineConnect=0;targetShapes=umlLifeline;portConstraint=eastwest;newEdgeStyle={&quot;edgeStyle&quot;:&quot;elbowEdgeStyle&quot;,&quot;elbow&quot;:&quot;vertical&quot;,&quot;curved&quot;:0,&quot;rounded&quot;:0}" vertex="1" parent="Y4vdHR_8zsglFwBxzXkF-4">
          <mxGeometry x="70" y="107" width="10" height="196" as="geometry" />
        </mxCell>
        <mxCell id="Y4vdHR_8zsglFwBxzXkF-6" value="Server" style="shape=umlLifeline;perimeter=lifelinePerimeter;whiteSpace=wrap;container=1;dropTarget=0;collapsible=0;recursiveResize=0;outlineConnect=0;portConstraint=eastwest;newEdgeStyle={&quot;edgeStyle&quot;:&quot;elbowEdgeStyle&quot;,&quot;elbow&quot;:&quot;vertical&quot;,&quot;curved&quot;:0,&quot;rounded&quot;:0};size=65;" vertex="1" parent="1">
          <mxGeometry x="448" y="20" width="150" height="398" as="geometry" />
        </mxCell>
        <mxCell id="Y4vdHR_8zsglFwBxzXkF-7" value="" style="points=[];perimeter=orthogonalPerimeter;outlineConnect=0;targetShapes=umlLifeline;portConstraint=eastwest;newEdgeStyle={&quot;edgeStyle&quot;:&quot;elbowEdgeStyle&quot;,&quot;elbow&quot;:&quot;vertical&quot;,&quot;curved&quot;:0,&quot;rounded&quot;:0}" vertex="1" parent="Y4vdHR_8zsglFwBxzXkF-6">
          <mxGeometry x="70" y="159" width="10" height="134" as="geometry" />
        </mxCell>
        <mxCell id="Y4vdHR_8zsglFwBxzXkF-8" value="Clicks Logout" style="verticalAlign=bottom;endArrow=block;edgeStyle=elbowEdgeStyle;elbow=vertical;curved=0;rounded=0;" edge="1" parent="1" target="Y4vdHR_8zsglFwBxzXkF-5">
          <mxGeometry relative="1" as="geometry">
            <Array as="points">
              <mxPoint x="205" y="127" />
            </Array>
            <mxPoint x="94.5" y="127" as="sourcePoint" />
          </mxGeometry>
        </mxCell>
        <mxCell id="Y4vdHR_8zsglFwBxzXkF-9" value="Sends Logout Request" style="verticalAlign=bottom;endArrow=block;edgeStyle=elbowEdgeStyle;elbow=vertical;curved=0;rounded=0;" edge="1" parent="1" source="Y4vdHR_8zsglFwBxzXkF-5" target="Y4vdHR_8zsglFwBxzXkF-7">
          <mxGeometry relative="1" as="geometry">
            <Array as="points">
              <mxPoint x="422" y="179" />
            </Array>
          </mxGeometry>
        </mxCell>
        <mxCell id="Y4vdHR_8zsglFwBxzXkF-10" value="Processes Logout Request" style="curved=1;rounded=0;" edge="1" parent="1" source="Y4vdHR_8zsglFwBxzXkF-7" target="Y4vdHR_8zsglFwBxzXkF-7">
          <mxGeometry relative="1" as="geometry">
            <Array as="points">
              <mxPoint x="578" y="231" />
              <mxPoint x="578" y="261" />
            </Array>
          </mxGeometry>
        </mxCell>
        <mxCell id="Y4vdHR_8zsglFwBxzXkF-11" value="Sends Logout Confirmation" style="verticalAlign=bottom;endArrow=block;edgeStyle=elbowEdgeStyle;elbow=vertical;curved=0;rounded=0;dashed=1;dashPattern=2 3;" edge="1" parent="1" source="Y4vdHR_8zsglFwBxzXkF-7">
          <mxGeometry relative="1" as="geometry">
            <Array as="points">
              <mxPoint x="317" y="313" />
            </Array>
            <mxPoint x="94.5" y="313" as="targetPoint" />
          </mxGeometry>
        </mxCell>
        <mxCell id="Y4vdHR_8zsglFwBxzXkF-12" value="" style="html=1;points=[[0,0,0,0,5],[0,1,0,0,-5],[1,0,0,0,5],[1,1,0,0,-5]];perimeter=orthogonalPerimeter;outlineConnect=0;targetShapes=umlLifeline;portConstraint=eastwest;newEdgeStyle={&quot;curved&quot;:0,&quot;rounded&quot;:0};" vertex="1" parent="1">
          <mxGeometry x="360" y="220" width="10" height="80" as="geometry" />
        </mxCell>
        <mxCell id="Y4vdHR_8zsglFwBxzXkF-15" value="" style="shape=umlDestroy;whiteSpace=wrap;html=1;strokeWidth=3;targetShapes=umlLifeline;" vertex="1" parent="1">
          <mxGeometry x="280" y="418" width="30" height="30" as="geometry" />
        </mxCell>
        <mxCell id="Y4vdHR_8zsglFwBxzXkF-16" value="" style="shape=umlDestroy;whiteSpace=wrap;html=1;strokeWidth=3;targetShapes=umlLifeline;" vertex="1" parent="1">
          <mxGeometry x="508" y="410" width="30" height="30" as="geometry" />
        </mxCell>
        <mxCell id="lLV_AeUODLY1dmr28m61-3" value="" style="shape=umlLifeline;perimeter=lifelinePerimeter;whiteSpace=wrap;html=1;container=1;dropTarget=0;collapsible=0;recursiveResize=0;outlineConnect=0;portConstraint=eastwest;newEdgeStyle={&quot;curved&quot;:0,&quot;rounded&quot;:0};participant=umlActor;size=30;" vertex="1" parent="1">
          <mxGeometry x="50" y="30" width="30" height="370" as="geometry" />
        </mxCell>
        <mxCell id="lLV_AeUODLY1dmr28m61-5" value="" style="html=1;points=[[0,0,0,0,5],[0,1,0,0,-5],[1,0,0,0,5],[1,1,0,0,-5]];perimeter=orthogonalPerimeter;outlineConnect=0;targetShapes=umlLifeline;portConstraint=eastwest;newEdgeStyle={&quot;curved&quot;:0,&quot;rounded&quot;:0};" vertex="1" parent="lLV_AeUODLY1dmr28m61-3">
          <mxGeometry x="10" y="48" width="10" height="282" as="geometry" />
        </mxCell>
        <mxCell id="lLV_AeUODLY1dmr28m61-4" value="Customer" style="text;html=1;align=center;verticalAlign=middle;resizable=0;points=[];autosize=1;strokeColor=none;fillColor=none;" vertex="1" parent="1">
          <mxGeometry x="-30" y="48" width="80" height="30" as="geometry" />
        </mxCell>
        <mxCell id="lLV_AeUODLY1dmr28m61-6" value="" style="shape=umlDestroy;whiteSpace=wrap;html=1;strokeWidth=3;targetShapes=umlLifeline;" vertex="1" parent="1">
          <mxGeometry x="50" y="400" width="30" height="30" as="geometry" />
        </mxCell>
      </root>
    </mxGraphModel>
  </diagram>
  <diagram id="I_kepkr7ZBgnSxmiKJU6" name="Page-4">
    <mxGraphModel dx="2151" dy="468" grid="1" gridSize="10" guides="1" tooltips="1" connect="1" arrows="1" fold="1" page="1" pageScale="1" pageWidth="850" pageHeight="1100" math="0" shadow="0">
      <root>
        <mxCell id="0" />
        <mxCell id="1" parent="0" />
        <mxCell id="3Lkz-wvbiPIDNOvhy8uf-2" value="Login Page" style="shape=umlLifeline;perimeter=lifelinePerimeter;whiteSpace=wrap;container=1;dropTarget=0;collapsible=0;recursiveResize=0;outlineConnect=0;portConstraint=eastwest;newEdgeStyle={&quot;edgeStyle&quot;:&quot;elbowEdgeStyle&quot;,&quot;elbow&quot;:&quot;vertical&quot;,&quot;curved&quot;:0,&quot;rounded&quot;:0};size=65;" vertex="1" parent="1">
          <mxGeometry x="289" y="20" width="150" height="854" as="geometry" />
        </mxCell>
        <mxCell id="3Lkz-wvbiPIDNOvhy8uf-3" value="" style="points=[];perimeter=orthogonalPerimeter;outlineConnect=0;targetShapes=umlLifeline;portConstraint=eastwest;newEdgeStyle={&quot;edgeStyle&quot;:&quot;elbowEdgeStyle&quot;,&quot;elbow&quot;:&quot;vertical&quot;,&quot;curved&quot;:0,&quot;rounded&quot;:0}" vertex="1" parent="3Lkz-wvbiPIDNOvhy8uf-2">
          <mxGeometry x="70" y="107" width="10" height="652" as="geometry" />
        </mxCell>
        <mxCell id="3Lkz-wvbiPIDNOvhy8uf-4" value="Server" style="shape=umlLifeline;perimeter=lifelinePerimeter;whiteSpace=wrap;container=1;dropTarget=0;collapsible=0;recursiveResize=0;outlineConnect=0;portConstraint=eastwest;newEdgeStyle={&quot;edgeStyle&quot;:&quot;elbowEdgeStyle&quot;,&quot;elbow&quot;:&quot;vertical&quot;,&quot;curved&quot;:0,&quot;rounded&quot;:0};size=65;" vertex="1" parent="1">
          <mxGeometry x="554" y="20" width="150" height="870" as="geometry" />
        </mxCell>
        <mxCell id="3Lkz-wvbiPIDNOvhy8uf-5" value="" style="points=[];perimeter=orthogonalPerimeter;outlineConnect=0;targetShapes=umlLifeline;portConstraint=eastwest;newEdgeStyle={&quot;edgeStyle&quot;:&quot;elbowEdgeStyle&quot;,&quot;elbow&quot;:&quot;vertical&quot;,&quot;curved&quot;:0,&quot;rounded&quot;:0}" vertex="1" parent="3Lkz-wvbiPIDNOvhy8uf-4">
          <mxGeometry x="70" y="159" width="10" height="590" as="geometry" />
        </mxCell>
        <mxCell id="La9aLCfOagOJ78mYpclB-13" value="" style="shape=umlDestroy;whiteSpace=wrap;html=1;strokeWidth=3;targetShapes=umlLifeline;" vertex="1" parent="3Lkz-wvbiPIDNOvhy8uf-4">
          <mxGeometry x="60" y="840" width="30" height="30" as="geometry" />
        </mxCell>
        <mxCell id="3Lkz-wvbiPIDNOvhy8uf-6" value="Database" style="shape=umlLifeline;perimeter=lifelinePerimeter;whiteSpace=wrap;container=1;dropTarget=0;collapsible=0;recursiveResize=0;outlineConnect=0;portConstraint=eastwest;newEdgeStyle={&quot;edgeStyle&quot;:&quot;elbowEdgeStyle&quot;,&quot;elbow&quot;:&quot;vertical&quot;,&quot;curved&quot;:0,&quot;rounded&quot;:0};size=65;" vertex="1" parent="1">
          <mxGeometry x="796" y="20" width="150" height="854" as="geometry" />
        </mxCell>
        <mxCell id="3Lkz-wvbiPIDNOvhy8uf-7" value="" style="points=[];perimeter=orthogonalPerimeter;outlineConnect=0;targetShapes=umlLifeline;portConstraint=eastwest;newEdgeStyle={&quot;edgeStyle&quot;:&quot;elbowEdgeStyle&quot;,&quot;elbow&quot;:&quot;vertical&quot;,&quot;curved&quot;:0,&quot;rounded&quot;:0}" vertex="1" parent="3Lkz-wvbiPIDNOvhy8uf-6">
          <mxGeometry x="70" y="211" width="10" height="518" as="geometry" />
        </mxCell>
        <mxCell id="3Lkz-wvbiPIDNOvhy8uf-8" value="alt" style="shape=umlFrame;dashed=1;pointerEvents=0;dropTarget=0;strokeColor=#B3B3B3;height=20;width=30" vertex="1" parent="1">
          <mxGeometry x="85" y="251" width="902" height="528" as="geometry" />
        </mxCell>
        <mxCell id="3Lkz-wvbiPIDNOvhy8uf-9" value="[Credentials Valid and&#xa;Customer Exists]" style="text;strokeColor=none;fillColor=none;align=center;verticalAlign=middle;whiteSpace=wrap;" vertex="1" parent="3Lkz-wvbiPIDNOvhy8uf-8">
          <mxGeometry x="-355" y="19" width="872" height="20" as="geometry" />
        </mxCell>
        <mxCell id="3Lkz-wvbiPIDNOvhy8uf-10" value="[Credentials Invalid or&#xa;Customer Does Not Exist]" style="shape=line;dashed=1;whiteSpace=wrap;verticalAlign=top;labelPosition=center;verticalLabelPosition=middle;align=center;strokeColor=#B3B3B3;" vertex="1" parent="3Lkz-wvbiPIDNOvhy8uf-8">
          <mxGeometry y="310" width="902" height="23" as="geometry" />
        </mxCell>
        <mxCell id="3Lkz-wvbiPIDNOvhy8uf-11" value="Enters Credentials" style="verticalAlign=bottom;endArrow=block;edgeStyle=elbowEdgeStyle;elbow=vertical;curved=0;rounded=0;" edge="1" parent="1" target="3Lkz-wvbiPIDNOvhy8uf-3">
          <mxGeometry relative="1" as="geometry">
            <Array as="points">
              <mxPoint x="240" y="127" />
            </Array>
            <mxPoint x="94.5" y="127" as="sourcePoint" />
          </mxGeometry>
        </mxCell>
        <mxCell id="3Lkz-wvbiPIDNOvhy8uf-12" value="Sends Credentials" style="verticalAlign=bottom;endArrow=block;edgeStyle=elbowEdgeStyle;elbow=vertical;curved=0;rounded=0;" edge="1" parent="1" source="3Lkz-wvbiPIDNOvhy8uf-3" target="3Lkz-wvbiPIDNOvhy8uf-5">
          <mxGeometry relative="1" as="geometry">
            <Array as="points">
              <mxPoint x="509" y="179" />
            </Array>
          </mxGeometry>
        </mxCell>
        <mxCell id="3Lkz-wvbiPIDNOvhy8uf-13" value="Forwards Credentials" style="verticalAlign=bottom;endArrow=block;edgeStyle=elbowEdgeStyle;elbow=vertical;curved=0;rounded=0;" edge="1" parent="1" source="3Lkz-wvbiPIDNOvhy8uf-5" target="3Lkz-wvbiPIDNOvhy8uf-7">
          <mxGeometry relative="1" as="geometry">
            <Array as="points">
              <mxPoint x="763" y="231" />
            </Array>
          </mxGeometry>
        </mxCell>
        <mxCell id="3Lkz-wvbiPIDNOvhy8uf-15" value="Sends Success Response" style="verticalAlign=bottom;endArrow=block;edgeStyle=elbowEdgeStyle;elbow=vertical;curved=0;rounded=0;dashed=1;dashPattern=2 3;" edge="1" parent="1" source="3Lkz-wvbiPIDNOvhy8uf-7" target="3Lkz-wvbiPIDNOvhy8uf-5">
          <mxGeometry relative="1" as="geometry">
            <Array as="points">
              <mxPoint x="760" y="432" />
            </Array>
          </mxGeometry>
        </mxCell>
        <mxCell id="3Lkz-wvbiPIDNOvhy8uf-16" value="Forwards Success Response" style="verticalAlign=bottom;endArrow=block;edgeStyle=elbowEdgeStyle;elbow=vertical;curved=0;rounded=0;dashed=1;dashPattern=2 3;" edge="1" parent="1" source="3Lkz-wvbiPIDNOvhy8uf-5" target="3Lkz-wvbiPIDNOvhy8uf-3">
          <mxGeometry relative="1" as="geometry">
            <Array as="points">
              <mxPoint x="507" y="484" />
            </Array>
          </mxGeometry>
        </mxCell>
        <mxCell id="3Lkz-wvbiPIDNOvhy8uf-17" value="Allows Access to Dashboard" style="verticalAlign=bottom;endArrow=block;edgeStyle=elbowEdgeStyle;elbow=vertical;curved=0;rounded=0;dashed=1;dashPattern=2 3;" edge="1" parent="1" source="3Lkz-wvbiPIDNOvhy8uf-3">
          <mxGeometry relative="1" as="geometry">
            <Array as="points">
              <mxPoint x="237" y="536" />
            </Array>
            <mxPoint x="94.5" y="536" as="targetPoint" />
          </mxGeometry>
        </mxCell>
        <mxCell id="3Lkz-wvbiPIDNOvhy8uf-18" value="Sends Failure Response" style="verticalAlign=bottom;endArrow=block;edgeStyle=elbowEdgeStyle;elbow=vertical;curved=0;rounded=0;dashed=1;dashPattern=2 3;" edge="1" parent="1" source="3Lkz-wvbiPIDNOvhy8uf-7" target="3Lkz-wvbiPIDNOvhy8uf-5">
          <mxGeometry relative="1" as="geometry">
            <Array as="points">
              <mxPoint x="760" y="655" />
            </Array>
          </mxGeometry>
        </mxCell>
        <mxCell id="3Lkz-wvbiPIDNOvhy8uf-19" value="Forwards Failure Response" style="verticalAlign=bottom;endArrow=block;edgeStyle=elbowEdgeStyle;elbow=vertical;curved=0;rounded=0;dashed=1;dashPattern=2 3;" edge="1" parent="1" source="3Lkz-wvbiPIDNOvhy8uf-5" target="3Lkz-wvbiPIDNOvhy8uf-3">
          <mxGeometry relative="1" as="geometry">
            <Array as="points">
              <mxPoint x="507" y="707" />
            </Array>
          </mxGeometry>
        </mxCell>
        <mxCell id="3Lkz-wvbiPIDNOvhy8uf-20" value="Displays Error Message" style="verticalAlign=bottom;endArrow=block;edgeStyle=elbowEdgeStyle;elbow=vertical;curved=0;rounded=0;dashed=1;dashPattern=2 3;" edge="1" parent="1" source="3Lkz-wvbiPIDNOvhy8uf-3">
          <mxGeometry relative="1" as="geometry">
            <Array as="points">
              <mxPoint x="237" y="759" />
            </Array>
            <mxPoint x="94.5" y="759" as="targetPoint" />
          </mxGeometry>
        </mxCell>
        <mxCell id="La9aLCfOagOJ78mYpclB-1" value="Actor" style="shape=umlActor;verticalLabelPosition=bottom;verticalAlign=top;html=1;" vertex="1" parent="1">
          <mxGeometry x="75" width="30" height="60" as="geometry" />
        </mxCell>
        <mxCell id="La9aLCfOagOJ78mYpclB-8" value="" style="html=1;points=[[0,0,0,0,5],[0,1,0,0,-5],[1,0,0,0,5],[1,1,0,0,-5]];perimeter=orthogonalPerimeter;outlineConnect=0;targetShapes=umlLifeline;portConstraint=eastwest;newEdgeStyle={&quot;curved&quot;:0,&quot;rounded&quot;:0};" vertex="1" parent="1">
          <mxGeometry x="85" y="99" width="10" height="680" as="geometry" />
        </mxCell>
        <mxCell id="La9aLCfOagOJ78mYpclB-10" value="" style="endArrow=none;dashed=1;html=1;dashPattern=1 3;strokeWidth=2;rounded=0;" edge="1" parent="1">
          <mxGeometry width="50" height="50" relative="1" as="geometry">
            <mxPoint x="90" y="870" as="sourcePoint" />
            <mxPoint x="90" y="780" as="targetPoint" />
          </mxGeometry>
        </mxCell>
        <mxCell id="La9aLCfOagOJ78mYpclB-11" value="" style="shape=umlDestroy;whiteSpace=wrap;html=1;strokeWidth=3;targetShapes=umlLifeline;" vertex="1" parent="1">
          <mxGeometry x="75" y="890" width="30" height="30" as="geometry" />
        </mxCell>
        <mxCell id="La9aLCfOagOJ78mYpclB-12" value="" style="shape=umlDestroy;whiteSpace=wrap;html=1;strokeWidth=3;targetShapes=umlLifeline;" vertex="1" parent="1">
          <mxGeometry x="349" y="874" width="30" height="30" as="geometry" />
        </mxCell>
        <mxCell id="La9aLCfOagOJ78mYpclB-14" value="" style="shape=umlDestroy;whiteSpace=wrap;html=1;strokeWidth=3;targetShapes=umlLifeline;" vertex="1" parent="1">
          <mxGeometry x="860" y="874" width="30" height="30" as="geometry" />
        </mxCell>
        <mxCell id="La9aLCfOagOJ78mYpclB-17" value="" style="html=1;points=[[0,0,0,0,5],[0,1,0,0,-5],[1,0,0,0,5],[1,1,0,0,-5]];perimeter=orthogonalPerimeter;outlineConnect=0;targetShapes=umlLifeline;portConstraint=eastwest;newEdgeStyle={&quot;curved&quot;:0,&quot;rounded&quot;:0};" vertex="1" parent="1">
          <mxGeometry x="871" y="380" width="10" height="40" as="geometry" />
        </mxCell>
        <mxCell id="La9aLCfOagOJ78mYpclB-18" value="&lt;span style=&quot;text-align: center;&quot;&gt;Check existence of customer&lt;/span&gt;" style="html=1;align=left;spacingLeft=2;endArrow=block;rounded=0;edgeStyle=orthogonalEdgeStyle;curved=0;rounded=0;" edge="1" target="La9aLCfOagOJ78mYpclB-17" parent="1">
          <mxGeometry relative="1" as="geometry">
            <mxPoint x="876" y="360" as="sourcePoint" />
            <Array as="points">
              <mxPoint x="906" y="390" />
            </Array>
          </mxGeometry>
        </mxCell>
        <mxCell id="La9aLCfOagOJ78mYpclB-24" value="" style="endArrow=none;dashed=1;html=1;dashPattern=1 3;strokeWidth=2;rounded=0;entryX=0.5;entryY=0.783;entryDx=0;entryDy=0;entryPerimeter=0;" edge="1" parent="1" target="La9aLCfOagOJ78mYpclB-1">
          <mxGeometry width="50" height="50" relative="1" as="geometry">
            <mxPoint x="90" y="90" as="sourcePoint" />
            <mxPoint x="90" y="60" as="targetPoint" />
          </mxGeometry>
        </mxCell>
        <mxCell id="La9aLCfOagOJ78mYpclB-25" value="Text" style="edgeLabel;html=1;align=center;verticalAlign=middle;resizable=0;points=[];" vertex="1" connectable="0" parent="La9aLCfOagOJ78mYpclB-24">
          <mxGeometry x="-0.3026" y="-3" relative="1" as="geometry">
            <mxPoint as="offset" />
          </mxGeometry>
        </mxCell>
        <mxCell id="La9aLCfOagOJ78mYpclB-26" value="Customer" style="edgeLabel;html=1;align=center;verticalAlign=middle;resizable=0;points=[];" vertex="1" connectable="0" parent="La9aLCfOagOJ78mYpclB-24">
          <mxGeometry x="-0.3026" y="-3" relative="1" as="geometry">
            <mxPoint as="offset" />
          </mxGeometry>
        </mxCell>
      </root>
    </mxGraphModel>
  </diagram>
  <diagram id="kVdt7gSMW-QqAzpAfu27" name="Page-5">
    <mxGraphModel grid="1" page="1" gridSize="10" guides="1" tooltips="1" connect="1" arrows="1" fold="1" pageScale="1" pageWidth="850" pageHeight="1100" math="0" shadow="0">
      <root>
        <mxCell id="0" />
        <mxCell id="1" parent="0" />
        <mxCell id="ItLx-G26tDlaDgkaqYeo-32" value="Suke Bederete" style="shape=umlLifeline;perimeter=lifelinePerimeter;whiteSpace=wrap;container=1;dropTarget=0;collapsible=0;recursiveResize=0;outlineConnect=0;portConstraint=eastwest;newEdgeStyle={&quot;edgeStyle&quot;:&quot;elbowEdgeStyle&quot;,&quot;elbow&quot;:&quot;vertical&quot;,&quot;curved&quot;:0,&quot;rounded&quot;:0};size=65;" vertex="1" parent="1">
          <mxGeometry x="394" y="160" width="150" height="1548" as="geometry" />
        </mxCell>
        <mxCell id="ItLx-G26tDlaDgkaqYeo-33" value="" style="points=[];perimeter=orthogonalPerimeter;outlineConnect=0;targetShapes=umlLifeline;portConstraint=eastwest;newEdgeStyle={&quot;edgeStyle&quot;:&quot;elbowEdgeStyle&quot;,&quot;elbow&quot;:&quot;vertical&quot;,&quot;curved&quot;:0,&quot;rounded&quot;:0}" vertex="1" parent="ItLx-G26tDlaDgkaqYeo-32">
          <mxGeometry x="70" y="107" width="10" height="1346" as="geometry" />
        </mxCell>
        <mxCell id="ItLx-G26tDlaDgkaqYeo-34" value="Payment Gateway" style="shape=umlLifeline;perimeter=lifelinePerimeter;whiteSpace=wrap;container=1;dropTarget=0;collapsible=0;recursiveResize=0;outlineConnect=0;portConstraint=eastwest;newEdgeStyle={&quot;edgeStyle&quot;:&quot;elbowEdgeStyle&quot;,&quot;elbow&quot;:&quot;vertical&quot;,&quot;curved&quot;:0,&quot;rounded&quot;:0};size=65;" vertex="1" parent="1">
          <mxGeometry x="798" y="160" width="158" height="1548" as="geometry" />
        </mxCell>
        <mxCell id="ItLx-G26tDlaDgkaqYeo-35" value="" style="points=[];perimeter=orthogonalPerimeter;outlineConnect=0;targetShapes=umlLifeline;portConstraint=eastwest;newEdgeStyle={&quot;edgeStyle&quot;:&quot;elbowEdgeStyle&quot;,&quot;elbow&quot;:&quot;vertical&quot;,&quot;curved&quot;:0,&quot;rounded&quot;:0}" vertex="1" parent="ItLx-G26tDlaDgkaqYeo-34">
          <mxGeometry x="74" y="375" width="10" height="104" as="geometry" />
        </mxCell>
        <mxCell id="ItLx-G26tDlaDgkaqYeo-78" value="" style="html=1;points=[[0,0,0,0,5],[0,1,0,0,-5],[1,0,0,0,5],[1,1,0,0,-5]];perimeter=orthogonalPerimeter;outlineConnect=0;targetShapes=umlLifeline;portConstraint=eastwest;newEdgeStyle={&quot;curved&quot;:0,&quot;rounded&quot;:0};" vertex="1" parent="ItLx-G26tDlaDgkaqYeo-34">
          <mxGeometry x="74" y="660" width="10" height="110" as="geometry" />
        </mxCell>
        <mxCell id="ItLx-G26tDlaDgkaqYeo-36" value="Wallet" style="shape=umlLifeline;perimeter=lifelinePerimeter;whiteSpace=wrap;container=1;dropTarget=0;collapsible=0;recursiveResize=0;outlineConnect=0;portConstraint=eastwest;newEdgeStyle={&quot;edgeStyle&quot;:&quot;elbowEdgeStyle&quot;,&quot;elbow&quot;:&quot;vertical&quot;,&quot;curved&quot;:0,&quot;rounded&quot;:0};size=65;" vertex="1" parent="1">
          <mxGeometry x="1076" y="160" width="150" height="1578" as="geometry" />
        </mxCell>
        <mxCell id="ItLx-G26tDlaDgkaqYeo-80" value="" style="html=1;points=[[0,0,0,0,5],[0,1,0,0,-5],[1,0,0,0,5],[1,1,0,0,-5]];perimeter=orthogonalPerimeter;outlineConnect=0;targetShapes=umlLifeline;portConstraint=eastwest;newEdgeStyle={&quot;curved&quot;:0,&quot;rounded&quot;:0};" vertex="1" parent="ItLx-G26tDlaDgkaqYeo-36">
          <mxGeometry x="70" y="540" width="10" height="40" as="geometry" />
        </mxCell>
        <mxCell id="ItLx-G26tDlaDgkaqYeo-81" value="&lt;span style=&quot;text-align: center;&quot;&gt;Displays available wallets&lt;/span&gt;" style="html=1;align=left;spacingLeft=2;endArrow=block;rounded=0;edgeStyle=orthogonalEdgeStyle;curved=0;rounded=0;" edge="1" target="ItLx-G26tDlaDgkaqYeo-80" parent="ItLx-G26tDlaDgkaqYeo-36">
          <mxGeometry x="0.0118" relative="1" as="geometry">
            <mxPoint x="80" y="540" as="sourcePoint" />
            <Array as="points">
              <mxPoint x="110" y="570" />
            </Array>
            <mxPoint as="offset" />
          </mxGeometry>
        </mxCell>
        <mxCell id="ItLx-G26tDlaDgkaqYeo-82" value="" style="html=1;points=[[0,0,0,0,5],[0,1,0,0,-5],[1,0,0,0,5],[1,1,0,0,-5]];perimeter=orthogonalPerimeter;outlineConnect=0;targetShapes=umlLifeline;portConstraint=eastwest;newEdgeStyle={&quot;curved&quot;:0,&quot;rounded&quot;:0};" vertex="1" parent="ItLx-G26tDlaDgkaqYeo-36">
          <mxGeometry x="70" y="610" width="10" height="260" as="geometry" />
        </mxCell>
        <mxCell id="ItLx-G26tDlaDgkaqYeo-37" value="PaymentGatewayCheckOut" style="shape=umlLifeline;perimeter=lifelinePerimeter;whiteSpace=wrap;container=1;dropTarget=0;collapsible=0;recursiveResize=0;outlineConnect=0;portConstraint=eastwest;newEdgeStyle={&quot;edgeStyle&quot;:&quot;elbowEdgeStyle&quot;,&quot;elbow&quot;:&quot;vertical&quot;,&quot;curved&quot;:0,&quot;rounded&quot;:0};size=65;" vertex="1" parent="1">
          <mxGeometry x="1448" y="160" width="197" height="1578" as="geometry" />
        </mxCell>
        <mxCell id="ItLx-G26tDlaDgkaqYeo-38" value="" style="points=[];perimeter=orthogonalPerimeter;outlineConnect=0;targetShapes=umlLifeline;portConstraint=eastwest;newEdgeStyle={&quot;edgeStyle&quot;:&quot;elbowEdgeStyle&quot;,&quot;elbow&quot;:&quot;vertical&quot;,&quot;curved&quot;:0,&quot;rounded&quot;:0}" vertex="1" parent="ItLx-G26tDlaDgkaqYeo-37">
          <mxGeometry x="93" y="427" width="10" height="42" as="geometry" />
        </mxCell>
        <mxCell id="ItLx-G26tDlaDgkaqYeo-39" value="" style="points=[];perimeter=orthogonalPerimeter;outlineConnect=0;targetShapes=umlLifeline;portConstraint=eastwest;newEdgeStyle={&quot;edgeStyle&quot;:&quot;elbowEdgeStyle&quot;,&quot;elbow&quot;:&quot;vertical&quot;,&quot;curved&quot;:0,&quot;rounded&quot;:0}" vertex="1" parent="ItLx-G26tDlaDgkaqYeo-37">
          <mxGeometry x="93" y="867" width="10" height="42" as="geometry" />
        </mxCell>
        <mxCell id="ItLx-G26tDlaDgkaqYeo-40" value="" style="points=[];perimeter=orthogonalPerimeter;outlineConnect=0;targetShapes=umlLifeline;portConstraint=eastwest;newEdgeStyle={&quot;edgeStyle&quot;:&quot;elbowEdgeStyle&quot;,&quot;elbow&quot;:&quot;vertical&quot;,&quot;curved&quot;:0,&quot;rounded&quot;:0}" vertex="1" parent="ItLx-G26tDlaDgkaqYeo-37">
          <mxGeometry x="93" y="1173" width="10" height="42" as="geometry" />
        </mxCell>
        <mxCell id="ItLx-G26tDlaDgkaqYeo-41" value="Merchant" style="shape=umlLifeline;perimeter=lifelinePerimeter;whiteSpace=wrap;container=1;dropTarget=0;collapsible=0;recursiveResize=0;outlineConnect=0;portConstraint=eastwest;newEdgeStyle={&quot;edgeStyle&quot;:&quot;elbowEdgeStyle&quot;,&quot;elbow&quot;:&quot;vertical&quot;,&quot;curved&quot;:0,&quot;rounded&quot;:0};size=65;" vertex="1" parent="1">
          <mxGeometry x="1695" y="160" width="150" height="1578" as="geometry" />
        </mxCell>
        <mxCell id="ItLx-G26tDlaDgkaqYeo-42" value="" style="points=[];perimeter=orthogonalPerimeter;outlineConnect=0;targetShapes=umlLifeline;portConstraint=eastwest;newEdgeStyle={&quot;edgeStyle&quot;:&quot;elbowEdgeStyle&quot;,&quot;elbow&quot;:&quot;vertical&quot;,&quot;curved&quot;:0,&quot;rounded&quot;:0}" vertex="1" parent="ItLx-G26tDlaDgkaqYeo-41">
          <mxGeometry x="70" y="971" width="10" height="42" as="geometry" />
        </mxCell>
        <mxCell id="ItLx-G26tDlaDgkaqYeo-43" value="" style="points=[];perimeter=orthogonalPerimeter;outlineConnect=0;targetShapes=umlLifeline;portConstraint=eastwest;newEdgeStyle={&quot;edgeStyle&quot;:&quot;elbowEdgeStyle&quot;,&quot;elbow&quot;:&quot;vertical&quot;,&quot;curved&quot;:0,&quot;rounded&quot;:0}" vertex="1" parent="ItLx-G26tDlaDgkaqYeo-41">
          <mxGeometry x="70" y="1339" width="10" height="42" as="geometry" />
        </mxCell>
        <mxCell id="ItLx-G26tDlaDgkaqYeo-76" value="" style="shape=umlDestroy;whiteSpace=wrap;html=1;strokeWidth=3;targetShapes=umlLifeline;" vertex="1" parent="ItLx-G26tDlaDgkaqYeo-41">
          <mxGeometry x="60" y="1570" width="30" height="30" as="geometry" />
        </mxCell>
        <mxCell id="ItLx-G26tDlaDgkaqYeo-44" value="alt" style="shape=umlFrame;dashed=1;pointerEvents=0;dropTarget=0;strokeColor=#B3B3B3;height=20;width=30" vertex="1" parent="1">
          <mxGeometry x="10" y="980" width="1000" height="498" as="geometry" />
        </mxCell>
        <mxCell id="ItLx-G26tDlaDgkaqYeo-46" value="[Payment Failed]" style="shape=line;dashed=1;whiteSpace=wrap;verticalAlign=top;labelPosition=center;verticalLabelPosition=middle;align=center;strokeColor=#B3B3B3;" vertex="1" parent="ItLx-G26tDlaDgkaqYeo-44">
          <mxGeometry x="-280" y="279.9979527559055" width="1000" height="3.9212598425196847" as="geometry" />
        </mxCell>
        <mxCell id="ItLx-G26tDlaDgkaqYeo-47" value="Selects products and proceeds to checkout" style="verticalAlign=bottom;endArrow=block;edgeStyle=elbowEdgeStyle;elbow=vertical;curved=0;rounded=0;" edge="1" parent="1" target="ItLx-G26tDlaDgkaqYeo-33">
          <mxGeometry relative="1" as="geometry">
            <Array as="points">
              <mxPoint x="292" y="267" />
            </Array>
            <mxPoint x="94.5" y="267" as="sourcePoint" />
          </mxGeometry>
        </mxCell>
        <mxCell id="ItLx-G26tDlaDgkaqYeo-48" value="Calculates total order amount" style="curved=1;rounded=0;" edge="1" parent="1" source="ItLx-G26tDlaDgkaqYeo-33" target="ItLx-G26tDlaDgkaqYeo-33">
          <mxGeometry relative="1" as="geometry">
            <Array as="points">
              <mxPoint x="524" y="319" />
              <mxPoint x="524" y="349" />
            </Array>
          </mxGeometry>
        </mxCell>
        <mxCell id="ItLx-G26tDlaDgkaqYeo-49" value="Displays available payment gateways" style="curved=1;rounded=0;" edge="1" parent="1" source="ItLx-G26tDlaDgkaqYeo-33" target="ItLx-G26tDlaDgkaqYeo-33">
          <mxGeometry relative="1" as="geometry">
            <Array as="points">
              <mxPoint x="524" y="401" />
              <mxPoint x="524" y="431" />
            </Array>
          </mxGeometry>
        </mxCell>
        <mxCell id="ItLx-G26tDlaDgkaqYeo-50" value="Chooses a payment gateway" style="verticalAlign=bottom;endArrow=block;edgeStyle=elbowEdgeStyle;elbow=vertical;curved=0;rounded=0;" edge="1" parent="1" target="ItLx-G26tDlaDgkaqYeo-33">
          <mxGeometry relative="1" as="geometry">
            <Array as="points">
              <mxPoint x="290" y="483" />
            </Array>
            <mxPoint x="94.5" y="483" as="sourcePoint" />
          </mxGeometry>
        </mxCell>
        <mxCell id="ItLx-G26tDlaDgkaqYeo-51" value="Redirects customer to chosen payment gateway" style="verticalAlign=bottom;endArrow=block;edgeStyle=elbowEdgeStyle;elbow=vertical;curved=0;rounded=0;" edge="1" parent="1" source="ItLx-G26tDlaDgkaqYeo-33" target="ItLx-G26tDlaDgkaqYeo-35">
          <mxGeometry relative="1" as="geometry">
            <Array as="points">
              <mxPoint x="686" y="535" />
            </Array>
          </mxGeometry>
        </mxCell>
        <mxCell id="ItLx-G26tDlaDgkaqYeo-52" value="Displays payment gateway&#39;s checkout dashboard" style="verticalAlign=bottom;endArrow=block;edgeStyle=elbowEdgeStyle;elbow=vertical;curved=0;rounded=0;" edge="1" parent="1" source="ItLx-G26tDlaDgkaqYeo-35" target="ItLx-G26tDlaDgkaqYeo-38">
          <mxGeometry relative="1" as="geometry">
            <Array as="points">
              <mxPoint x="1224" y="587" />
            </Array>
          </mxGeometry>
        </mxCell>
        <mxCell id="ItLx-G26tDlaDgkaqYeo-53" value="Return message" style="verticalAlign=bottom;endArrow=block;edgeStyle=elbowEdgeStyle;elbow=vertical;curved=0;rounded=0;dashed=1;dashPattern=2 3;" edge="1" parent="1" source="ItLx-G26tDlaDgkaqYeo-37" target="ItLx-G26tDlaDgkaqYeo-35">
          <mxGeometry relative="1" as="geometry">
            <Array as="points">
              <mxPoint x="1222" y="639" />
            </Array>
          </mxGeometry>
        </mxCell>
        <mxCell id="ItLx-G26tDlaDgkaqYeo-55" value="Chooses wallet to make payment" style="verticalAlign=bottom;endArrow=block;edgeStyle=elbowEdgeStyle;elbow=vertical;curved=0;rounded=0;" edge="1" parent="1" target="ItLx-G26tDlaDgkaqYeo-36">
          <mxGeometry relative="1" as="geometry">
            <Array as="points">
              <mxPoint x="633" y="773" />
            </Array>
            <mxPoint x="94.5" y="773" as="sourcePoint" />
          </mxGeometry>
        </mxCell>
        <mxCell id="ItLx-G26tDlaDgkaqYeo-56" value="Initiates payment transaction" style="verticalAlign=bottom;endArrow=block;edgeStyle=elbowEdgeStyle;elbow=vertical;curved=0;rounded=0;" edge="1" parent="1" source="ItLx-G26tDlaDgkaqYeo-36" target="ItLx-G26tDlaDgkaqYeo-34">
          <mxGeometry relative="1" as="geometry">
            <Array as="points">
              <mxPoint x="1024" y="825" />
            </Array>
          </mxGeometry>
        </mxCell>
        <mxCell id="ItLx-G26tDlaDgkaqYeo-57" value="Verifies payment transaction" style="verticalAlign=bottom;endArrow=block;edgeStyle=elbowEdgeStyle;elbow=vertical;curved=0;rounded=0;" edge="1" parent="1" source="ItLx-G26tDlaDgkaqYeo-34" target="ItLx-G26tDlaDgkaqYeo-36">
          <mxGeometry relative="1" as="geometry">
            <Array as="points">
              <mxPoint x="1022" y="877" />
            </Array>
          </mxGeometry>
        </mxCell>
        <mxCell id="ItLx-G26tDlaDgkaqYeo-58" value="Return message" style="verticalAlign=bottom;endArrow=block;edgeStyle=elbowEdgeStyle;elbow=vertical;curved=0;rounded=0;dashed=1;dashPattern=2 3;" edge="1" parent="1" source="ItLx-G26tDlaDgkaqYeo-36" target="ItLx-G26tDlaDgkaqYeo-34">
          <mxGeometry relative="1" as="geometry">
            <Array as="points">
              <mxPoint x="1022" y="929" />
            </Array>
          </mxGeometry>
        </mxCell>
        <mxCell id="ItLx-G26tDlaDgkaqYeo-59" value="Redirects back to web app" style="verticalAlign=bottom;endArrow=block;edgeStyle=elbowEdgeStyle;elbow=vertical;curved=0;rounded=0;" edge="1" parent="1" source="ItLx-G26tDlaDgkaqYeo-36" target="ItLx-G26tDlaDgkaqYeo-39">
          <mxGeometry relative="1" as="geometry">
            <Array as="points">
              <mxPoint x="1361" y="1027" />
            </Array>
          </mxGeometry>
        </mxCell>
        <mxCell id="ItLx-G26tDlaDgkaqYeo-60" value="Notifies payment success" style="verticalAlign=bottom;endArrow=block;edgeStyle=elbowEdgeStyle;elbow=vertical;curved=0;rounded=0;dashed=1;dashPattern=2 3;" edge="1" parent="1" source="ItLx-G26tDlaDgkaqYeo-37" target="ItLx-G26tDlaDgkaqYeo-33">
          <mxGeometry relative="1" as="geometry">
            <Array as="points">
              <mxPoint x="1018" y="1079" />
            </Array>
          </mxGeometry>
        </mxCell>
        <mxCell id="ItLx-G26tDlaDgkaqYeo-61" value="Notifies payment success" style="verticalAlign=bottom;endArrow=block;edgeStyle=elbowEdgeStyle;elbow=vertical;curved=0;rounded=0;" edge="1" parent="1" source="ItLx-G26tDlaDgkaqYeo-33" target="ItLx-G26tDlaDgkaqYeo-42">
          <mxGeometry relative="1" as="geometry">
            <Array as="points">
              <mxPoint x="1132" y="1131" />
            </Array>
          </mxGeometry>
        </mxCell>
        <mxCell id="ItLx-G26tDlaDgkaqYeo-62" value="Confirms payment success" style="verticalAlign=bottom;endArrow=block;edgeStyle=elbowEdgeStyle;elbow=vertical;curved=0;rounded=0;dashed=1;dashPattern=2 3;" edge="1" parent="1" source="ItLx-G26tDlaDgkaqYeo-41" target="ItLx-G26tDlaDgkaqYeo-33">
          <mxGeometry relative="1" as="geometry">
            <Array as="points">
              <mxPoint x="1129" y="1183" />
            </Array>
          </mxGeometry>
        </mxCell>
        <mxCell id="ItLx-G26tDlaDgkaqYeo-63" value="Notifies payment success" style="verticalAlign=bottom;endArrow=block;edgeStyle=elbowEdgeStyle;elbow=vertical;curved=0;rounded=0;dashed=1;dashPattern=2 3;" edge="1" parent="1" source="ItLx-G26tDlaDgkaqYeo-33">
          <mxGeometry relative="1" as="geometry">
            <Array as="points">
              <mxPoint x="290" y="1235" />
            </Array>
            <mxPoint x="94.5" y="1235" as="targetPoint" />
          </mxGeometry>
        </mxCell>
        <mxCell id="ItLx-G26tDlaDgkaqYeo-64" value="Redirects back to web app with error message" style="verticalAlign=bottom;endArrow=block;edgeStyle=elbowEdgeStyle;elbow=vertical;curved=0;rounded=0;" edge="1" parent="1" source="ItLx-G26tDlaDgkaqYeo-36" target="ItLx-G26tDlaDgkaqYeo-40">
          <mxGeometry relative="1" as="geometry">
            <Array as="points">
              <mxPoint x="1361" y="1333" />
            </Array>
          </mxGeometry>
        </mxCell>
        <mxCell id="ItLx-G26tDlaDgkaqYeo-65" value="Notifies payment failure" style="verticalAlign=bottom;endArrow=block;edgeStyle=elbowEdgeStyle;elbow=vertical;curved=0;rounded=0;dashed=1;dashPattern=2 3;" edge="1" parent="1" source="ItLx-G26tDlaDgkaqYeo-37" target="ItLx-G26tDlaDgkaqYeo-33">
          <mxGeometry relative="1" as="geometry">
            <Array as="points">
              <mxPoint x="1018" y="1385" />
            </Array>
          </mxGeometry>
        </mxCell>
        <mxCell id="ItLx-G26tDlaDgkaqYeo-66" value="Notifies payment failure" style="verticalAlign=bottom;endArrow=block;edgeStyle=elbowEdgeStyle;elbow=vertical;curved=0;rounded=0;dashed=1;dashPattern=2 3;" edge="1" parent="1" source="ItLx-G26tDlaDgkaqYeo-33">
          <mxGeometry relative="1" as="geometry">
            <Array as="points">
              <mxPoint x="290" y="1437" />
            </Array>
            <mxPoint x="94.5" y="1437" as="targetPoint" />
          </mxGeometry>
        </mxCell>
        <mxCell id="ItLx-G26tDlaDgkaqYeo-67" value="Sends order details for fulfillment" style="verticalAlign=bottom;endArrow=block;edgeStyle=elbowEdgeStyle;elbow=vertical;curved=0;rounded=0;" edge="1" parent="1" source="ItLx-G26tDlaDgkaqYeo-33" target="ItLx-G26tDlaDgkaqYeo-43">
          <mxGeometry relative="1" as="geometry">
            <Array as="points">
              <mxPoint x="1132" y="1499" />
            </Array>
          </mxGeometry>
        </mxCell>
        <mxCell id="ItLx-G26tDlaDgkaqYeo-68" value="Confirms order fulfillment" style="verticalAlign=bottom;endArrow=block;edgeStyle=elbowEdgeStyle;elbow=vertical;curved=0;rounded=0;dashed=1;dashPattern=2 3;" edge="1" parent="1" source="ItLx-G26tDlaDgkaqYeo-41" target="ItLx-G26tDlaDgkaqYeo-33">
          <mxGeometry relative="1" as="geometry">
            <Array as="points">
              <mxPoint x="1129" y="1551" />
            </Array>
          </mxGeometry>
        </mxCell>
        <mxCell id="ItLx-G26tDlaDgkaqYeo-69" value="Notifies order confirmation and fulfillment" style="verticalAlign=bottom;endArrow=block;edgeStyle=elbowEdgeStyle;elbow=vertical;curved=0;rounded=0;dashed=1;dashPattern=2 3;" edge="1" parent="1" source="ItLx-G26tDlaDgkaqYeo-33">
          <mxGeometry relative="1" as="geometry">
            <Array as="points">
              <mxPoint x="290" y="1603" />
            </Array>
            <mxPoint x="94.5" y="1603" as="targetPoint" />
          </mxGeometry>
        </mxCell>
        <mxCell id="ItLx-G26tDlaDgkaqYeo-70" value="" style="shape=umlLifeline;perimeter=lifelinePerimeter;whiteSpace=wrap;html=1;container=1;dropTarget=0;collapsible=0;recursiveResize=0;outlineConnect=0;portConstraint=eastwest;newEdgeStyle={&quot;curved&quot;:0,&quot;rounded&quot;:0};participant=umlActor;" vertex="1" parent="1">
          <mxGeometry x="85" y="158" width="20" height="1550" as="geometry" />
        </mxCell>
        <mxCell id="ItLx-G26tDlaDgkaqYeo-71" value="" style="shape=umlDestroy;whiteSpace=wrap;html=1;strokeWidth=3;targetShapes=umlLifeline;" vertex="1" parent="1">
          <mxGeometry x="35" y="1710" width="30" height="30" as="geometry" />
        </mxCell>
        <mxCell id="ItLx-G26tDlaDgkaqYeo-72" value="" style="shape=umlDestroy;whiteSpace=wrap;html=1;strokeWidth=3;targetShapes=umlLifeline;" vertex="1" parent="1">
          <mxGeometry x="454" y="1710" width="30" height="30" as="geometry" />
        </mxCell>
        <mxCell id="ItLx-G26tDlaDgkaqYeo-73" value="" style="shape=umlDestroy;whiteSpace=wrap;html=1;strokeWidth=3;targetShapes=umlLifeline;" vertex="1" parent="1">
          <mxGeometry x="862" y="1720" width="30" height="30" as="geometry" />
        </mxCell>
        <mxCell id="ItLx-G26tDlaDgkaqYeo-75" value="" style="shape=umlDestroy;whiteSpace=wrap;html=1;strokeWidth=3;targetShapes=umlLifeline;" vertex="1" parent="1">
          <mxGeometry x="1531" y="1730" width="30" height="30" as="geometry" />
        </mxCell>
        <mxCell id="ItLx-G26tDlaDgkaqYeo-74" value="" style="shape=umlDestroy;whiteSpace=wrap;html=1;strokeWidth=3;targetShapes=umlLifeline;" vertex="1" parent="1">
          <mxGeometry x="1136" y="1730" width="30" height="30" as="geometry" />
        </mxCell>
        <mxCell id="ItLx-G26tDlaDgkaqYeo-83" value="" style="html=1;points=[[0,0,0,0,5],[0,1,0,0,-5],[1,0,0,0,5],[1,1,0,0,-5]];perimeter=orthogonalPerimeter;outlineConnect=0;targetShapes=umlLifeline;portConstraint=eastwest;newEdgeStyle={&quot;curved&quot;:0,&quot;rounded&quot;:0};" vertex="1" parent="1">
          <mxGeometry x="1146" y="1333" width="10" height="47" as="geometry" />
        </mxCell>
        <mxCell id="ItLx-G26tDlaDgkaqYeo-84" value="[Payment Successful]" style="text;strokeColor=none;fillColor=none;align=center;verticalAlign=middle;whiteSpace=wrap;" vertex="1" parent="1">
          <mxGeometry x="-350" y="990" width="1060" height="20" as="geometry" />
        </mxCell>
        <mxCell id="ItLx-G26tDlaDgkaqYeo-77" value="" style="html=1;points=[[0,0,0,0,5],[0,1,0,0,-5],[1,0,0,0,5],[1,1,0,0,-5]];perimeter=orthogonalPerimeter;outlineConnect=0;targetShapes=umlLifeline;portConstraint=eastwest;newEdgeStyle={&quot;curved&quot;:0,&quot;rounded&quot;:0};" vertex="1" parent="1">
          <mxGeometry x="90" y="235" width="10" height="1410" as="geometry" />
        </mxCell>
      </root>
    </mxGraphModel>
  </diagram>
  <diagram id="_HKOJSE4pNYRVY1_XwRA" name="Page-6">
    <mxGraphModel grid="1" page="1" gridSize="10" guides="1" tooltips="1" connect="1" arrows="1" fold="1" pageScale="1" pageWidth="850" pageHeight="1100" math="0" shadow="0">
      <root>
        <mxCell id="0" />
        <mxCell id="1" parent="0" />
        <mxCell id="s361qz6M0-Y-EFN34LyS-1" value="Customer" style="shape=umlLifeline;whiteSpace=wrap;container=1;dropTarget=0;collapsible=0;recursiveResize=0;outlineConnect=0;portConstraint=eastwest;newEdgeStyle={&quot;edgeStyle&quot;:&quot;elbowEdgeStyle&quot;,&quot;elbow&quot;:&quot;vertical&quot;,&quot;curved&quot;:0,&quot;rounded&quot;:0};size=65;participant=umlFrame;html=1;pointerEvents=0;width=170;perimeter=rectanglePerimeter;" vertex="1" parent="1">
          <mxGeometry x="20" y="20" width="150" height="1578" as="geometry" />
        </mxCell>
        <mxCell id="s361qz6M0-Y-EFN34LyS-2" value="&quot;Suke Bederete&quot;" style="shape=umlLifeline;perimeter=lifelinePerimeter;whiteSpace=wrap;container=1;dropTarget=0;collapsible=0;recursiveResize=0;outlineConnect=0;portConstraint=eastwest;newEdgeStyle={&quot;edgeStyle&quot;:&quot;elbowEdgeStyle&quot;,&quot;elbow&quot;:&quot;vertical&quot;,&quot;curved&quot;:0,&quot;rounded&quot;:0};size=65;" vertex="1" parent="1">
          <mxGeometry x="394" y="20" width="150" height="1548" as="geometry" />
        </mxCell>
        <mxCell id="s361qz6M0-Y-EFN34LyS-3" value="" style="points=[];perimeter=orthogonalPerimeter;outlineConnect=0;targetShapes=umlLifeline;portConstraint=eastwest;newEdgeStyle={&quot;edgeStyle&quot;:&quot;elbowEdgeStyle&quot;,&quot;elbow&quot;:&quot;vertical&quot;,&quot;curved&quot;:0,&quot;rounded&quot;:0}" vertex="1" parent="s361qz6M0-Y-EFN34LyS-2">
          <mxGeometry x="70" y="107" width="10" height="1346" as="geometry" />
        </mxCell>
        <mxCell id="s361qz6M0-Y-EFN34LyS-4" value="&quot;Payment Gateway&quot;" style="shape=umlLifeline;perimeter=lifelinePerimeter;whiteSpace=wrap;container=1;dropTarget=0;collapsible=0;recursiveResize=0;outlineConnect=0;portConstraint=eastwest;newEdgeStyle={&quot;edgeStyle&quot;:&quot;elbowEdgeStyle&quot;,&quot;elbow&quot;:&quot;vertical&quot;,&quot;curved&quot;:0,&quot;rounded&quot;:0};size=65;" vertex="1" parent="1">
          <mxGeometry x="798" y="20" width="158" height="1548" as="geometry" />
        </mxCell>
        <mxCell id="s361qz6M0-Y-EFN34LyS-5" value="" style="points=[];perimeter=orthogonalPerimeter;outlineConnect=0;targetShapes=umlLifeline;portConstraint=eastwest;newEdgeStyle={&quot;edgeStyle&quot;:&quot;elbowEdgeStyle&quot;,&quot;elbow&quot;:&quot;vertical&quot;,&quot;curved&quot;:0,&quot;rounded&quot;:0}" vertex="1" parent="s361qz6M0-Y-EFN34LyS-4">
          <mxGeometry x="74" y="375" width="10" height="104" as="geometry" />
        </mxCell>
        <mxCell id="s361qz6M0-Y-EFN34LyS-6" value="Wallet" style="shape=umlLifeline;perimeter=lifelinePerimeter;whiteSpace=wrap;container=1;dropTarget=0;collapsible=0;recursiveResize=0;outlineConnect=0;portConstraint=eastwest;newEdgeStyle={&quot;edgeStyle&quot;:&quot;elbowEdgeStyle&quot;,&quot;elbow&quot;:&quot;vertical&quot;,&quot;curved&quot;:0,&quot;rounded&quot;:0};size=65;" vertex="1" parent="1">
          <mxGeometry x="1076" y="20" width="150" height="1548" as="geometry" />
        </mxCell>
        <mxCell id="s361qz6M0-Y-EFN34LyS-7" value="&quot;PaymentGatewayCheck&quot;" style="shape=umlLifeline;perimeter=lifelinePerimeter;whiteSpace=wrap;container=1;dropTarget=0;collapsible=0;recursiveResize=0;outlineConnect=0;portConstraint=eastwest;newEdgeStyle={&quot;edgeStyle&quot;:&quot;elbowEdgeStyle&quot;,&quot;elbow&quot;:&quot;vertical&quot;,&quot;curved&quot;:0,&quot;rounded&quot;:0};size=65;" vertex="1" parent="1">
          <mxGeometry x="1448" y="20" width="197" height="1548" as="geometry" />
        </mxCell>
        <mxCell id="s361qz6M0-Y-EFN34LyS-8" value="" style="points=[];perimeter=orthogonalPerimeter;outlineConnect=0;targetShapes=umlLifeline;portConstraint=eastwest;newEdgeStyle={&quot;edgeStyle&quot;:&quot;elbowEdgeStyle&quot;,&quot;elbow&quot;:&quot;vertical&quot;,&quot;curved&quot;:0,&quot;rounded&quot;:0}" vertex="1" parent="s361qz6M0-Y-EFN34LyS-7">
          <mxGeometry x="93" y="427" width="10" height="42" as="geometry" />
        </mxCell>
        <mxCell id="s361qz6M0-Y-EFN34LyS-9" value="" style="points=[];perimeter=orthogonalPerimeter;outlineConnect=0;targetShapes=umlLifeline;portConstraint=eastwest;newEdgeStyle={&quot;edgeStyle&quot;:&quot;elbowEdgeStyle&quot;,&quot;elbow&quot;:&quot;vertical&quot;,&quot;curved&quot;:0,&quot;rounded&quot;:0}" vertex="1" parent="s361qz6M0-Y-EFN34LyS-7">
          <mxGeometry x="93" y="867" width="10" height="42" as="geometry" />
        </mxCell>
        <mxCell id="s361qz6M0-Y-EFN34LyS-10" value="" style="points=[];perimeter=orthogonalPerimeter;outlineConnect=0;targetShapes=umlLifeline;portConstraint=eastwest;newEdgeStyle={&quot;edgeStyle&quot;:&quot;elbowEdgeStyle&quot;,&quot;elbow&quot;:&quot;vertical&quot;,&quot;curved&quot;:0,&quot;rounded&quot;:0}" vertex="1" parent="s361qz6M0-Y-EFN34LyS-7">
          <mxGeometry x="93" y="1173" width="10" height="42" as="geometry" />
        </mxCell>
        <mxCell id="s361qz6M0-Y-EFN34LyS-11" value="Merchant" style="shape=umlLifeline;perimeter=lifelinePerimeter;whiteSpace=wrap;container=1;dropTarget=0;collapsible=0;recursiveResize=0;outlineConnect=0;portConstraint=eastwest;newEdgeStyle={&quot;edgeStyle&quot;:&quot;elbowEdgeStyle&quot;,&quot;elbow&quot;:&quot;vertical&quot;,&quot;curved&quot;:0,&quot;rounded&quot;:0};size=65;" vertex="1" parent="1">
          <mxGeometry x="1695" y="20" width="150" height="1548" as="geometry" />
        </mxCell>
        <mxCell id="s361qz6M0-Y-EFN34LyS-12" value="" style="points=[];perimeter=orthogonalPerimeter;outlineConnect=0;targetShapes=umlLifeline;portConstraint=eastwest;newEdgeStyle={&quot;edgeStyle&quot;:&quot;elbowEdgeStyle&quot;,&quot;elbow&quot;:&quot;vertical&quot;,&quot;curved&quot;:0,&quot;rounded&quot;:0}" vertex="1" parent="s361qz6M0-Y-EFN34LyS-11">
          <mxGeometry x="70" y="971" width="10" height="42" as="geometry" />
        </mxCell>
        <mxCell id="s361qz6M0-Y-EFN34LyS-13" value="" style="points=[];perimeter=orthogonalPerimeter;outlineConnect=0;targetShapes=umlLifeline;portConstraint=eastwest;newEdgeStyle={&quot;edgeStyle&quot;:&quot;elbowEdgeStyle&quot;,&quot;elbow&quot;:&quot;vertical&quot;,&quot;curved&quot;:0,&quot;rounded&quot;:0}" vertex="1" parent="s361qz6M0-Y-EFN34LyS-11">
          <mxGeometry x="70" y="1339" width="10" height="42" as="geometry" />
        </mxCell>
        <mxCell id="s361qz6M0-Y-EFN34LyS-14" value="alt" style="shape=umlFrame;dashed=1;pointerEvents=0;dropTarget=0;strokeColor=#B3B3B3;height=20;width=30" vertex="1" parent="1">
          <mxGeometry x="85" y="809" width="1700" height="508" as="geometry" />
        </mxCell>
        <mxCell id="s361qz6M0-Y-EFN34LyS-15" value="[Payment Successful]" style="text;strokeColor=none;fillColor=none;align=center;verticalAlign=middle;whiteSpace=wrap;" vertex="1" parent="s361qz6M0-Y-EFN34LyS-14">
          <mxGeometry x="30" width="1670" height="20" as="geometry" />
        </mxCell>
        <mxCell id="s361qz6M0-Y-EFN34LyS-16" value="[Payment Failed]" style="shape=line;dashed=1;whiteSpace=wrap;verticalAlign=top;labelPosition=center;verticalLabelPosition=middle;align=center;strokeColor=#B3B3B3;" vertex="1" parent="s361qz6M0-Y-EFN34LyS-14">
          <mxGeometry y="311" width="1700" height="4" as="geometry" />
        </mxCell>
        <mxCell id="s361qz6M0-Y-EFN34LyS-17" value="Selects products and proceeds to checkout" style="verticalAlign=bottom;endArrow=block;edgeStyle=elbowEdgeStyle;elbow=vertical;curved=0;rounded=0;" edge="1" parent="1" source="s361qz6M0-Y-EFN34LyS-1" target="s361qz6M0-Y-EFN34LyS-3">
          <mxGeometry relative="1" as="geometry">
            <Array as="points">
              <mxPoint x="292" y="127" />
            </Array>
          </mxGeometry>
        </mxCell>
        <mxCell id="s361qz6M0-Y-EFN34LyS-18" value="Calculates total order amount" style="curved=1;rounded=0;" edge="1" parent="1" source="s361qz6M0-Y-EFN34LyS-3" target="s361qz6M0-Y-EFN34LyS-3">
          <mxGeometry relative="1" as="geometry">
            <Array as="points">
              <mxPoint x="524" y="179" />
              <mxPoint x="524" y="209" />
            </Array>
          </mxGeometry>
        </mxCell>
        <mxCell id="s361qz6M0-Y-EFN34LyS-19" value="Displays available payment gateways" style="curved=1;rounded=0;" edge="1" parent="1" source="s361qz6M0-Y-EFN34LyS-3" target="s361qz6M0-Y-EFN34LyS-3">
          <mxGeometry relative="1" as="geometry">
            <Array as="points">
              <mxPoint x="524" y="261" />
              <mxPoint x="524" y="291" />
            </Array>
          </mxGeometry>
        </mxCell>
        <mxCell id="s361qz6M0-Y-EFN34LyS-20" value="Chooses a payment gateway" style="verticalAlign=bottom;endArrow=block;edgeStyle=elbowEdgeStyle;elbow=vertical;curved=0;rounded=0;" edge="1" parent="1" source="s361qz6M0-Y-EFN34LyS-1" target="s361qz6M0-Y-EFN34LyS-3">
          <mxGeometry relative="1" as="geometry">
            <Array as="points">
              <mxPoint x="290" y="343" />
            </Array>
          </mxGeometry>
        </mxCell>
        <mxCell id="s361qz6M0-Y-EFN34LyS-21" value="Redirects customer to chosen payment gateway" style="verticalAlign=bottom;endArrow=block;edgeStyle=elbowEdgeStyle;elbow=vertical;curved=0;rounded=0;" edge="1" parent="1" source="s361qz6M0-Y-EFN34LyS-3" target="s361qz6M0-Y-EFN34LyS-5">
          <mxGeometry relative="1" as="geometry">
            <Array as="points">
              <mxPoint x="686" y="395" />
            </Array>
          </mxGeometry>
        </mxCell>
        <mxCell id="s361qz6M0-Y-EFN34LyS-22" value="Displays payment gateway&#39;s checkout dashboard" style="verticalAlign=bottom;endArrow=block;edgeStyle=elbowEdgeStyle;elbow=vertical;curved=0;rounded=0;" edge="1" parent="1" source="s361qz6M0-Y-EFN34LyS-5" target="s361qz6M0-Y-EFN34LyS-8">
          <mxGeometry relative="1" as="geometry">
            <Array as="points">
              <mxPoint x="1224" y="447" />
            </Array>
          </mxGeometry>
        </mxCell>
        <mxCell id="s361qz6M0-Y-EFN34LyS-23" value="Return message" style="verticalAlign=bottom;endArrow=block;edgeStyle=elbowEdgeStyle;elbow=vertical;curved=0;rounded=0;dashed=1;dashPattern=2 3;" edge="1" parent="1" source="s361qz6M0-Y-EFN34LyS-7" target="s361qz6M0-Y-EFN34LyS-5">
          <mxGeometry relative="1" as="geometry">
            <Array as="points">
              <mxPoint x="1222" y="499" />
            </Array>
          </mxGeometry>
        </mxCell>
        <mxCell id="s361qz6M0-Y-EFN34LyS-24" value="Displays available wallets" style="curved=1;rounded=0;" edge="1" parent="1" source="s361qz6M0-Y-EFN34LyS-6" target="s361qz6M0-Y-EFN34LyS-6">
          <mxGeometry relative="1" as="geometry">
            <Array as="points">
              <mxPoint x="1201" y="551" />
              <mxPoint x="1201" y="581" />
            </Array>
          </mxGeometry>
        </mxCell>
        <mxCell id="s361qz6M0-Y-EFN34LyS-25" value="Chooses wallet to make payment" style="verticalAlign=bottom;endArrow=block;edgeStyle=elbowEdgeStyle;elbow=vertical;curved=0;rounded=0;" edge="1" parent="1" source="s361qz6M0-Y-EFN34LyS-1" target="s361qz6M0-Y-EFN34LyS-6">
          <mxGeometry relative="1" as="geometry">
            <Array as="points">
              <mxPoint x="633" y="633" />
            </Array>
          </mxGeometry>
        </mxCell>
        <mxCell id="s361qz6M0-Y-EFN34LyS-26" value="Initiates payment transaction" style="verticalAlign=bottom;endArrow=block;edgeStyle=elbowEdgeStyle;elbow=vertical;curved=0;rounded=0;" edge="1" parent="1" source="s361qz6M0-Y-EFN34LyS-6" target="s361qz6M0-Y-EFN34LyS-4">
          <mxGeometry relative="1" as="geometry">
            <Array as="points">
              <mxPoint x="1024" y="685" />
            </Array>
          </mxGeometry>
        </mxCell>
        <mxCell id="s361qz6M0-Y-EFN34LyS-27" value="Verifies payment transaction" style="verticalAlign=bottom;endArrow=block;edgeStyle=elbowEdgeStyle;elbow=vertical;curved=0;rounded=0;" edge="1" parent="1" source="s361qz6M0-Y-EFN34LyS-4" target="s361qz6M0-Y-EFN34LyS-6">
          <mxGeometry relative="1" as="geometry">
            <Array as="points">
              <mxPoint x="1022" y="737" />
            </Array>
          </mxGeometry>
        </mxCell>
        <mxCell id="s361qz6M0-Y-EFN34LyS-28" value="Return message" style="verticalAlign=bottom;endArrow=block;edgeStyle=elbowEdgeStyle;elbow=vertical;curved=0;rounded=0;dashed=1;dashPattern=2 3;" edge="1" parent="1" source="s361qz6M0-Y-EFN34LyS-6" target="s361qz6M0-Y-EFN34LyS-4">
          <mxGeometry relative="1" as="geometry">
            <Array as="points">
              <mxPoint x="1022" y="789" />
            </Array>
          </mxGeometry>
        </mxCell>
        <mxCell id="s361qz6M0-Y-EFN34LyS-29" value="Redirects back to web app" style="verticalAlign=bottom;endArrow=block;edgeStyle=elbowEdgeStyle;elbow=vertical;curved=0;rounded=0;" edge="1" parent="1" source="s361qz6M0-Y-EFN34LyS-6" target="s361qz6M0-Y-EFN34LyS-9">
          <mxGeometry relative="1" as="geometry">
            <Array as="points">
              <mxPoint x="1361" y="887" />
            </Array>
          </mxGeometry>
        </mxCell>
        <mxCell id="s361qz6M0-Y-EFN34LyS-30" value="Notifies payment success" style="verticalAlign=bottom;endArrow=block;edgeStyle=elbowEdgeStyle;elbow=vertical;curved=0;rounded=0;dashed=1;dashPattern=2 3;" edge="1" parent="1" source="s361qz6M0-Y-EFN34LyS-7" target="s361qz6M0-Y-EFN34LyS-3">
          <mxGeometry relative="1" as="geometry">
            <Array as="points">
              <mxPoint x="1018" y="939" />
            </Array>
          </mxGeometry>
        </mxCell>
        <mxCell id="s361qz6M0-Y-EFN34LyS-31" value="Notifies payment success" style="verticalAlign=bottom;endArrow=block;edgeStyle=elbowEdgeStyle;elbow=vertical;curved=0;rounded=0;" edge="1" parent="1" source="s361qz6M0-Y-EFN34LyS-3" target="s361qz6M0-Y-EFN34LyS-12">
          <mxGeometry relative="1" as="geometry">
            <Array as="points">
              <mxPoint x="1132" y="991" />
            </Array>
          </mxGeometry>
        </mxCell>
        <mxCell id="s361qz6M0-Y-EFN34LyS-32" value="Confirms payment success" style="verticalAlign=bottom;endArrow=block;edgeStyle=elbowEdgeStyle;elbow=vertical;curved=0;rounded=0;dashed=1;dashPattern=2 3;" edge="1" parent="1" source="s361qz6M0-Y-EFN34LyS-11" target="s361qz6M0-Y-EFN34LyS-3">
          <mxGeometry relative="1" as="geometry">
            <Array as="points">
              <mxPoint x="1129" y="1043" />
            </Array>
          </mxGeometry>
        </mxCell>
        <mxCell id="s361qz6M0-Y-EFN34LyS-33" value="Notifies payment success" style="verticalAlign=bottom;endArrow=block;edgeStyle=elbowEdgeStyle;elbow=vertical;curved=0;rounded=0;dashed=1;dashPattern=2 3;" edge="1" parent="1" source="s361qz6M0-Y-EFN34LyS-3" target="s361qz6M0-Y-EFN34LyS-1">
          <mxGeometry relative="1" as="geometry">
            <Array as="points">
              <mxPoint x="290" y="1095" />
            </Array>
          </mxGeometry>
        </mxCell>
        <mxCell id="s361qz6M0-Y-EFN34LyS-34" value="Redirects back to web app with error message" style="verticalAlign=bottom;endArrow=block;edgeStyle=elbowEdgeStyle;elbow=vertical;curved=0;rounded=0;" edge="1" parent="1" source="s361qz6M0-Y-EFN34LyS-6" target="s361qz6M0-Y-EFN34LyS-10">
          <mxGeometry relative="1" as="geometry">
            <Array as="points">
              <mxPoint x="1361" y="1193" />
            </Array>
          </mxGeometry>
        </mxCell>
        <mxCell id="s361qz6M0-Y-EFN34LyS-35" value="Notifies payment failure" style="verticalAlign=bottom;endArrow=block;edgeStyle=elbowEdgeStyle;elbow=vertical;curved=0;rounded=0;dashed=1;dashPattern=2 3;" edge="1" parent="1" source="s361qz6M0-Y-EFN34LyS-7" target="s361qz6M0-Y-EFN34LyS-3">
          <mxGeometry relative="1" as="geometry">
            <Array as="points">
              <mxPoint x="1018" y="1245" />
            </Array>
          </mxGeometry>
        </mxCell>
        <mxCell id="s361qz6M0-Y-EFN34LyS-36" value="Notifies payment failure" style="verticalAlign=bottom;endArrow=block;edgeStyle=elbowEdgeStyle;elbow=vertical;curved=0;rounded=0;dashed=1;dashPattern=2 3;" edge="1" parent="1" source="s361qz6M0-Y-EFN34LyS-3" target="s361qz6M0-Y-EFN34LyS-1">
          <mxGeometry relative="1" as="geometry">
            <Array as="points">
              <mxPoint x="290" y="1297" />
            </Array>
          </mxGeometry>
        </mxCell>
        <mxCell id="s361qz6M0-Y-EFN34LyS-37" value="Sends order details for fulfillment" style="verticalAlign=bottom;endArrow=block;edgeStyle=elbowEdgeStyle;elbow=vertical;curved=0;rounded=0;" edge="1" parent="1" source="s361qz6M0-Y-EFN34LyS-3" target="s361qz6M0-Y-EFN34LyS-13">
          <mxGeometry relative="1" as="geometry">
            <Array as="points">
              <mxPoint x="1132" y="1359" />
            </Array>
          </mxGeometry>
        </mxCell>
        <mxCell id="s361qz6M0-Y-EFN34LyS-38" value="Confirms order fulfillment" style="verticalAlign=bottom;endArrow=block;edgeStyle=elbowEdgeStyle;elbow=vertical;curved=0;rounded=0;dashed=1;dashPattern=2 3;" edge="1" parent="1" source="s361qz6M0-Y-EFN34LyS-11" target="s361qz6M0-Y-EFN34LyS-3">
          <mxGeometry relative="1" as="geometry">
            <Array as="points">
              <mxPoint x="1129" y="1411" />
            </Array>
          </mxGeometry>
        </mxCell>
        <mxCell id="s361qz6M0-Y-EFN34LyS-39" value="Notifies order confirmation and fulfillment" style="verticalAlign=bottom;endArrow=block;edgeStyle=elbowEdgeStyle;elbow=vertical;curved=0;rounded=0;dashed=1;dashPattern=2 3;" edge="1" parent="1" source="s361qz6M0-Y-EFN34LyS-3" target="s361qz6M0-Y-EFN34LyS-1">
          <mxGeometry relative="1" as="geometry">
            <Array as="points">
              <mxPoint x="290" y="1463" />
            </Array>
          </mxGeometry>
        </mxCell>
      </root>
    </mxGraphModel>
  </diagram>
  <diagram id="hrv8tmznfhLvhzZ38cMu" name="Page-7">
    <mxGraphModel dx="1181" dy="468" grid="1" gridSize="10" guides="1" tooltips="1" connect="1" arrows="1" fold="1" page="1" pageScale="1" pageWidth="850" pageHeight="1100" math="0" shadow="0">
      <root>
        <mxCell id="0" />
        <mxCell id="1" parent="0" />
        <mxCell id="bU3YTctmKrP7bvywd6No-1" value="&lt;&lt;Entity&gt;&gt;&#xa;Merchant" style="swimlane;fontStyle=1;align=center;verticalAlign=top;childLayout=stackLayout;horizontal=1;startSize=40;horizontalStack=0;resizeParent=1;resizeParentMax=0;resizeLast=0;collapsible=0;marginBottom=0;" vertex="1" parent="1">
          <mxGeometry x="220" y="20" width="195" height="291" as="geometry" />
        </mxCell>
        <mxCell id="bU3YTctmKrP7bvywd6No-2" value="- merchantID: int" style="text;strokeColor=none;fillColor=none;align=left;verticalAlign=top;spacingLeft=4;spacingRight=4;overflow=hidden;rotatable=0;points=[[0,0.5],[1,0.5]];portConstraint=eastwest;" vertex="1" parent="bU3YTctmKrP7bvywd6No-1">
          <mxGeometry y="40" width="195" height="27" as="geometry" />
        </mxCell>
        <mxCell id="bU3YTctmKrP7bvywd6No-3" value="- name: string" style="text;strokeColor=none;fillColor=none;align=left;verticalAlign=top;spacingLeft=4;spacingRight=4;overflow=hidden;rotatable=0;points=[[0,0.5],[1,0.5]];portConstraint=eastwest;" vertex="1" parent="bU3YTctmKrP7bvywd6No-1">
          <mxGeometry y="67" width="195" height="27" as="geometry" />
        </mxCell>
        <mxCell id="bU3YTctmKrP7bvywd6No-4" value="- email: string" style="text;strokeColor=none;fillColor=none;align=left;verticalAlign=top;spacingLeft=4;spacingRight=4;overflow=hidden;rotatable=0;points=[[0,0.5],[1,0.5]];portConstraint=eastwest;" vertex="1" parent="bU3YTctmKrP7bvywd6No-1">
          <mxGeometry y="94" width="195" height="27" as="geometry" />
        </mxCell>
        <mxCell id="bU3YTctmKrP7bvywd6No-5" value="- password: string" style="text;strokeColor=none;fillColor=none;align=left;verticalAlign=top;spacingLeft=4;spacingRight=4;overflow=hidden;rotatable=0;points=[[0,0.5],[1,0.5]];portConstraint=eastwest;" vertex="1" parent="bU3YTctmKrP7bvywd6No-1">
          <mxGeometry y="121" width="195" height="27" as="geometry" />
        </mxCell>
        <mxCell id="bU3YTctmKrP7bvywd6No-6" value="- bankInformation: string" style="text;strokeColor=none;fillColor=none;align=left;verticalAlign=top;spacingLeft=4;spacingRight=4;overflow=hidden;rotatable=0;points=[[0,0.5],[1,0.5]];portConstraint=eastwest;" vertex="1" parent="bU3YTctmKrP7bvywd6No-1">
          <mxGeometry y="148" width="195" height="27" as="geometry" />
        </mxCell>
        <mxCell id="bU3YTctmKrP7bvywd6No-7" style="line;strokeWidth=1;fillColor=none;align=left;verticalAlign=middle;spacingTop=-1;spacingLeft=3;spacingRight=3;rotatable=0;labelPosition=right;points=[];portConstraint=eastwest;strokeColor=inherit;" vertex="1" parent="bU3YTctmKrP7bvywd6No-1">
          <mxGeometry y="175" width="195" height="8" as="geometry" />
        </mxCell>
        <mxCell id="bU3YTctmKrP7bvywd6No-8" value="+ createShop()" style="text;strokeColor=none;fillColor=none;align=left;verticalAlign=top;spacingLeft=4;spacingRight=4;overflow=hidden;rotatable=0;points=[[0,0.5],[1,0.5]];portConstraint=eastwest;" vertex="1" parent="bU3YTctmKrP7bvywd6No-1">
          <mxGeometry y="183" width="195" height="27" as="geometry" />
        </mxCell>
        <mxCell id="bU3YTctmKrP7bvywd6No-9" value="+ manageProducts()" style="text;strokeColor=none;fillColor=none;align=left;verticalAlign=top;spacingLeft=4;spacingRight=4;overflow=hidden;rotatable=0;points=[[0,0.5],[1,0.5]];portConstraint=eastwest;" vertex="1" parent="bU3YTctmKrP7bvywd6No-1">
          <mxGeometry y="210" width="195" height="27" as="geometry" />
        </mxCell>
        <mxCell id="bU3YTctmKrP7bvywd6No-10" value="+ manageOrders()" style="text;strokeColor=none;fillColor=none;align=left;verticalAlign=top;spacingLeft=4;spacingRight=4;overflow=hidden;rotatable=0;points=[[0,0.5],[1,0.5]];portConstraint=eastwest;" vertex="1" parent="bU3YTctmKrP7bvywd6No-1">
          <mxGeometry y="237" width="195" height="27" as="geometry" />
        </mxCell>
        <mxCell id="bU3YTctmKrP7bvywd6No-11" value="+ publishShop()" style="text;strokeColor=none;fillColor=none;align=left;verticalAlign=top;spacingLeft=4;spacingRight=4;overflow=hidden;rotatable=0;points=[[0,0.5],[1,0.5]];portConstraint=eastwest;" vertex="1" parent="bU3YTctmKrP7bvywd6No-1">
          <mxGeometry y="264" width="195" height="27" as="geometry" />
        </mxCell>
        <mxCell id="bU3YTctmKrP7bvywd6No-12" value="&lt;&lt;Entity&gt;&gt;&#xa;Shop" style="swimlane;fontStyle=1;align=center;verticalAlign=top;childLayout=stackLayout;horizontal=1;startSize=41.294117647058826;horizontalStack=0;resizeParent=1;resizeParentMax=0;resizeLast=0;collapsible=0;marginBottom=0;" vertex="1" parent="1">
          <mxGeometry x="230" y="400" width="174" height="245.29411764705884" as="geometry" />
        </mxCell>
        <mxCell id="bU3YTctmKrP7bvywd6No-13" value="- shopID: int" style="text;strokeColor=none;fillColor=none;align=left;verticalAlign=top;spacingLeft=4;spacingRight=4;overflow=hidden;rotatable=0;points=[[0,0.5],[1,0.5]];portConstraint=eastwest;" vertex="1" parent="bU3YTctmKrP7bvywd6No-12">
          <mxGeometry y="41.294117647058826" width="174" height="28" as="geometry" />
        </mxCell>
        <mxCell id="bU3YTctmKrP7bvywd6No-14" value="- name: string" style="text;strokeColor=none;fillColor=none;align=left;verticalAlign=top;spacingLeft=4;spacingRight=4;overflow=hidden;rotatable=0;points=[[0,0.5],[1,0.5]];portConstraint=eastwest;" vertex="1" parent="bU3YTctmKrP7bvywd6No-12">
          <mxGeometry y="69.29411764705883" width="174" height="28" as="geometry" />
        </mxCell>
        <mxCell id="bU3YTctmKrP7bvywd6No-15" value="- templateID: int" style="text;strokeColor=none;fillColor=none;align=left;verticalAlign=top;spacingLeft=4;spacingRight=4;overflow=hidden;rotatable=0;points=[[0,0.5],[1,0.5]];portConstraint=eastwest;" vertex="1" parent="bU3YTctmKrP7bvywd6No-12">
          <mxGeometry y="97.29411764705883" width="174" height="28" as="geometry" />
        </mxCell>
        <mxCell id="bU3YTctmKrP7bvywd6No-16" value="- merchantID: int" style="text;strokeColor=none;fillColor=none;align=left;verticalAlign=top;spacingLeft=4;spacingRight=4;overflow=hidden;rotatable=0;points=[[0,0.5],[1,0.5]];portConstraint=eastwest;" vertex="1" parent="bU3YTctmKrP7bvywd6No-12">
          <mxGeometry y="125.29411764705883" width="174" height="28" as="geometry" />
        </mxCell>
        <mxCell id="bU3YTctmKrP7bvywd6No-17" style="line;strokeWidth=1;fillColor=none;align=left;verticalAlign=middle;spacingTop=-1;spacingLeft=3;spacingRight=3;rotatable=0;labelPosition=right;points=[];portConstraint=eastwest;strokeColor=inherit;" vertex="1" parent="bU3YTctmKrP7bvywd6No-12">
          <mxGeometry y="153.29411764705884" width="174" height="8" as="geometry" />
        </mxCell>
        <mxCell id="bU3YTctmKrP7bvywd6No-18" value="+ customizeTemplate()" style="text;strokeColor=none;fillColor=none;align=left;verticalAlign=top;spacingLeft=4;spacingRight=4;overflow=hidden;rotatable=0;points=[[0,0.5],[1,0.5]];portConstraint=eastwest;" vertex="1" parent="bU3YTctmKrP7bvywd6No-12">
          <mxGeometry y="161.29411764705884" width="174" height="28" as="geometry" />
        </mxCell>
        <mxCell id="bU3YTctmKrP7bvywd6No-19" value="+ publishShop()" style="text;strokeColor=none;fillColor=none;align=left;verticalAlign=top;spacingLeft=4;spacingRight=4;overflow=hidden;rotatable=0;points=[[0,0.5],[1,0.5]];portConstraint=eastwest;" vertex="1" parent="bU3YTctmKrP7bvywd6No-12">
          <mxGeometry y="189.29411764705884" width="174" height="28" as="geometry" />
        </mxCell>
        <mxCell id="bU3YTctmKrP7bvywd6No-20" value="+ manageOrders()" style="text;strokeColor=none;fillColor=none;align=left;verticalAlign=top;spacingLeft=4;spacingRight=4;overflow=hidden;rotatable=0;points=[[0,0.5],[1,0.5]];portConstraint=eastwest;" vertex="1" parent="bU3YTctmKrP7bvywd6No-12">
          <mxGeometry y="217.29411764705884" width="174" height="28" as="geometry" />
        </mxCell>
        <mxCell id="bU3YTctmKrP7bvywd6No-21" value="&lt;&lt;Entity&gt;&gt;&#xa;Template" style="swimlane;fontStyle=1;align=center;verticalAlign=top;childLayout=stackLayout;horizontal=1;startSize=45;horizontalStack=0;resizeParent=1;resizeParentMax=0;resizeLast=0;collapsible=0;marginBottom=0;" vertex="1" parent="1">
          <mxGeometry x="20" y="792" width="157" height="173" as="geometry" />
        </mxCell>
        <mxCell id="bU3YTctmKrP7bvywd6No-22" value="- templateID: int" style="text;strokeColor=none;fillColor=none;align=left;verticalAlign=top;spacingLeft=4;spacingRight=4;overflow=hidden;rotatable=0;points=[[0,0.5],[1,0.5]];portConstraint=eastwest;" vertex="1" parent="bU3YTctmKrP7bvywd6No-21">
          <mxGeometry y="45" width="157" height="30" as="geometry" />
        </mxCell>
        <mxCell id="bU3YTctmKrP7bvywd6No-23" value="- name: string" style="text;strokeColor=none;fillColor=none;align=left;verticalAlign=top;spacingLeft=4;spacingRight=4;overflow=hidden;rotatable=0;points=[[0,0.5],[1,0.5]];portConstraint=eastwest;" vertex="1" parent="bU3YTctmKrP7bvywd6No-21">
          <mxGeometry y="75" width="157" height="30" as="geometry" />
        </mxCell>
        <mxCell id="bU3YTctmKrP7bvywd6No-24" value="- description: string" style="text;strokeColor=none;fillColor=none;align=left;verticalAlign=top;spacingLeft=4;spacingRight=4;overflow=hidden;rotatable=0;points=[[0,0.5],[1,0.5]];portConstraint=eastwest;" vertex="1" parent="bU3YTctmKrP7bvywd6No-21">
          <mxGeometry y="105" width="157" height="30" as="geometry" />
        </mxCell>
        <mxCell id="bU3YTctmKrP7bvywd6No-25" style="line;strokeWidth=1;fillColor=none;align=left;verticalAlign=middle;spacingTop=-1;spacingLeft=3;spacingRight=3;rotatable=0;labelPosition=right;points=[];portConstraint=eastwest;strokeColor=inherit;" vertex="1" parent="bU3YTctmKrP7bvywd6No-21">
          <mxGeometry y="135" width="157" height="8" as="geometry" />
        </mxCell>
        <mxCell id="bU3YTctmKrP7bvywd6No-26" value="+ customize()" style="text;strokeColor=none;fillColor=none;align=left;verticalAlign=top;spacingLeft=4;spacingRight=4;overflow=hidden;rotatable=0;points=[[0,0.5],[1,0.5]];portConstraint=eastwest;" vertex="1" parent="bU3YTctmKrP7bvywd6No-21">
          <mxGeometry y="143" width="157" height="30" as="geometry" />
        </mxCell>
        <mxCell id="bU3YTctmKrP7bvywd6No-27" value="&lt;&lt;Entity&gt;&gt;&#xa;Product" style="swimlane;fontStyle=1;align=center;verticalAlign=top;childLayout=stackLayout;horizontal=1;startSize=41.294117647058826;horizontalStack=0;resizeParent=1;resizeParentMax=0;resizeLast=0;collapsible=0;marginBottom=0;" vertex="1" parent="1">
          <mxGeometry x="334" y="1091" width="157" height="245.29411764705884" as="geometry" />
        </mxCell>
        <mxCell id="bU3YTctmKrP7bvywd6No-28" value="- productID: int" style="text;strokeColor=none;fillColor=none;align=left;verticalAlign=top;spacingLeft=4;spacingRight=4;overflow=hidden;rotatable=0;points=[[0,0.5],[1,0.5]];portConstraint=eastwest;" vertex="1" parent="bU3YTctmKrP7bvywd6No-27">
          <mxGeometry y="41.294117647058826" width="157" height="28" as="geometry" />
        </mxCell>
        <mxCell id="bU3YTctmKrP7bvywd6No-29" value="- name: string" style="text;strokeColor=none;fillColor=none;align=left;verticalAlign=top;spacingLeft=4;spacingRight=4;overflow=hidden;rotatable=0;points=[[0,0.5],[1,0.5]];portConstraint=eastwest;" vertex="1" parent="bU3YTctmKrP7bvywd6No-27">
          <mxGeometry y="69.29411764705883" width="157" height="28" as="geometry" />
        </mxCell>
        <mxCell id="bU3YTctmKrP7bvywd6No-30" value="- description: string" style="text;strokeColor=none;fillColor=none;align=left;verticalAlign=top;spacingLeft=4;spacingRight=4;overflow=hidden;rotatable=0;points=[[0,0.5],[1,0.5]];portConstraint=eastwest;" vertex="1" parent="bU3YTctmKrP7bvywd6No-27">
          <mxGeometry y="97.29411764705883" width="157" height="28" as="geometry" />
        </mxCell>
        <mxCell id="bU3YTctmKrP7bvywd6No-31" value="- price: decimal" style="text;strokeColor=none;fillColor=none;align=left;verticalAlign=top;spacingLeft=4;spacingRight=4;overflow=hidden;rotatable=0;points=[[0,0.5],[1,0.5]];portConstraint=eastwest;" vertex="1" parent="bU3YTctmKrP7bvywd6No-27">
          <mxGeometry y="125.29411764705883" width="157" height="28" as="geometry" />
        </mxCell>
        <mxCell id="bU3YTctmKrP7bvywd6No-32" value="- quantity: int" style="text;strokeColor=none;fillColor=none;align=left;verticalAlign=top;spacingLeft=4;spacingRight=4;overflow=hidden;rotatable=0;points=[[0,0.5],[1,0.5]];portConstraint=eastwest;" vertex="1" parent="bU3YTctmKrP7bvywd6No-27">
          <mxGeometry y="153.29411764705884" width="157" height="28" as="geometry" />
        </mxCell>
        <mxCell id="bU3YTctmKrP7bvywd6No-33" style="line;strokeWidth=1;fillColor=none;align=left;verticalAlign=middle;spacingTop=-1;spacingLeft=3;spacingRight=3;rotatable=0;labelPosition=right;points=[];portConstraint=eastwest;strokeColor=inherit;" vertex="1" parent="bU3YTctmKrP7bvywd6No-27">
          <mxGeometry y="181.29411764705884" width="157" height="8" as="geometry" />
        </mxCell>
        <mxCell id="bU3YTctmKrP7bvywd6No-34" value="+ addToCart()" style="text;strokeColor=none;fillColor=none;align=left;verticalAlign=top;spacingLeft=4;spacingRight=4;overflow=hidden;rotatable=0;points=[[0,0.5],[1,0.5]];portConstraint=eastwest;" vertex="1" parent="bU3YTctmKrP7bvywd6No-27">
          <mxGeometry y="189.29411764705884" width="157" height="28" as="geometry" />
        </mxCell>
        <mxCell id="bU3YTctmKrP7bvywd6No-35" value="+ removeFromCart()" style="text;strokeColor=none;fillColor=none;align=left;verticalAlign=top;spacingLeft=4;spacingRight=4;overflow=hidden;rotatable=0;points=[[0,0.5],[1,0.5]];portConstraint=eastwest;" vertex="1" parent="bU3YTctmKrP7bvywd6No-27">
          <mxGeometry y="217.29411764705884" width="157" height="28" as="geometry" />
        </mxCell>
        <mxCell id="bU3YTctmKrP7bvywd6No-36" value="&lt;&lt;Entity&gt;&gt;&#xa;Order" style="swimlane;fontStyle=1;align=center;verticalAlign=top;childLayout=stackLayout;horizontal=1;startSize=40;horizontalStack=0;resizeParent=1;resizeParentMax=0;resizeLast=0;collapsible=0;marginBottom=0;" vertex="1" parent="1">
          <mxGeometry x="449" y="734" width="191" height="291" as="geometry" />
        </mxCell>
        <mxCell id="bU3YTctmKrP7bvywd6No-37" value="- orderID: int" style="text;strokeColor=none;fillColor=none;align=left;verticalAlign=top;spacingLeft=4;spacingRight=4;overflow=hidden;rotatable=0;points=[[0,0.5],[1,0.5]];portConstraint=eastwest;" vertex="1" parent="bU3YTctmKrP7bvywd6No-36">
          <mxGeometry y="40" width="191" height="27" as="geometry" />
        </mxCell>
        <mxCell id="bU3YTctmKrP7bvywd6No-38" value="- customerID: int" style="text;strokeColor=none;fillColor=none;align=left;verticalAlign=top;spacingLeft=4;spacingRight=4;overflow=hidden;rotatable=0;points=[[0,0.5],[1,0.5]];portConstraint=eastwest;" vertex="1" parent="bU3YTctmKrP7bvywd6No-36">
          <mxGeometry y="67" width="191" height="27" as="geometry" />
        </mxCell>
        <mxCell id="bU3YTctmKrP7bvywd6No-39" value="- shopID: int" style="text;strokeColor=none;fillColor=none;align=left;verticalAlign=top;spacingLeft=4;spacingRight=4;overflow=hidden;rotatable=0;points=[[0,0.5],[1,0.5]];portConstraint=eastwest;" vertex="1" parent="bU3YTctmKrP7bvywd6No-36">
          <mxGeometry y="94" width="191" height="27" as="geometry" />
        </mxCell>
        <mxCell id="bU3YTctmKrP7bvywd6No-40" value="- products: List" style="text;strokeColor=none;fillColor=none;align=left;verticalAlign=top;spacingLeft=4;spacingRight=4;overflow=hidden;rotatable=0;points=[[0,0.5],[1,0.5]];portConstraint=eastwest;" vertex="1" parent="bU3YTctmKrP7bvywd6No-36">
          <mxGeometry y="121" width="191" height="27" as="geometry" />
        </mxCell>
        <mxCell id="bU3YTctmKrP7bvywd6No-41" value="- status: string" style="text;strokeColor=none;fillColor=none;align=left;verticalAlign=top;spacingLeft=4;spacingRight=4;overflow=hidden;rotatable=0;points=[[0,0.5],[1,0.5]];portConstraint=eastwest;" vertex="1" parent="bU3YTctmKrP7bvywd6No-36">
          <mxGeometry y="148" width="191" height="27" as="geometry" />
        </mxCell>
        <mxCell id="bU3YTctmKrP7bvywd6No-42" value="- shippingAddress: string" style="text;strokeColor=none;fillColor=none;align=left;verticalAlign=top;spacingLeft=4;spacingRight=4;overflow=hidden;rotatable=0;points=[[0,0.5],[1,0.5]];portConstraint=eastwest;" vertex="1" parent="bU3YTctmKrP7bvywd6No-36">
          <mxGeometry y="175" width="191" height="27" as="geometry" />
        </mxCell>
        <mxCell id="bU3YTctmKrP7bvywd6No-43" value="- phoneNumber: string" style="text;strokeColor=none;fillColor=none;align=left;verticalAlign=top;spacingLeft=4;spacingRight=4;overflow=hidden;rotatable=0;points=[[0,0.5],[1,0.5]];portConstraint=eastwest;" vertex="1" parent="bU3YTctmKrP7bvywd6No-36">
          <mxGeometry y="202" width="191" height="27" as="geometry" />
        </mxCell>
        <mxCell id="bU3YTctmKrP7bvywd6No-44" style="line;strokeWidth=1;fillColor=none;align=left;verticalAlign=middle;spacingTop=-1;spacingLeft=3;spacingRight=3;rotatable=0;labelPosition=right;points=[];portConstraint=eastwest;strokeColor=inherit;" vertex="1" parent="bU3YTctmKrP7bvywd6No-36">
          <mxGeometry y="229" width="191" height="8" as="geometry" />
        </mxCell>
        <mxCell id="bU3YTctmKrP7bvywd6No-45" value="+ placeOrder()" style="text;strokeColor=none;fillColor=none;align=left;verticalAlign=top;spacingLeft=4;spacingRight=4;overflow=hidden;rotatable=0;points=[[0,0.5],[1,0.5]];portConstraint=eastwest;" vertex="1" parent="bU3YTctmKrP7bvywd6No-36">
          <mxGeometry y="237" width="191" height="27" as="geometry" />
        </mxCell>
        <mxCell id="bU3YTctmKrP7bvywd6No-46" value="+ cancelOrder()" style="text;strokeColor=none;fillColor=none;align=left;verticalAlign=top;spacingLeft=4;spacingRight=4;overflow=hidden;rotatable=0;points=[[0,0.5],[1,0.5]];portConstraint=eastwest;" vertex="1" parent="bU3YTctmKrP7bvywd6No-36">
          <mxGeometry y="264" width="191" height="27" as="geometry" />
        </mxCell>
        <mxCell id="bU3YTctmKrP7bvywd6No-47" value="&lt;&lt;Entity&gt;&gt;&#xa;Page" style="swimlane;fontStyle=1;align=center;verticalAlign=top;childLayout=stackLayout;horizontal=1;startSize=42.599999999999994;horizontalStack=0;resizeParent=1;resizeParentMax=0;resizeLast=0;collapsible=0;marginBottom=0;" vertex="1" parent="1">
          <mxGeometry x="152" y="1137" width="132" height="140.6" as="geometry" />
        </mxCell>
        <mxCell id="bU3YTctmKrP7bvywd6No-48" value="- pageID: int" style="text;strokeColor=none;fillColor=none;align=left;verticalAlign=top;spacingLeft=4;spacingRight=4;overflow=hidden;rotatable=0;points=[[0,0.5],[1,0.5]];portConstraint=eastwest;" vertex="1" parent="bU3YTctmKrP7bvywd6No-47">
          <mxGeometry y="42.599999999999994" width="132" height="28" as="geometry" />
        </mxCell>
        <mxCell id="bU3YTctmKrP7bvywd6No-49" value="- type: string" style="text;strokeColor=none;fillColor=none;align=left;verticalAlign=top;spacingLeft=4;spacingRight=4;overflow=hidden;rotatable=0;points=[[0,0.5],[1,0.5]];portConstraint=eastwest;" vertex="1" parent="bU3YTctmKrP7bvywd6No-47">
          <mxGeometry y="70.6" width="132" height="28" as="geometry" />
        </mxCell>
        <mxCell id="bU3YTctmKrP7bvywd6No-50" value="- content: string" style="text;strokeColor=none;fillColor=none;align=left;verticalAlign=top;spacingLeft=4;spacingRight=4;overflow=hidden;rotatable=0;points=[[0,0.5],[1,0.5]];portConstraint=eastwest;" vertex="1" parent="bU3YTctmKrP7bvywd6No-47">
          <mxGeometry y="98.6" width="132" height="28" as="geometry" />
        </mxCell>
        <mxCell id="bU3YTctmKrP7bvywd6No-51" style="line;strokeWidth=1;fillColor=none;align=left;verticalAlign=middle;spacingTop=-1;spacingLeft=3;spacingRight=3;rotatable=0;labelPosition=right;points=[];portConstraint=eastwest;strokeColor=inherit;" vertex="1" parent="bU3YTctmKrP7bvywd6No-47">
          <mxGeometry y="126.6" width="132" height="14" as="geometry" />
        </mxCell>
        <mxCell id="bU3YTctmKrP7bvywd6No-52" value="&lt;&lt;Entity&gt;&gt;&#xa;Customer" style="swimlane;fontStyle=1;align=center;verticalAlign=top;childLayout=stackLayout;horizontal=1;startSize=40;horizontalStack=0;resizeParent=1;resizeParentMax=0;resizeLast=0;collapsible=0;marginBottom=0;" vertex="1" parent="1">
          <mxGeometry x="915" y="377" width="172" height="291" as="geometry" />
        </mxCell>
        <mxCell id="bU3YTctmKrP7bvywd6No-53" value="- customerID: int" style="text;strokeColor=none;fillColor=none;align=left;verticalAlign=top;spacingLeft=4;spacingRight=4;overflow=hidden;rotatable=0;points=[[0,0.5],[1,0.5]];portConstraint=eastwest;" vertex="1" parent="bU3YTctmKrP7bvywd6No-52">
          <mxGeometry y="40" width="172" height="27" as="geometry" />
        </mxCell>
        <mxCell id="bU3YTctmKrP7bvywd6No-54" value="- name: string" style="text;strokeColor=none;fillColor=none;align=left;verticalAlign=top;spacingLeft=4;spacingRight=4;overflow=hidden;rotatable=0;points=[[0,0.5],[1,0.5]];portConstraint=eastwest;" vertex="1" parent="bU3YTctmKrP7bvywd6No-52">
          <mxGeometry y="67" width="172" height="27" as="geometry" />
        </mxCell>
        <mxCell id="bU3YTctmKrP7bvywd6No-55" value="- email: string" style="text;strokeColor=none;fillColor=none;align=left;verticalAlign=top;spacingLeft=4;spacingRight=4;overflow=hidden;rotatable=0;points=[[0,0.5],[1,0.5]];portConstraint=eastwest;" vertex="1" parent="bU3YTctmKrP7bvywd6No-52">
          <mxGeometry y="94" width="172" height="27" as="geometry" />
        </mxCell>
        <mxCell id="bU3YTctmKrP7bvywd6No-56" value="- password: string" style="text;strokeColor=none;fillColor=none;align=left;verticalAlign=top;spacingLeft=4;spacingRight=4;overflow=hidden;rotatable=0;points=[[0,0.5],[1,0.5]];portConstraint=eastwest;" vertex="1" parent="bU3YTctmKrP7bvywd6No-52">
          <mxGeometry y="121" width="172" height="27" as="geometry" />
        </mxCell>
        <mxCell id="bU3YTctmKrP7bvywd6No-57" style="line;strokeWidth=1;fillColor=none;align=left;verticalAlign=middle;spacingTop=-1;spacingLeft=3;spacingRight=3;rotatable=0;labelPosition=right;points=[];portConstraint=eastwest;strokeColor=inherit;" vertex="1" parent="bU3YTctmKrP7bvywd6No-52">
          <mxGeometry y="148" width="172" height="8" as="geometry" />
        </mxCell>
        <mxCell id="bU3YTctmKrP7bvywd6No-58" value="+ browseShops()" style="text;strokeColor=none;fillColor=none;align=left;verticalAlign=top;spacingLeft=4;spacingRight=4;overflow=hidden;rotatable=0;points=[[0,0.5],[1,0.5]];portConstraint=eastwest;" vertex="1" parent="bU3YTctmKrP7bvywd6No-52">
          <mxGeometry y="156" width="172" height="27" as="geometry" />
        </mxCell>
        <mxCell id="bU3YTctmKrP7bvywd6No-59" value="+ viewProductDetails()" style="text;strokeColor=none;fillColor=none;align=left;verticalAlign=top;spacingLeft=4;spacingRight=4;overflow=hidden;rotatable=0;points=[[0,0.5],[1,0.5]];portConstraint=eastwest;" vertex="1" parent="bU3YTctmKrP7bvywd6No-52">
          <mxGeometry y="183" width="172" height="27" as="geometry" />
        </mxCell>
        <mxCell id="bU3YTctmKrP7bvywd6No-60" value="+ addToCart()" style="text;strokeColor=none;fillColor=none;align=left;verticalAlign=top;spacingLeft=4;spacingRight=4;overflow=hidden;rotatable=0;points=[[0,0.5],[1,0.5]];portConstraint=eastwest;" vertex="1" parent="bU3YTctmKrP7bvywd6No-52">
          <mxGeometry y="210" width="172" height="27" as="geometry" />
        </mxCell>
        <mxCell id="bU3YTctmKrP7bvywd6No-61" value="+ removeFromCart()" style="text;strokeColor=none;fillColor=none;align=left;verticalAlign=top;spacingLeft=4;spacingRight=4;overflow=hidden;rotatable=0;points=[[0,0.5],[1,0.5]];portConstraint=eastwest;" vertex="1" parent="bU3YTctmKrP7bvywd6No-52">
          <mxGeometry y="237" width="172" height="27" as="geometry" />
        </mxCell>
        <mxCell id="bU3YTctmKrP7bvywd6No-62" value="+ placeOrder()" style="text;strokeColor=none;fillColor=none;align=left;verticalAlign=top;spacingLeft=4;spacingRight=4;overflow=hidden;rotatable=0;points=[[0,0.5],[1,0.5]];portConstraint=eastwest;" vertex="1" parent="bU3YTctmKrP7bvywd6No-52">
          <mxGeometry y="264" width="172" height="27" as="geometry" />
        </mxCell>
        <mxCell id="bU3YTctmKrP7bvywd6No-63" value="&lt;&lt;Entity&gt;&gt;&#xa;ShopRating" style="swimlane;fontStyle=1;align=center;verticalAlign=top;childLayout=stackLayout;horizontal=1;startSize=42.2;horizontalStack=0;resizeParent=1;resizeParentMax=0;resizeLast=0;collapsible=0;marginBottom=0;" vertex="1" parent="1">
          <mxGeometry x="960" y="769" width="144" height="218.2" as="geometry" />
        </mxCell>
        <mxCell id="bU3YTctmKrP7bvywd6No-64" value="- ratingID: int" style="text;strokeColor=none;fillColor=none;align=left;verticalAlign=top;spacingLeft=4;spacingRight=4;overflow=hidden;rotatable=0;points=[[0,0.5],[1,0.5]];portConstraint=eastwest;" vertex="1" parent="bU3YTctmKrP7bvywd6No-63">
          <mxGeometry y="42.2" width="144" height="28" as="geometry" />
        </mxCell>
        <mxCell id="bU3YTctmKrP7bvywd6No-65" value="- shopID: int" style="text;strokeColor=none;fillColor=none;align=left;verticalAlign=top;spacingLeft=4;spacingRight=4;overflow=hidden;rotatable=0;points=[[0,0.5],[1,0.5]];portConstraint=eastwest;" vertex="1" parent="bU3YTctmKrP7bvywd6No-63">
          <mxGeometry y="70.2" width="144" height="28" as="geometry" />
        </mxCell>
        <mxCell id="bU3YTctmKrP7bvywd6No-66" value="- customerID: int" style="text;strokeColor=none;fillColor=none;align=left;verticalAlign=top;spacingLeft=4;spacingRight=4;overflow=hidden;rotatable=0;points=[[0,0.5],[1,0.5]];portConstraint=eastwest;" vertex="1" parent="bU3YTctmKrP7bvywd6No-63">
          <mxGeometry y="98.2" width="144" height="28" as="geometry" />
        </mxCell>
        <mxCell id="bU3YTctmKrP7bvywd6No-67" value="- rating: int" style="text;strokeColor=none;fillColor=none;align=left;verticalAlign=top;spacingLeft=4;spacingRight=4;overflow=hidden;rotatable=0;points=[[0,0.5],[1,0.5]];portConstraint=eastwest;" vertex="1" parent="bU3YTctmKrP7bvywd6No-63">
          <mxGeometry y="126.2" width="144" height="28" as="geometry" />
        </mxCell>
        <mxCell id="bU3YTctmKrP7bvywd6No-68" value="- comment: string" style="text;strokeColor=none;fillColor=none;align=left;verticalAlign=top;spacingLeft=4;spacingRight=4;overflow=hidden;rotatable=0;points=[[0,0.5],[1,0.5]];portConstraint=eastwest;" vertex="1" parent="bU3YTctmKrP7bvywd6No-63">
          <mxGeometry y="154.2" width="144" height="28" as="geometry" />
        </mxCell>
        <mxCell id="bU3YTctmKrP7bvywd6No-69" style="line;strokeWidth=1;fillColor=none;align=left;verticalAlign=middle;spacingTop=-1;spacingLeft=3;spacingRight=3;rotatable=0;labelPosition=right;points=[];portConstraint=eastwest;strokeColor=inherit;" vertex="1" parent="bU3YTctmKrP7bvywd6No-63">
          <mxGeometry y="182.2" width="144" height="8" as="geometry" />
        </mxCell>
        <mxCell id="bU3YTctmKrP7bvywd6No-70" value="+ submitRating()" style="text;strokeColor=none;fillColor=none;align=left;verticalAlign=top;spacingLeft=4;spacingRight=4;overflow=hidden;rotatable=0;points=[[0,0.5],[1,0.5]];portConstraint=eastwest;" vertex="1" parent="bU3YTctmKrP7bvywd6No-63">
          <mxGeometry y="190.2" width="144" height="28" as="geometry" />
        </mxCell>
        <mxCell id="bU3YTctmKrP7bvywd6No-71" value="&lt;&lt;Entity&gt;&gt;&#xa;PaymentGateway" style="swimlane;fontStyle=1;align=center;verticalAlign=top;childLayout=stackLayout;horizontal=1;startSize=43.38461538461539;horizontalStack=0;resizeParent=1;resizeParentMax=0;resizeLast=0;collapsible=0;marginBottom=0;" vertex="1" parent="1">
          <mxGeometry x="714" y="780" width="196" height="196.3846153846154" as="geometry" />
        </mxCell>
        <mxCell id="bU3YTctmKrP7bvywd6No-72" value="- paymentGatewayID: int" style="text;strokeColor=none;fillColor=none;align=left;verticalAlign=top;spacingLeft=4;spacingRight=4;overflow=hidden;rotatable=0;points=[[0,0.5],[1,0.5]];portConstraint=eastwest;" vertex="1" parent="bU3YTctmKrP7bvywd6No-71">
          <mxGeometry y="43.38461538461539" width="196" height="29" as="geometry" />
        </mxCell>
        <mxCell id="bU3YTctmKrP7bvywd6No-73" value="- name: string" style="text;strokeColor=none;fillColor=none;align=left;verticalAlign=top;spacingLeft=4;spacingRight=4;overflow=hidden;rotatable=0;points=[[0,0.5],[1,0.5]];portConstraint=eastwest;" vertex="1" parent="bU3YTctmKrP7bvywd6No-71">
          <mxGeometry y="72.38461538461539" width="196" height="29" as="geometry" />
        </mxCell>
        <mxCell id="bU3YTctmKrP7bvywd6No-74" value="- escrowService: boolean" style="text;strokeColor=none;fillColor=none;align=left;verticalAlign=top;spacingLeft=4;spacingRight=4;overflow=hidden;rotatable=0;points=[[0,0.5],[1,0.5]];portConstraint=eastwest;" vertex="1" parent="bU3YTctmKrP7bvywd6No-71">
          <mxGeometry y="101.38461538461539" width="196" height="29" as="geometry" />
        </mxCell>
        <mxCell id="bU3YTctmKrP7bvywd6No-75" style="line;strokeWidth=1;fillColor=none;align=left;verticalAlign=middle;spacingTop=-1;spacingLeft=3;spacingRight=3;rotatable=0;labelPosition=right;points=[];portConstraint=eastwest;strokeColor=inherit;" vertex="1" parent="bU3YTctmKrP7bvywd6No-71">
          <mxGeometry y="130.3846153846154" width="196" height="8" as="geometry" />
        </mxCell>
        <mxCell id="bU3YTctmKrP7bvywd6No-76" value="+ processPayment()" style="text;strokeColor=none;fillColor=none;align=left;verticalAlign=top;spacingLeft=4;spacingRight=4;overflow=hidden;rotatable=0;points=[[0,0.5],[1,0.5]];portConstraint=eastwest;" vertex="1" parent="bU3YTctmKrP7bvywd6No-71">
          <mxGeometry y="138.3846153846154" width="196" height="29" as="geometry" />
        </mxCell>
        <mxCell id="bU3YTctmKrP7bvywd6No-77" value="+ releaseEscrow()" style="text;strokeColor=none;fillColor=none;align=left;verticalAlign=top;spacingLeft=4;spacingRight=4;overflow=hidden;rotatable=0;points=[[0,0.5],[1,0.5]];portConstraint=eastwest;" vertex="1" parent="bU3YTctmKrP7bvywd6No-71">
          <mxGeometry y="167.3846153846154" width="196" height="29" as="geometry" />
        </mxCell>
        <mxCell id="bU3YTctmKrP7bvywd6No-78" value="&lt;&lt;Entity&gt;&gt;&#xa;Warehouse" style="swimlane;fontStyle=1;align=center;verticalAlign=top;childLayout=stackLayout;horizontal=1;startSize=45;horizontalStack=0;resizeParent=1;resizeParentMax=0;resizeLast=0;collapsible=0;marginBottom=0;" vertex="1" parent="1">
          <mxGeometry x="649" y="1126" width="325" height="173" as="geometry" />
        </mxCell>
        <mxCell id="bU3YTctmKrP7bvywd6No-79" value="- warehouseID: int" style="text;strokeColor=none;fillColor=none;align=left;verticalAlign=top;spacingLeft=4;spacingRight=4;overflow=hidden;rotatable=0;points=[[0,0.5],[1,0.5]];portConstraint=eastwest;" vertex="1" parent="bU3YTctmKrP7bvywd6No-78">
          <mxGeometry y="45" width="325" height="30" as="geometry" />
        </mxCell>
        <mxCell id="bU3YTctmKrP7bvywd6No-80" value="- name: string" style="text;strokeColor=none;fillColor=none;align=left;verticalAlign=top;spacingLeft=4;spacingRight=4;overflow=hidden;rotatable=0;points=[[0,0.5],[1,0.5]];portConstraint=eastwest;" vertex="1" parent="bU3YTctmKrP7bvywd6No-78">
          <mxGeometry y="75" width="325" height="30" as="geometry" />
        </mxCell>
        <mxCell id="bU3YTctmKrP7bvywd6No-81" style="line;strokeWidth=1;fillColor=none;align=left;verticalAlign=middle;spacingTop=-1;spacingLeft=3;spacingRight=3;rotatable=0;labelPosition=right;points=[];portConstraint=eastwest;strokeColor=inherit;" vertex="1" parent="bU3YTctmKrP7bvywd6No-78">
          <mxGeometry y="105" width="325" height="8" as="geometry" />
        </mxCell>
        <mxCell id="bU3YTctmKrP7bvywd6No-82" value="+ updateStock(productID: int, quantity: int)" style="text;strokeColor=none;fillColor=none;align=left;verticalAlign=top;spacingLeft=4;spacingRight=4;overflow=hidden;rotatable=0;points=[[0,0.5],[1,0.5]];portConstraint=eastwest;" vertex="1" parent="bU3YTctmKrP7bvywd6No-78">
          <mxGeometry y="113" width="325" height="30" as="geometry" />
        </mxCell>
        <mxCell id="bU3YTctmKrP7bvywd6No-83" value="+ getAvailableStock(productID: int): int" style="text;strokeColor=none;fillColor=none;align=left;verticalAlign=top;spacingLeft=4;spacingRight=4;overflow=hidden;rotatable=0;points=[[0,0.5],[1,0.5]];portConstraint=eastwest;" vertex="1" parent="bU3YTctmKrP7bvywd6No-78">
          <mxGeometry y="143" width="325" height="30" as="geometry" />
        </mxCell>
        <mxCell id="bU3YTctmKrP7bvywd6No-84" value="owns" style="curved=1;startArrow=none;endArrow=none;exitX=0.49852764423076923;exitY=1;entryX=0.5012235093390804;entryY=0;rounded=0;" edge="1" parent="1" source="bU3YTctmKrP7bvywd6No-1" target="bU3YTctmKrP7bvywd6No-12">
          <mxGeometry relative="1" as="geometry">
            <Array as="points" />
          </mxGeometry>
        </mxCell>
        <mxCell id="bU3YTctmKrP7bvywd6No-85" value="1" style="edgeLabel;resizable=0;labelBackgroundColor=none;fontSize=12;align=right;verticalAlign=top;" vertex="1" parent="bU3YTctmKrP7bvywd6No-84">
          <mxGeometry x="-1" relative="1" as="geometry" />
        </mxCell>
        <mxCell id="bU3YTctmKrP7bvywd6No-86" value="1" style="edgeLabel;resizable=0;labelBackgroundColor=none;fontSize=12;align=left;verticalAlign=bottom;" vertex="1" parent="bU3YTctmKrP7bvywd6No-84">
          <mxGeometry x="1" relative="1" as="geometry" />
        </mxCell>
        <mxCell id="bU3YTctmKrP7bvywd6No-87" value="uses" style="curved=1;startArrow=none;endArrow=none;exitX=0.0014704561781609196;exitY=0.7930822620475441;entryX=0.49915406050955413;entryY=-0.002890173410404624;rounded=0;" edge="1" parent="1" source="bU3YTctmKrP7bvywd6No-12" target="bU3YTctmKrP7bvywd6No-21">
          <mxGeometry relative="1" as="geometry">
            <Array as="points">
              <mxPoint x="98" y="700" />
            </Array>
          </mxGeometry>
        </mxCell>
        <mxCell id="bU3YTctmKrP7bvywd6No-88" value="1" style="edgeLabel;resizable=0;labelBackgroundColor=none;fontSize=12;align=right;verticalAlign=top;" vertex="1" parent="bU3YTctmKrP7bvywd6No-87">
          <mxGeometry x="-1" relative="1" as="geometry" />
        </mxCell>
        <mxCell id="bU3YTctmKrP7bvywd6No-89" value="1" style="edgeLabel;resizable=0;labelBackgroundColor=none;fontSize=12;align=left;verticalAlign=bottom;" vertex="1" parent="bU3YTctmKrP7bvywd6No-87">
          <mxGeometry x="1" relative="1" as="geometry" />
        </mxCell>
        <mxCell id="bU3YTctmKrP7bvywd6No-90" value="contains" style="curved=1;startArrow=none;endArrow=none;exitX=0.3069807978866833;exitY=1;entryX=0.0024756170382165604;entryY=0.1536797541198531;rounded=0;" edge="1" parent="1" source="bU3YTctmKrP7bvywd6No-12" target="bU3YTctmKrP7bvywd6No-27">
          <mxGeometry relative="1" as="geometry">
            <Array as="points">
              <mxPoint x="267" y="700" />
              <mxPoint x="267" y="1057" />
            </Array>
          </mxGeometry>
        </mxCell>
        <mxCell id="bU3YTctmKrP7bvywd6No-91" value="1" style="edgeLabel;resizable=0;labelBackgroundColor=none;fontSize=12;align=right;verticalAlign=top;" vertex="1" parent="bU3YTctmKrP7bvywd6No-90">
          <mxGeometry x="-1" relative="1" as="geometry" />
        </mxCell>
        <mxCell id="bU3YTctmKrP7bvywd6No-92" value="0..n" style="edgeLabel;resizable=0;labelBackgroundColor=none;fontSize=12;align=left;verticalAlign=bottom;" vertex="1" parent="bU3YTctmKrP7bvywd6No-90">
          <mxGeometry x="1" relative="1" as="geometry" />
        </mxCell>
        <mxCell id="bU3YTctmKrP7bvywd6No-93" value="receives" style="curved=1;startArrow=none;endArrow=none;exitX=0.5012235093390804;exitY=1;entryX=0.0008180628272251309;entryY=0.23985775517741934;rounded=0;" edge="1" parent="1" source="bU3YTctmKrP7bvywd6No-12" target="bU3YTctmKrP7bvywd6No-36">
          <mxGeometry relative="1" as="geometry">
            <Array as="points">
              <mxPoint x="317" y="700" />
            </Array>
          </mxGeometry>
        </mxCell>
        <mxCell id="bU3YTctmKrP7bvywd6No-94" value="1" style="edgeLabel;resizable=0;labelBackgroundColor=none;fontSize=12;align=left;verticalAlign=top;" vertex="1" parent="bU3YTctmKrP7bvywd6No-93">
          <mxGeometry x="-1" relative="1" as="geometry" />
        </mxCell>
        <mxCell id="bU3YTctmKrP7bvywd6No-95" value="0..n" style="edgeLabel;resizable=0;labelBackgroundColor=none;fontSize=12;align=right;verticalAlign=bottom;" vertex="1" parent="bU3YTctmKrP7bvywd6No-93">
          <mxGeometry x="1" relative="1" as="geometry" />
        </mxCell>
        <mxCell id="bU3YTctmKrP7bvywd6No-96" value="includes" style="curved=1;startArrow=none;endArrow=none;exitX=0.5004908376963351;exitY=1;entryX=1.0007837380573248;entryY=0.11804777670266496;rounded=0;" edge="1" parent="1" source="bU3YTctmKrP7bvywd6No-36" target="bU3YTctmKrP7bvywd6No-27">
          <mxGeometry relative="1" as="geometry">
            <Array as="points">
              <mxPoint x="545" y="1057" />
            </Array>
          </mxGeometry>
        </mxCell>
        <mxCell id="bU3YTctmKrP7bvywd6No-97" value="n" style="edgeLabel;resizable=0;labelBackgroundColor=none;fontSize=12;align=right;verticalAlign=top;" vertex="1" parent="bU3YTctmKrP7bvywd6No-96">
          <mxGeometry x="-1" relative="1" as="geometry" />
        </mxCell>
        <mxCell id="bU3YTctmKrP7bvywd6No-98" value="n" style="edgeLabel;resizable=0;labelBackgroundColor=none;fontSize=12;align=left;verticalAlign=bottom;" vertex="1" parent="bU3YTctmKrP7bvywd6No-96">
          <mxGeometry x="1" relative="1" as="geometry" />
        </mxCell>
        <mxCell id="bU3YTctmKrP7bvywd6No-99" value="contains" style="curved=1;startArrow=none;endArrow=none;exitX=0.6954662207914776;exitY=1;entryX=1.0029444839015151;entryY=0.039495164325412585;rounded=0;" edge="1" parent="1" source="bU3YTctmKrP7bvywd6No-12" target="bU3YTctmKrP7bvywd6No-47">
          <mxGeometry relative="1" as="geometry">
            <Array as="points">
              <mxPoint x="367" y="700" />
              <mxPoint x="367" y="1057" />
            </Array>
          </mxGeometry>
        </mxCell>
        <mxCell id="bU3YTctmKrP7bvywd6No-100" value="1" style="edgeLabel;resizable=0;labelBackgroundColor=none;fontSize=12;align=right;verticalAlign=top;" vertex="1" parent="bU3YTctmKrP7bvywd6No-99">
          <mxGeometry x="-1" relative="1" as="geometry" />
        </mxCell>
        <mxCell id="bU3YTctmKrP7bvywd6No-101" value="0..n" style="edgeLabel;resizable=0;labelBackgroundColor=none;fontSize=12;align=left;verticalAlign=bottom;" vertex="1" parent="bU3YTctmKrP7bvywd6No-99">
          <mxGeometry x="1" relative="1" as="geometry" />
        </mxCell>
        <mxCell id="bU3YTctmKrP7bvywd6No-102" value="places" style="curved=1;startArrow=none;endArrow=none;exitX=-0.0016124636627906977;exitY=0.6884115391244399;entryX=1.000163612565445;entryY=0.15798418972332032;rounded=0;" edge="1" parent="1" source="bU3YTctmKrP7bvywd6No-52" target="bU3YTctmKrP7bvywd6No-36">
          <mxGeometry relative="1" as="geometry">
            <Array as="points">
              <mxPoint x="718" y="700" />
            </Array>
          </mxGeometry>
        </mxCell>
        <mxCell id="bU3YTctmKrP7bvywd6No-103" value="0..n" style="edgeLabel;resizable=0;labelBackgroundColor=none;fontSize=12;align=right;verticalAlign=top;" vertex="1" parent="bU3YTctmKrP7bvywd6No-102">
          <mxGeometry x="-1" relative="1" as="geometry" />
        </mxCell>
        <mxCell id="bU3YTctmKrP7bvywd6No-104" value="0..n" style="edgeLabel;resizable=0;labelBackgroundColor=none;fontSize=12;align=left;verticalAlign=bottom;" vertex="1" parent="bU3YTctmKrP7bvywd6No-102">
          <mxGeometry x="1" relative="1" as="geometry" />
        </mxCell>
        <mxCell id="bU3YTctmKrP7bvywd6No-105" value="rates" style="curved=1;startArrow=none;endArrow=none;exitX=0.6425930110416257;exitY=1;entryX=0.4961073133680556;entryY=-0.00228310502283105;rounded=0;" edge="1" parent="1" source="bU3YTctmKrP7bvywd6No-52" target="bU3YTctmKrP7bvywd6No-63">
          <mxGeometry relative="1" as="geometry">
            <Array as="points">
              <mxPoint x="1031" y="700" />
            </Array>
          </mxGeometry>
        </mxCell>
        <mxCell id="bU3YTctmKrP7bvywd6No-106" value="0..n" style="edgeLabel;resizable=0;labelBackgroundColor=none;fontSize=12;align=right;verticalAlign=top;" vertex="1" parent="bU3YTctmKrP7bvywd6No-105">
          <mxGeometry x="-1" relative="1" as="geometry" />
        </mxCell>
        <mxCell id="bU3YTctmKrP7bvywd6No-107" value="0..n" style="edgeLabel;resizable=0;labelBackgroundColor=none;fontSize=12;align=left;verticalAlign=bottom;" vertex="1" parent="bU3YTctmKrP7bvywd6No-105">
          <mxGeometry x="1" relative="1" as="geometry" />
        </mxCell>
        <mxCell id="bU3YTctmKrP7bvywd6No-108" value="uses" style="curved=1;startArrow=none;endArrow=none;exitX=1.0009765625;exitY=0.6875357594906389;entryX=0.07143853635204081;entryY=0;rounded=0;" edge="1" parent="1" source="bU3YTctmKrP7bvywd6No-12" target="bU3YTctmKrP7bvywd6No-71">
          <mxGeometry relative="1" as="geometry">
            <Array as="points">
              <mxPoint x="659" y="700" />
            </Array>
          </mxGeometry>
        </mxCell>
        <mxCell id="bU3YTctmKrP7bvywd6No-109" value="1" style="edgeLabel;resizable=0;labelBackgroundColor=none;fontSize=12;align=left;verticalAlign=top;" vertex="1" parent="bU3YTctmKrP7bvywd6No-108">
          <mxGeometry x="-1" relative="1" as="geometry" />
        </mxCell>
        <mxCell id="bU3YTctmKrP7bvywd6No-110" value="1" style="edgeLabel;resizable=0;labelBackgroundColor=none;fontSize=12;align=right;verticalAlign=bottom;" vertex="1" parent="bU3YTctmKrP7bvywd6No-108">
          <mxGeometry x="1" relative="1" as="geometry" />
        </mxCell>
        <mxCell id="bU3YTctmKrP7bvywd6No-111" value="manages" style="curved=1;startArrow=none;endArrow=none;exitX=0.4986148756377551;exitY=1;entryX=0.500703125;entryY=-0.002890173410404624;rounded=0;" edge="1" parent="1" source="bU3YTctmKrP7bvywd6No-71" target="bU3YTctmKrP7bvywd6No-78">
          <mxGeometry relative="1" as="geometry">
            <Array as="points" />
          </mxGeometry>
        </mxCell>
        <mxCell id="bU3YTctmKrP7bvywd6No-112" value="1" style="edgeLabel;resizable=0;labelBackgroundColor=none;fontSize=12;align=right;verticalAlign=top;" vertex="1" parent="bU3YTctmKrP7bvywd6No-111">
          <mxGeometry x="-1" relative="1" as="geometry" />
        </mxCell>
        <mxCell id="bU3YTctmKrP7bvywd6No-113" value="1" style="edgeLabel;resizable=0;labelBackgroundColor=none;fontSize=12;align=left;verticalAlign=bottom;" vertex="1" parent="bU3YTctmKrP7bvywd6No-111">
          <mxGeometry x="1" relative="1" as="geometry" />
        </mxCell>
        <mxCell id="bU3YTctmKrP7bvywd6No-114" value="contains" style="curved=1;startArrow=none;endArrow=none;exitX=0.49915406050955413;exitY=0.9971098265895953;entryX=0.06406066353344533;entryY=0;rounded=0;" edge="1" parent="1" source="bU3YTctmKrP7bvywd6No-21" target="bU3YTctmKrP7bvywd6No-47">
          <mxGeometry relative="1" as="geometry">
            <Array as="points">
              <mxPoint x="98" y="1057" />
            </Array>
          </mxGeometry>
        </mxCell>
        <mxCell id="bU3YTctmKrP7bvywd6No-115" value="1" style="edgeLabel;resizable=0;labelBackgroundColor=none;fontSize=12;align=right;verticalAlign=top;" vertex="1" parent="bU3YTctmKrP7bvywd6No-114">
          <mxGeometry x="-1" relative="1" as="geometry" />
        </mxCell>
        <mxCell id="bU3YTctmKrP7bvywd6No-116" value="0..n" style="edgeLabel;resizable=0;labelBackgroundColor=none;fontSize=12;align=left;verticalAlign=bottom;" vertex="1" parent="bU3YTctmKrP7bvywd6No-114">
          <mxGeometry x="1" relative="1" as="geometry" />
        </mxCell>
      </root>
    </mxGraphModel>
  </diagram>
</mxfile>
